<?xml version="1.0" standalone="no"?>
<!DOCTYPE svg PUBLIC "-//W3C//DTD SVG 1.1//EN" "http://www.w3.org/Graphics/SVG/1.1/DTD/svg11.dtd" >
<svg>
<metadata>
Created by FontForge 20090622 at Sat Jul 29 22:03:00 2017
 By deploy user
2013 published by FontShop International GmbH
</metadata>
<defs>
<font id="MarkPro-Light" horiz-adv-x="1" >
  <font-face 
    font-family="MarkPro-Light"
    font-weight="350"
    font-stretch="normal"
    units-per-em="2000"
    panose-1="2 11 5 4 2 1 1 1 1 2"
    ascent="1580"
    descent="-420"
    x-height="941"
    cap-height="1400"
    bbox="-1343 -478 3117 2203"
    underline-thickness="103"
    underline-position="-158"
    unicode-range="U+000D-U+FEFF"
  />
<missing-glyph horiz-adv-x="1198" 
d="M182 0v1400h834v-1400h-834zM285 103h628v1194h-628v-1194z" />
    <glyph glyph-name=".notdef" horiz-adv-x="1198" 
d="M182 0v1400h834v-1400h-834zM285 103h628v1194h-628v-1194z" />
    <glyph glyph-name=".null" horiz-adv-x="0" 
 />
    <glyph glyph-name=".null" horiz-adv-x="0" 
 />
    <glyph glyph-name="nonmarkingreturn" horiz-adv-x="666" 
 />
    <glyph glyph-name="CR" unicode="&#xd;" horiz-adv-x="530" 
 />
    <glyph glyph-name="space" unicode=" " horiz-adv-x="530" 
 />
    <glyph glyph-name="exclam" unicode="!" horiz-adv-x="520" 
d="M329 1400l-18 -965h-103l-18 965h139zM260 178q38 0 67 -28.5t29 -66.5q0 -39 -29 -68t-67 -29t-67 29t-29 68q0 38 29 66.5t67 28.5z" />
    <glyph glyph-name="quotedbl" unicode="&#x22;" horiz-adv-x="1013" 
d="M293 1440h114v-484h-114v484zM605 1440h114v-484h-114v484z" />
    <glyph glyph-name="numbersign" unicode="#" horiz-adv-x="1456" 
d="M261 1025h234l80 375h107l-80 -375h390l80 375h107l-80 -375h231l-22 -102h-231l-93 -440h230l-21 -101h-231l-81 -382h-107l81 382h-390l-81 -382h-107l81 382h-233l22 101h233l93 440h-233zM580 923l-93 -440h390l93 440h-390z" />
    <glyph glyph-name="dollar" unicode="$" horiz-adv-x="1400" 
d="M656 1585h106v-191q252 -14 443 -147l-60 -96q-170 117 -383 131v-528l54 -6q192 -23 302.5 -110.5t109.5 -239.5q-1 -89 -37.5 -161.5t-100 -120t-147 -75.5t-181.5 -35v-196h-105v195q-132 7 -265 53t-217 111l63 94q71 -54 186.5 -96.5t232.5 -50.5l-1 536l-45 5
q-191 21 -296 112t-104 240q1 112 60 197.5t158.5 132t226.5 54.5v192zM764 640h-2v-523q157 13 251.5 82.5t95.5 192.5q1 103 -87 165.5t-258 82.5zM330 1012q-2 -206 326 -246v516q-146 -12 -235.5 -83.5t-90.5 -186.5z" />
    <glyph glyph-name="percent" unicode="%" horiz-adv-x="1912" 
d="M456 1415q153 0 255.5 -101t102.5 -252t-102.5 -252.5t-255.5 -101.5q-151 0 -253 101.5t-102 252.5t102 252t253 101zM456 1315q-106 0 -177 -71.5t-71 -181.5t71 -181.5t177 -71.5q108 0 179.5 71.5t71.5 181.5t-71.5 181.5t-179.5 71.5zM1458 1400l-883 -1400h-120
l883 1400h120zM1453 692q153 0 256 -101.5t103 -252.5t-103 -252t-256 -101q-151 0 -252.5 101t-101.5 252t101.5 252.5t252.5 101.5zM1453 591q-106 0 -176.5 -71.5t-70.5 -181.5t70.5 -181.5t176.5 -71.5q108 0 180 71.5t72 181.5t-72 181.5t-180 71.5z" />
    <glyph glyph-name="ampersand" unicode="&#x26;" horiz-adv-x="1379" 
d="M1339 0h-165l-238 232q-43 -55 -85 -96.5t-95 -77.5t-117 -54.5t-137 -18.5q-176 0 -281 91.5t-105 247.5q0 68 23 129t68 114.5t89.5 93t109.5 87.5q-117 115 -165 192t-48 173q0 126 94 214t237 88q144 0 237 -84t93 -210q0 -58 -21 -111t-65 -101.5t-84.5 -83.5
t-104.5 -82l346 -338l230 339l92 -58l-242 -359zM508 92q108 0 188 54.5t161 162.5l-374 364q-56 -42 -94 -76t-76 -78t-56.5 -92t-18.5 -100q0 -104 75.5 -169.5t194.5 -65.5zM315 1106q0 -67 39 -124.5t148 -164.5q55 41 90.5 70.5t71 68t53 78.5t17.5 82
q0 83 -58.5 137.5t-151.5 54.5q-92 0 -150.5 -57.5t-58.5 -144.5z" />
    <glyph glyph-name="quotesingle" unicode="'" horiz-adv-x="701" 
d="M293 1440h114v-484h-114v484z" />
    <glyph glyph-name="parenleft" unicode="(" horiz-adv-x="799" 
d="M676 1424l39 -105q-199 -76 -321 -283.5t-122 -467.5t122 -467t321 -283l-39 -105q-154 56 -273 180.5t-185.5 300.5t-66.5 374q0 300 145.5 535.5t379.5 320.5z" />
    <glyph glyph-name="parenright" unicode=")" horiz-adv-x="799" 
d="M123 -286l-39 105q199 76 321 283.5t122 467.5t-122 467t-321 283l39 105q154 -56 273 -180.5t185.5 -300.5t66.5 -374q0 -300 -145.5 -535.5t-379.5 -320.5z" />
    <glyph glyph-name="asterisk" unicode="*" horiz-adv-x="866" 
d="M132 1253l258 -85v272h88v-271l256 84l27 -84l-257 -84l160 -219l-71 -51l-160 218l-159 -218l-71 51l159 219l-257 84z" />
    <glyph glyph-name="plus" unicode="+" horiz-adv-x="1200" 
d="M650 103h-105v372h-371v103h371v377h105v-377h376v-103h-376v-372z" />
    <glyph glyph-name="comma" unicode="," horiz-adv-x="488" 
d="M205 234h133l-96 -483h-99z" />
    <glyph glyph-name="hyphen" unicode="-" horiz-adv-x="835" 
d="M689 578v-103h-542v103h542z" />
    <glyph glyph-name="period" unicode="." horiz-adv-x="520" 
d="M260 177q38 0 67 -28.5t29 -67.5q0 -38 -29 -67t-67 -29t-67 29t-29 67q0 39 29 67.5t67 28.5z" />
    <glyph glyph-name="slash" unicode="/" horiz-adv-x="984" 
d="M978 1540l-849 -1740h-125l849 1740h125z" />
    <glyph glyph-name="zero" unicode="0" horiz-adv-x="1417" 
d="M709 1415q118 0 222 -49.5t181.5 -139.5t122.5 -226t45 -300q0 -163 -45 -299t-122.5 -226.5t-181.5 -140t-222 -49.5t-222 49.5t-182 140t-123 226.5t-45 299q0 164 45 300t123 226t182 139.5t222 49.5zM709 1302q-193 0 -321 -161.5t-128 -440.5t128.5 -440.5
t320.5 -161.5t320 161.5t128 440.5q0 141 -35 256t-96.5 190t-142.5 115.5t-174 40.5z" />
    <glyph glyph-name="one" unicode="1" horiz-adv-x="855" 
d="M635 1414v-1414h-118v1243l-448 -194v123z" />
    <glyph glyph-name="two" unicode="2" horiz-adv-x="1091" 
d="M174 1115l-85 69q149 231 417 231q205 0 321.5 -119.5t116.5 -304.5q0 -117 -51.5 -212.5t-137.5 -184.5l-458 -482h698v-112h-872v92l542 570q156 163 156 329q0 135 -84.5 223.5t-233.5 88.5q-117 0 -194 -51t-135 -137z" />
    <glyph glyph-name="three" unicode="3" horiz-adv-x="1097" 
d="M494 1415q203 0 329 -104.5t126 -269.5q0 -126 -64 -210.5t-175 -123.5q123 -39 196.5 -125.5t73.5 -209.5q0 -95 -39.5 -170.5t-106.5 -122t-150.5 -70.5t-176.5 -24q-276 0 -438 175l75 79q144 -144 360 -144q97 0 175 29.5t128 95t50 157.5q0 127 -103 201.5
t-256 74.5h-193v108h193q144 0 236 71.5t92 203.5q0 120 -95.5 194.5t-243.5 74.5q-103 0 -186 -45.5t-137 -118.5l-86 72q65 92 171 147t245 55z" />
    <glyph glyph-name="four" unicode="4" horiz-adv-x="1152" 
d="M844 817v-399h253v-111h-253v-307h-117v307h-672v91l523 1001h133l-515 -981h531v399h117z" />
    <glyph glyph-name="five" unicode="5" horiz-adv-x="1151" 
d="M967 1400v-111h-636l-17 -458h219q121 0 216.5 -31.5t155.5 -87.5t91 -129.5t31 -159.5q0 -202 -133 -320t-338 -118q-292 0 -467 214l79 77q71 -86 172 -132.5t215 -46.5q162 0 256 89t94 227t-100.5 222t-306.5 84h-295l20 681h744z" />
    <glyph glyph-name="six" unicode="6" horiz-adv-x="1150" 
d="M741 1400l-350 -553q90 39 191 39q207 0 343 -128.5t136 -322.5q0 -193 -139 -321.5t-350 -128.5t-350.5 128.5t-139.5 321.5q0 137 91 284l424 681h144zM572 777q-160 0 -264.5 -97t-104.5 -245t104.5 -244.5t264.5 -96.5q159 0 263.5 96.5t104.5 244.5t-104.5 245
t-263.5 97z" />
    <glyph glyph-name="seven" unicode="7" horiz-adv-x="1094" 
d="M1025 1400v-92l-648 -1308h-137l644 1289h-802v111h943z" />
    <glyph glyph-name="eight" unicode="8" horiz-adv-x="1256" 
d="M627 1415q204 0 341 -100.5t137 -273.5q0 -122 -64.5 -205t-172.5 -127q123 -43 197 -128t74 -212q0 -120 -70 -208.5t-184.5 -132t-257.5 -43.5t-257.5 43.5t-184 132t-69.5 208.5q0 127 73.5 212t196.5 128q-108 43 -172.5 126t-64.5 206q0 173 137 273.5t341 100.5z
M627 655q-108 0 -194.5 -31t-139.5 -95.5t-53 -152.5q0 -134 110 -208t277 -74t277 74t110 208q0 88 -53 152.5t-139.5 95.5t-194.5 31zM627 1305q-152 0 -252.5 -71t-100.5 -199q0 -132 100 -204.5t253 -72.5t253.5 72.5t100.5 204.5q0 128 -100.5 199t-253.5 71z" />
    <glyph glyph-name="nine" unicode="9" horiz-adv-x="1150" 
d="M409 0l349 553q-89 -39 -191 -39q-207 0 -342.5 128.5t-135.5 322.5q0 193 138.5 321.5t350.5 128.5q211 0 350.5 -128.5t139.5 -321.5q0 -137 -91 -284l-424 -681h-144zM578 623q160 0 264 96.5t105 245.5q0 148 -104.5 244.5t-264.5 96.5t-264 -96.5t-104 -244.5
t104 -245t264 -97z" />
    <glyph glyph-name="colon" unicode=":" horiz-adv-x="520" 
d="M260 956q38 0 67 -28.5t29 -67.5q0 -38 -29 -67t-67 -29t-67 29t-29 67q0 39 29 67.5t67 28.5zM260 178q38 0 67 -28.5t29 -66.5q0 -39 -29 -68t-67 -29t-67 29t-29 68q0 38 29 66.5t67 28.5z" />
    <glyph glyph-name="semicolon" unicode=";" horiz-adv-x="488" 
d="M251 956q38 0 66.5 -28.5t28.5 -67.5q0 -38 -28.5 -67t-66.5 -29t-67 29t-29 67q0 39 29 67.5t67 28.5zM205 234h133l-96 -483h-99z" />
    <glyph glyph-name="less" unicode="&#x3c;" horiz-adv-x="1200" 
d="M986 225v-122l-770 368v113l770 368v-122l-656 -302z" />
    <glyph glyph-name="equal" unicode="=" horiz-adv-x="1200" 
d="M1026 403v-104h-852v104h852zM1026 754v-103h-852v103h852z" />
    <glyph glyph-name="greater" unicode="&#x3e;" horiz-adv-x="1200" 
d="M215 830v122l770 -368v-113l-770 -368v122l656 302z" />
    <glyph glyph-name="question" unicode="?" horiz-adv-x="848" 
d="M324 435h-104v310h49q179 0 281 75.5t102 207.5q0 124 -103 198t-272 74q-42 0 -124 -7l-10 116q65 10 140 10q224 0 359.5 -106t135.5 -281q0 -169 -117.5 -272.5t-329.5 -122.5zM272 177q38 0 67 -28.5t29 -67.5q0 -38 -29 -67t-67 -29t-67 29t-29 67q0 39 29 67.5
t67 28.5z" />
    <glyph glyph-name="at" unicode="@" horiz-adv-x="1979" 
d="M1367 884v-485q0 -208 128 -208q91 0 148 90.5t57 248.5q0 150 -54.5 277.5t-149.5 215.5t-225.5 137.5t-280.5 49.5q-149 0 -280.5 -54.5t-225.5 -148t-149 -225.5t-55 -282q0 -152 55 -285.5t149 -228.5t225.5 -149.5t280.5 -54.5q244 0 441 141l54 -74
q-219 -159 -495 -159q-171 0 -322.5 62.5t-259 170.5t-170 258t-62.5 319q0 167 62.5 315.5t170 255.5t259 169t322.5 62q230 0 415.5 -98t292 -275t106.5 -399q0 -187 -85.5 -308.5t-228.5 -121.5q-89 0 -143.5 45.5t-70.5 124.5q-48 -77 -127.5 -122t-184.5 -45
q-163 0 -273.5 113.5t-110.5 283.5t110.5 283.5t273.5 113.5q102 0 179.5 -44t125.5 -120v151h98zM977 804q-129 0 -212.5 -87t-83.5 -217t83.5 -217t212.5 -87t212.5 86.5t83.5 217.5t-83.5 217.5t-212.5 86.5z" />
    <glyph glyph-name="A" unicode="A" horiz-adv-x="1406" 
d="M778 1400l588 -1400h-131l-170 409h-728l-170 -409h-127l588 1400h150zM701 1281l-315 -756h630z" />
    <glyph glyph-name="B" unicode="B" horiz-adv-x="1399" 
d="M209 1400h541q112 0 200.5 -20.5t155.5 -63t103 -113.5t36 -166q0 -123 -64.5 -204t-176.5 -112q125 -32 197.5 -118t72.5 -221q0 -194 -132 -288t-369 -94h-564v1400zM768 656h-437v-541h437q182 0 280 63t98 208t-98 207.5t-280 62.5zM746 1285h-415v-515h416
q175 0 273 59t98 199q0 72 -27.5 123t-79 79.5t-116.5 41.5t-149 13z" />
    <glyph glyph-name="C" unicode="C" horiz-adv-x="1528" 
d="M843 1416q180 0 331.5 -77t234.5 -211l-102 -68q-73 111 -195.5 174.5t-268.5 63.5q-123 0 -232 -43.5t-188 -121t-124.5 -190t-45.5 -243.5t45.5 -243.5t124.5 -190t188 -121t232 -43.5q146 0 268 63t195 175l100 -73q-88 -132 -237 -207.5t-326 -75.5
q-152 0 -284.5 53.5t-227.5 147t-150 227t-55 288.5t55 288.5t150 227t227.5 147t284.5 53.5z" />
    <glyph glyph-name="D" unicode="D" horiz-adv-x="1602" 
d="M209 1400h511q349 0 553 -188.5t204 -511.5t-204 -511.5t-553 -188.5h-511v1400zM720 1284h-389v-1168h389q301 0 465 157t164 427q0 271 -164 427.5t-465 156.5z" />
    <glyph glyph-name="E" unicode="E" horiz-adv-x="1341" 
d="M1173 115v-115h-964v1400h957v-115h-835v-523h811v-114h-811v-533h842z" />
    <glyph glyph-name="F" unicode="F" horiz-adv-x="1287" 
d="M1128 763v-116h-797v-647h-122v1400h952v-116h-830v-521h797z" />
    <glyph glyph-name="G" unicode="G" horiz-adv-x="1637" 
d="M843 1416q163 0 304 -63t238 -176l-90 -87q-81 98 -198.5 153t-253.5 55q-123 0 -232 -43.5t-188 -121t-124.5 -190t-45.5 -243.5q0 -175 78 -312.5t211 -211.5t295 -74q239 0 383 140.5t158 381.5h-474v114h606q2 -13 2 -33q0 -205 -81 -368t-236 -257.5t-358 -94.5
q-140 0 -268.5 50t-227 140t-157 226.5t-58.5 298.5q0 207 94 371t257.5 254.5t365.5 90.5z" />
    <glyph glyph-name="H" unicode="H" horiz-adv-x="1565" 
d="M331 1400v-637h902v637h122v-1400h-122v647h-902v-647h-122v1400h122z" />
    <glyph glyph-name="I" unicode="I" horiz-adv-x="541" 
d="M331 1400v-1400h-122v1400h122z" />
    <glyph glyph-name="J" unicode="J" horiz-adv-x="1151" 
d="M952 1400v-898q0 -243 -135.5 -380t-349.5 -137q-259 0 -422 186l82 84q131 -153 339 -153q165 0 264.5 107t99.5 304v887h122z" />
    <glyph glyph-name="K" unicode="K" horiz-adv-x="1367" 
d="M1167 0l-651 646h-185v-646h-122v1400h122v-638h187l615 638h158l-675 -689l717 -711h-166z" />
    <glyph glyph-name="L" unicode="L" horiz-adv-x="1204" 
d="M1162 116v-116h-953v1400h122v-1284h831z" />
    <glyph glyph-name="M" unicode="M" horiz-adv-x="1860" 
d="M1650 1400v-1400h-122v1261l-534 -1095h-129l-534 1089v-1255h-122v1400h184l537 -1091l536 1091h184z" />
    <glyph glyph-name="N" unicode="N" horiz-adv-x="1569" 
d="M1359 1400v-1400h-110l-917 1190l-1 -1190h-122v1400h110l918 -1190v1190h122z" />
    <glyph glyph-name="O" unicode="O" horiz-adv-x="1685" 
d="M843 1416q152 0 284.5 -53.5t227.5 -147t150 -227t55 -288.5t-55 -288.5t-150 -227t-227.5 -147t-284.5 -53.5t-284.5 53.5t-227.5 147t-150 227t-55 288.5t55 288.5t150 227t227.5 147t284.5 53.5zM843 1298q-123 0 -232 -43.5t-188 -121t-124.5 -190t-45.5 -243.5
t45.5 -243.5t124.5 -190t188 -121t232 -43.5t231.5 43.5t187.5 121t124.5 190t45.5 243.5t-45.5 243.5t-124.5 190t-187.5 121t-231.5 43.5z" />
    <glyph glyph-name="P" unicode="P" horiz-adv-x="1331" 
d="M729 570h-398v-570h-122v1400h520q232 0 363.5 -109.5t131.5 -305.5t-131.5 -305.5t-363.5 -109.5zM726 1285h-395v-599h395q178 0 274.5 76t96.5 223t-96.5 223.5t-274.5 76.5z" />
    <glyph glyph-name="Q" unicode="Q" horiz-adv-x="1685" 
d="M843 1416q152 0 284.5 -53.5t227.5 -147t150 -227t55 -288.5q0 -268 -156 -459l192 -241h-144l-128 157q-197 -173 -481 -173q-152 0 -284.5 53.5t-227.5 147t-150 227t-55 288.5t55 288.5t150 227t227.5 147t284.5 53.5zM843 1298q-123 0 -232 -43.5t-188 -121
t-124.5 -190t-45.5 -243.5t45.5 -243.5t124.5 -190t188 -121t232 -43.5q240 0 404 151l-344 431h146l275 -342q108 152 108 358q0 131 -45.5 243.5t-124.5 190t-187.5 121t-231.5 43.5z" />
    <glyph glyph-name="R" unicode="R" horiz-adv-x="1341" 
d="M209 1400h534q232 0 357.5 -101.5t125.5 -287.5q0 -181 -129.5 -285.5t-352.5 -104.5h-55l530 -621h-152l-522 621h-214v-621h-122v1400zM742 1285h-411v-553h411q174 0 266 72t92 207q0 134 -92.5 204t-265.5 70z" />
    <glyph glyph-name="S" unicode="S" horiz-adv-x="1343" 
d="M1183 1261l-63 -99q-194 137 -438 137q-172 0 -281 -75t-109 -204q0 -106 83 -168.5t259 -82.5l153 -17q430 -48 430 -359q0 -99 -43 -178t-119 -128.5t-174.5 -75.5t-213.5 -26q-152 0 -298.5 49t-243.5 126l67 97q81 -64 209.5 -110t264.5 -46q187 0 305.5 73
t118.5 209q0 112 -88 172t-267 80l-159 18q-197 22 -304 111.5t-107 247.5q0 125 70 218t186 139t262 46q283 0 500 -154z" />
    <glyph glyph-name="T" unicode="T" horiz-adv-x="1215" 
d="M1173 1400v-116h-505v-1284h-122v1284h-504v116h1131z" />
    <glyph glyph-name="U" unicode="U" horiz-adv-x="1510" 
d="M1321 1400v-855q0 -137 -44 -245t-122 -176t-180 -103.5t-221 -35.5t-221 35.5t-179.5 103.5t-121.5 176t-44 245v855h122v-846q0 -113 33.5 -200.5t94 -141.5t140.5 -82t176 -28q199 0 321.5 115t122.5 337v846h123z" />
    <glyph glyph-name="V" unicode="V" horiz-adv-x="1385" 
d="M1345 1400l-577 -1400h-151l-577 1400h130l524 -1279l525 1279h126z" />
    <glyph glyph-name="W" unicode="W" horiz-adv-x="2208" 
d="M2144 1400l-472 -1400h-149l-419 1241l-419 -1241h-149l-472 1400h129l419 -1265l425 1265h137l424 -1263l420 1263h126z" />
    <glyph glyph-name="X" unicode="X" horiz-adv-x="1373" 
d="M1279 1400l-517 -684l542 -716h-148l-470 624l-473 -624h-144l541 716l-515 684h148l445 -591l446 591h145z" />
    <glyph glyph-name="Y" unicode="Y" horiz-adv-x="1263" 
d="M1251 1400l-558 -800v-600h-122v602l-559 798h146l475 -685l475 685h143z" />
    <glyph glyph-name="Z" unicode="Z" horiz-adv-x="1327" 
d="M1197 1400v-94l-910 -1190h914v-116h-1076v95l909 1189h-894v116h1057z" />
    <glyph glyph-name="bracketleft" unicode="[" horiz-adv-x="738" 
d="M654 -157v-106h-445v1663h445v-106h-328v-1451h328z" />
    <glyph glyph-name="backslash" unicode="\" horiz-adv-x="984" 
d="M855 -200l-849 1740h125l849 -1740h-125z" />
    <glyph glyph-name="bracketright" unicode="]" horiz-adv-x="738" 
d="M84 1294v106h445v-1663h-445v106h328v1451h-328z" />
    <glyph glyph-name="asciicircum" unicode="^" horiz-adv-x="1200" 
d="M309 656h-121l356 744h112l356 -744h-124l-290 626z" />
    <glyph glyph-name="underscore" unicode="_" horiz-adv-x="935" 
d="M940 -150v-103h-945v103h945z" />
    <glyph glyph-name="grave" unicode="`" horiz-adv-x="904" 
d="M634 1082h-113l-251 300h144z" />
    <glyph glyph-name="a" unicode="a" horiz-adv-x="1244" 
d="M1063 941v-941h-113v181q-59 -92 -154 -144t-219 -52q-199 0 -334.5 138t-135.5 347t135.5 347.5t334.5 138.5q124 0 219 -52.5t154 -143.5v181h113zM590 849q-160 0 -263.5 -108.5t-103.5 -270.5q0 -160 104 -269t263 -109t262.5 107.5t103.5 270.5t-103.5 271
t-262.5 108z" />
    <glyph glyph-name="b" unicode="b" horiz-adv-x="1245" 
d="M667 956q200 0 335.5 -138.5t135.5 -347.5t-135.5 -347t-335.5 -138q-124 0 -218.5 51.5t-152.5 142.5v-179h-114v1440h114v-678q59 90 153.5 142t217.5 52zM654 849q-158 0 -262 -108t-104 -271t104 -270.5t262 -107.5q161 0 264 108.5t103 269.5t-103.5 270t-263.5 109
z" />
    <glyph glyph-name="c" unicode="c" horiz-adv-x="1023" 
d="M589 956q104 0 194 -38t153 -108l-74 -77q-116 116 -276 116q-155 0 -259 -107.5t-104 -271.5q0 -163 104 -270.5t259 -107.5q160 0 279 117l71 -78q-132 -146 -347 -146q-211 0 -346.5 138t-135.5 347t135.5 347.5t346.5 138.5z" />
    <glyph glyph-name="d" unicode="d" horiz-adv-x="1244" 
d="M577 956q124 0 219 -52.5t154 -143.5v680h113v-1440h-113v181q-59 -92 -154 -144t-219 -52q-199 0 -334.5 138t-135.5 347t135.5 347.5t334.5 138.5zM590 849q-160 0 -263.5 -108.5t-103.5 -270.5q0 -160 104 -269t263 -109t262.5 107.5t103.5 270.5t-103.5 271
t-262.5 108z" />
    <glyph glyph-name="e" unicode="e" horiz-adv-x="1121" 
d="M573 956q189 0 314 -135t127 -345q0 -19 -2 -47h-789q12 -160 113.5 -252.5t250.5 -92.5q182 0 318 134l61 -78q-152 -155 -386 -155q-207 0 -340 135.5t-133 349.5q0 212 133 349t333 137zM571 855q-141 0 -235 -91.5t-111 -236.5h673q-13 146 -103.5 237t-223.5 91z
" />
    <glyph glyph-name="f" unicode="f" horiz-adv-x="875" 
d="M805 941v-104h-405v-837h-114v837h-231v104h231v162q0 164 75 258t236 94q140 0 254 -70l-41 -95q-96 58 -206 58q-204 0 -204 -245v-162h405z" />
    <glyph glyph-name="g" unicode="g" horiz-adv-x="1236" 
d="M574 956q123 0 216.5 -53t150.5 -146v184h114v-877q0 -152 -66.5 -261.5t-176.5 -162t-251 -52.5q-116 0 -221 36t-175 100l58 83q146 -115 338 -115q166 0 273 95t107 272v134q-57 -93 -150.5 -145.5t-216.5 -52.5q-200 0 -333.5 135.5t-133.5 345.5q0 209 133.5 344.5
t333.5 135.5zM586 849q-158 0 -260.5 -107.5t-102.5 -265.5q0 -159 102 -266.5t261 -107.5q158 0 261 107t103 267t-103 266.5t-261 106.5z" />
    <glyph glyph-name="h" unicode="h" horiz-adv-x="1198" 
d="M296 1440v-662q53 89 142.5 133.5t192.5 44.5q178 0 287 -103t109 -276v-577h-114v542q0 143 -79.5 224.5t-222.5 81.5q-134 0 -224.5 -87.5t-90.5 -224.5v-536h-114v1440h114z" />
    <glyph glyph-name="i" unicode="i" horiz-adv-x="477" 
d="M296 941v-941h-114v941h114zM239 1362q34 0 58 -24t24 -59q0 -34 -23.5 -57.5t-58.5 -23.5t-58 23t-23 58t23.5 59t57.5 24z" />
    <glyph glyph-name="j" unicode="j" horiz-adv-x="480" 
d="M299 941v-1119q0 -113 -55.5 -173.5t-154.5 -60.5q-74 0 -130 33l28 98q43 -24 93 -24q105 0 105 132v1114h114zM241 1362q34 0 58 -24t24 -59q0 -34 -23.5 -57.5t-58.5 -23.5t-58 23t-23 58t23.5 59t57.5 24z" />
    <glyph glyph-name="k" unicode="k" horiz-adv-x="1042" 
d="M296 1440v-896h153l396 397h144l-448 -444l456 -497h-145l-403 441h-153v-441h-114v1440h114z" />
    <glyph glyph-name="l" unicode="l" horiz-adv-x="477" 
d="M296 1440v-1440h-114v1440h114z" />
    <glyph glyph-name="m" unicode="m" horiz-adv-x="1930" 
d="M1362 956q178 0 287.5 -103t109.5 -276v-577h-114v542q0 143 -80 224.5t-223 81.5q-134 0 -224.5 -87.5t-90.5 -224.5v-536h-114v542q0 143 -79.5 224.5t-222.5 81.5q-134 0 -224.5 -87.5t-90.5 -224.5v-536h-114v941h113v-165q53 90 143 135t193 45q132 0 228 -57.5
t138 -161.5q50 110 149 164.5t216 54.5z" />
    <glyph glyph-name="n" unicode="n" horiz-adv-x="1198" 
d="M631 956q178 0 287 -103t109 -276v-577h-114v542q0 143 -79.5 224.5t-222.5 81.5q-134 0 -224.5 -87.5t-90.5 -224.5v-536h-114v941h113v-165q53 90 143 135t193 45z" />
    <glyph glyph-name="o" unicode="o" horiz-adv-x="1192" 
d="M595 956q209 0 349.5 -139t140.5 -347t-140.5 -346.5t-349.5 -138.5t-348.5 138.5t-139.5 346.5t139.5 347t348.5 139zM595 849q-159 0 -265.5 -107.5t-106.5 -271.5q0 -163 106.5 -270.5t265.5 -107.5q160 0 266.5 107t106.5 271t-106.5 271.5t-266.5 107.5z" />
    <glyph glyph-name="p" unicode="p" horiz-adv-x="1245" 
d="M667 956q200 0 335.5 -138.5t135.5 -347.5t-135.5 -347t-335.5 -138q-124 0 -218.5 51.5t-152.5 142.5v-579h-114v1341h114v-179q59 90 153.5 142t217.5 52zM654 849q-158 0 -262 -108t-104 -271t104 -270.5t262 -107.5q161 0 264 108.5t103 269.5t-103.5 270t-263.5 109
z" />
    <glyph glyph-name="q" unicode="q" horiz-adv-x="1244" 
d="M577 956q124 0 219 -52.5t154 -143.5v181h113v-1341h-113v581q-59 -92 -154 -144t-219 -52q-199 0 -334.5 138t-135.5 347t135.5 347.5t334.5 138.5zM590 849q-160 0 -263.5 -108.5t-103.5 -270.5q0 -160 104 -269t263 -109t262.5 107.5t103.5 270.5t-103.5 271
t-262.5 108z" />
    <glyph glyph-name="r" unicode="r" horiz-adv-x="814" 
d="M584 957q103 0 176 -36l-29 -111q-70 38 -167 38q-119 0 -194 -87.5t-75 -229.5v-531h-113v941h112v-160q46 83 122 129.5t168 46.5z" />
    <glyph glyph-name="s" unicode="s" horiz-adv-x="974" 
d="M858 850l-49 -88q-54 38 -140.5 66t-178.5 28q-112 0 -181 -46t-69 -124q0 -65 52.5 -102t161.5 -50l120 -14q309 -36 309 -253q0 -132 -110.5 -207t-294.5 -75q-229 0 -387 120l53 85q136 -106 335 -106q132 0 209.5 45t77.5 131q0 132 -217 156l-121 13
q-155 18 -230 82.5t-75 168.5q0 128 100.5 202t265.5 74q108 0 205.5 -29t163.5 -77z" />
    <glyph glyph-name="t" unicode="t" horiz-adv-x="904" 
d="M819 941v-104h-434v-513q0 -116 56 -174t153 -58q120 0 210 72l54 -85q-112 -94 -273 -94q-150 0 -232 84.5t-82 252.5v515h-216v104h216v307h114v-307h434z" />
    <glyph glyph-name="u" unicode="u" horiz-adv-x="1186" 
d="M1015 941v-552q0 -192 -120 -298t-302 -106q-88 0 -164 26t-134 75.5t-91 127.5t-33 175v552h114v-542q0 -148 84 -227.5t224 -79.5q139 0 223.5 79.5t84.5 227.5v542h114z" />
    <glyph glyph-name="v" unicode="v" horiz-adv-x="1030" 
d="M996 941l-415 -943h-131l-416 943h124l358 -828l360 828h120z" />
    <glyph glyph-name="w" unicode="w" horiz-adv-x="1725" 
d="M927 941l310 -825l319 825h118l-369 -941h-134l-310 822l-308 -822h-133l-369 941h121l318 -824l309 824h128z" />
    <glyph glyph-name="x" unicode="x" horiz-adv-x="1006" 
d="M957 941l-379 -459l392 -482h-140l-331 398l-329 -398h-134l392 481l-379 460h140l316 -382l317 382h135z" />
    <glyph glyph-name="y" unicode="y" horiz-adv-x="1028" 
d="M1011 941l-779 -1344h-126l360 613l-442 731h128l379 -619l355 619h125z" />
    <glyph glyph-name="z" unicode="z" horiz-adv-x="1066" 
d="M931 941v-84l-652 -754h660v-103h-812v83l657 754h-637v104h784z" />
    <glyph glyph-name="braceleft" unicode="{" horiz-adv-x="839" 
d="M755 1294h-66q-107 0 -167.5 -64t-53.5 -191l8 -149q7 -129 -46 -210t-157 -111q104 -30 157 -111t46 -210l-8 -149q-7 -127 53.5 -191t167.5 -64h66v-106h-66q-168 0 -258 96.5t-80 276.5l8 150q7 128 -56 191.5t-177 63.5v106q114 0 177 63.5t56 191.5l-8 150
q-10 180 80 276.5t258 96.5h66v-106z" />
    <glyph glyph-name="bar" unicode="|" horiz-adv-x="701" 
d="M407 1400v-1665h-114v1665h114z" />
    <glyph glyph-name="braceright" unicode="}" horiz-adv-x="839" 
d="M84 -156h66q107 0 167.5 64t53.5 191l-8 149q-7 129 46 210t157 111q-104 30 -157 111t-46 210l8 149q7 127 -53.5 191t-167.5 64h-66v106h66q168 0 258 -96.5t80 -276.5l-8 -150q-7 -128 56 -191.5t177 -63.5v-106q-114 0 -177 -63.5t-56 -191.5l8 -150
q10 -180 -80 -276.5t-258 -96.5h-66v106z" />
    <glyph glyph-name="asciitilde" unicode="~" horiz-adv-x="1200" 
d="M973 620l63 -72q-53 -59 -113 -87t-141 -28q-61 0 -113 14t-83.5 31.5t-78.5 31.5t-98 14q-54 0 -96 -21.5t-88 -67.5l-63 72q53 59 113 87t141 28q61 0 113.5 -14t84 -31.5t78 -31.5t97.5 -14q54 0 96 21.5t88 67.5z" />
    <glyph glyph-name="uni00A0" unicode="&#xa0;" horiz-adv-x="530" 
 />
    <glyph glyph-name="exclamdown" unicode="&#xa1;" horiz-adv-x="520" 
d="M191 -459l18 965h103l18 -965h-139zM260 763q-38 0 -67 28.5t-29 66.5q0 39 29 68t67 29t67 -29t29 -68q0 -38 -29 -66.5t-67 -28.5z" />
    <glyph glyph-name="cent" unicode="&#xa2;" horiz-adv-x="1400" 
d="M692 1400h106v-216q201 -9 329 -145l-68 -74q-110 106 -261 116v-762q153 10 265 117l64 -75q-129 -137 -329 -146v-215h-106v220q-186 26 -301.5 159t-115.5 321q0 187 115.5 320t301.5 159v221zM387 700q0 -144 85 -246.5t220 -128.5v750q-135 -26 -220 -128.5
t-85 -246.5z" />
    <glyph glyph-name="sterling" unicode="&#xa3;" horiz-adv-x="1400" 
d="M1210 112v-112h-1020v112h187v536h-187v104h187v171q0 119 35.5 214t97.5 155t143.5 91.5t175.5 31.5q233 0 362 -173l-87 -75q-98 136 -275 136q-149 0 -242 -99t-93 -290v-162h545v-104h-545v-536h716z" />
    <glyph glyph-name="currency" unicode="&#xa4;" horiz-adv-x="1400" 
d="M226 1108l66 68l145 -145q115 93 265 93t264 -92l144 144l67 -68l-143 -144q93 -115 93 -264t-93 -266l144 -143l-68 -68l-144 144q-114 -92 -264 -92q-149 0 -266 93l-143 -145l-67 68l143 143q-92 116 -92 266t92 264zM702 369q138 0 234 96t96 235q0 138 -96 234
t-234 96t-234 -96t-96 -234q0 -139 96 -235t234 -96z" />
    <glyph glyph-name="yen" unicode="&#xa5;" horiz-adv-x="1400" 
d="M1172 433v-95h-409v-338h-118v338h-410v95h410v220h-410v95h358l-475 652h140l446 -616l441 616h138l-469 -652h358v-95h-409v-220h409z" />
    <glyph glyph-name="brokenbar" unicode="&#xa6;" horiz-adv-x="701" 
d="M407 1400v-694h-114v694h114zM407 429v-694h-114v694h114z" />
    <glyph glyph-name="section" unicode="&#xa7;" horiz-adv-x="1310" 
d="M1121 1272l-55 -93q-177 129 -395 129q-156 0 -254.5 -61.5t-99.5 -166.5q0 -177 318 -208l135 -13q109 -11 193.5 -44.5t140 -100.5t55.5 -159q0 -168 -166 -258q146 -81 146 -233q0 -114 -69 -194.5t-179 -117.5t-248 -37q-143 0 -273 44.5t-220 114.5l60 92
q80 -61 191.5 -103t241.5 -42q168 0 273.5 60t106.5 174q0 89 -87 139.5t-236 66.5l-143 15q-172 18 -274 95t-102 211q0 163 162 254q-142 81 -142 237q0 157 133.5 249.5t335.5 92.5q256 0 451 -143zM578 767q-70 8 -128 25q-72 -29 -112.5 -81.5t-40.5 -122.5
q0 -173 317 -206l137 -15q73 -8 135 -27q157 62 157 206q0 89 -87.5 141t-234.5 66z" />
    <glyph glyph-name="dieresis" unicode="&#xa8;" horiz-adv-x="914" 
d="M252 1310q34 0 58 -24t24 -59q0 -34 -23.5 -57.5t-58.5 -23.5q-34 0 -57.5 23t-23.5 58t23.5 59t57.5 24zM661 1310q35 0 59 -24t24 -59q0 -34 -24 -57.5t-59 -23.5t-58 23t-23 58t23.5 59t57.5 24z" />
    <glyph glyph-name="copyright" unicode="&#xa9;" horiz-adv-x="1898" 
d="M949 1500q162 0 310 -63t255 -169.5t170.5 -253.5t63.5 -308q0 -162 -63.5 -309t-170.5 -254t-255 -170t-310 -63t-310 63t-255 170t-170 254t-63 309q0 161 63 308t170 253.5t255 169.5t310 63zM949 1400q-141 0 -270 -55t-221.5 -147.5t-147.5 -221.5t-55 -270
q0 -142 55 -270.5t147.5 -221.5t221.5 -148t270 -55q142 0 270.5 55t221.5 148t148 221.5t55 270.5q0 141 -55 270t-148 221.5t-222 147.5t-270 55zM1310 957l-85 -58q-41 63 -108 98t-147 35q-133 0 -223.5 -91.5t-90.5 -234.5q0 -147 91 -236.5t224 -89.5q80 0 147 35
t109 97l80 -63q-55 -80 -142.5 -124.5t-193.5 -44.5q-181 0 -301.5 119.5t-120.5 306.5q0 186 120.5 306t301.5 120q106 0 196 -47t143 -128z" />
    <glyph glyph-name="ordfeminine" unicode="&#xaa;" horiz-adv-x="781" 
d="M372 1298q132 0 208 -67.5t76 -203.5v-393h-93v100q-100 -111 -247 -111q-106 0 -169 54.5t-63 142.5t71 139t200 51h206v8q0 196 -199 196q-114 0 -204 -75l-38 73q108 86 252 86zM337 701q131 0 225 110v132h-193q-93 0 -139.5 -33.5t-46.5 -87.5q0 -52 41.5 -86.5
t112.5 -34.5z" />
    <glyph glyph-name="guillemotleft" unicode="&#xab;" horiz-adv-x="998" 
d="M640 527l194 -364h-123l-193 364l193 364h123zM261 527l194 -364h-123l-193 364l193 364h123z" />
    <glyph glyph-name="logicalnot" unicode="&#xac;" horiz-adv-x="1200" 
d="M1026 578v-420h-106v317h-746v103h852z" />
    <glyph glyph-name="uni00AD" unicode="&#xad;" horiz-adv-x="835" 
d="M689 578v-103h-542v103h542z" />
    <glyph glyph-name="registered" unicode="&#xae;" horiz-adv-x="880" 
d="M442 1431q161 0 274.5 -112.5t113.5 -271.5q0 -158 -114 -270t-274 -112q-164 0 -278 112t-114 270q0 159 114 271.5t278 112.5zM442 734q129 0 220 91.5t91 221.5q0 131 -90.5 222.5t-220.5 91.5q-132 0 -223.5 -91.5t-91.5 -222.5q0 -130 91.5 -221.5t223.5 -91.5z
M303 1234h162q66 0 104 -30.5t38 -83.5q0 -46 -32 -75.5t-89 -34.5l123 -144h-75l-118 144h-50v-144h-63v368zM464 1179h-98v-118h98q37 0 58 15t21 44q0 28 -21 43.5t-58 15.5z" />
    <glyph glyph-name="macron" unicode="&#xaf;" horiz-adv-x="904" 
d="M160 1180v93h585v-93h-585z" />
    <glyph glyph-name="degree" unicode="&#xb0;" horiz-adv-x="768" 
d="M384 753q-138 0 -236 97t-98 235q0 136 98 233t236 97t236 -97t98 -233q0 -138 -98 -235t-236 -97zM384 846q97 0 166.5 70t69.5 169q0 98 -69.5 167.5t-166.5 69.5q-98 0 -167 -69.5t-69 -167.5q0 -100 69 -169.5t167 -69.5z" />
    <glyph glyph-name="plusminus" unicode="&#xb1;" horiz-adv-x="1200" 
d="M650 298h-105v325h-371v104h371v361h105v-361h376v-104h-376v-325zM1026 176v-104h-852v104h852z" />
    <glyph glyph-name="twosuperior" unicode="&#xb2;" horiz-adv-x="657" 
d="M128 1220l-62 59q90 129 246 129q115 0 181 -65.5t66 -168.5q0 -115 -110 -225l-224 -227h361v-88h-496v74l292 295q80 80 80 164q0 65 -42.5 107.5t-115.5 42.5q-106 0 -176 -97z" />
    <glyph glyph-name="threesuperior" unicode="&#xb3;" horiz-adv-x="658" 
d="M293 1408q115 0 188 -57.5t73 -149.5q0 -66 -35.5 -112.5t-97.5 -68.5q69 -21 109 -68t40 -113q0 -103 -79 -158.5t-192 -55.5q-155 0 -248 98l55 63q77 -75 189 -75q76 0 126.5 35t50.5 101q0 60 -52 95.5t-129 35.5h-103v84h103q72 0 118.5 35t46.5 97q0 57 -46.5 92.5
t-120.5 35.5q-109 0 -177 -84l-58 60q89 110 239 110z" />
    <glyph glyph-name="acute" unicode="&#xb4;" horiz-adv-x="904" 
d="M383 1082h-113l220 300h144z" />
    <glyph glyph-name="mu" unicode="&#xb5;" horiz-adv-x="1197" 
d="M284 -400h-113v1341h114v-542q0 -143 79.5 -224.5t222.5 -81.5q134 0 224.5 87.5t90.5 224.5v536h114v-941h-113v165q-53 -90 -143 -135t-193 -45q-180 0 -283 107v-492z" />
    <glyph glyph-name="paragraph" unicode="&#xb6;" horiz-adv-x="1117" 
d="M537 0v749h-2q-181 0 -283 86t-102 239q0 154 101.5 240t283.5 86h93v-1400h-91zM733 0v1400h91v-1400h-91z" />
    <glyph glyph-name="periodcentered" unicode="&#xb7;" horiz-adv-x="749" 
d="M375 623q38 0 66.5 -28.5t28.5 -67.5q0 -38 -28.5 -67t-66.5 -29t-67 29t-29 67q0 39 29 67.5t67 28.5z" />
    <glyph glyph-name="cedilla" unicode="&#xb8;" horiz-adv-x="973" 
d="M598 5l-103 -328h-119l108 329z" />
    <glyph glyph-name="onesuperior" unicode="&#xb9;" horiz-adv-x="541" 
d="M378 1407v-773h-95v641l-232 -95v94z" />
    <glyph glyph-name="ordmasculine" unicode="&#xba;" horiz-adv-x="849" 
d="M424 1298q146 0 243.5 -96t97.5 -241t-97.5 -241.5t-243.5 -96.5t-243 96.5t-97 241.5t97 241t243 96zM424 1210q-104 0 -173.5 -71t-69.5 -178q0 -108 69.5 -178.5t173.5 -70.5q105 0 175 70.5t70 178.5q0 107 -70 178t-175 71z" />
    <glyph glyph-name="guillemotright" unicode="&#xbb;" horiz-adv-x="998" 
d="M358 527l-194 364h123l193 -364l-193 -364h-123zM737 527l-194 364h123l193 -364l-193 -364h-123z" />
    <glyph glyph-name="onequarter" unicode="&#xbc;" horiz-adv-x="1582" 
d="M1271 1400l-883 -1400h-115l883 1400h115zM1413 461v-217h128v-87h-128v-157h-95v157h-365v69l274 538h104l-266 -520h253v217h95zM378 1407v-773h-95v641l-232 -95v94z" />
    <glyph glyph-name="onehalf" unicode="&#xbd;" horiz-adv-x="1640" 
d="M1271 1400l-883 -1400h-115l883 1400h115zM1111 586l-62 59q90 129 246 129q115 0 181 -65.5t66 -168.5q0 -115 -110 -225l-224 -227h361v-88h-496v74l292 295q80 80 80 164q0 65 -42.5 107.5t-115.5 42.5q-106 0 -176 -97zM378 1407v-773h-95v641l-232 -95v94z" />
    <glyph glyph-name="threequarters" unicode="&#xbe;" horiz-adv-x="1677" 
d="M1367 1400l-883 -1400h-115l883 1400h115zM1508 461v-217h128v-87h-128v-157h-95v157h-365v69l274 538h104l-266 -520h253v217h95zM293 1408q115 0 188 -57.5t73 -149.5q0 -66 -35.5 -112.5t-97.5 -68.5q69 -21 109 -68t40 -113q0 -103 -79 -158.5t-192 -55.5
q-155 0 -248 98l55 63q77 -75 189 -75q76 0 126.5 35t50.5 101q0 60 -52 95.5t-129 35.5h-103v84h103q72 0 118.5 35t46.5 97q0 57 -46.5 92.5t-120.5 35.5q-109 0 -177 -84l-58 60q89 110 239 110z" />
    <glyph glyph-name="questiondown" unicode="&#xbf;" horiz-adv-x="848" 
d="M524 506h104v-310h-49q-179 0 -281 -75.5t-102 -207.5q0 -124 103 -198t272 -74q42 0 124 7l10 -116q-65 -10 -140 -10q-224 0 -359.5 106t-135.5 281q0 168 117.5 272t328.5 122zM576 764q-38 0 -67 28.5t-29 67.5q0 38 29 67t67 29t67 -29t29 -67q0 -39 -29 -67.5
t-67 -28.5z" />
    <glyph glyph-name="Agrave" unicode="&#xc0;" horiz-adv-x="1406" 
d="M778 1400l588 -1400h-131l-170 409h-728l-170 -409h-127l588 1400h150zM701 1281l-315 -756h630zM713 1497l-251 300h144l220 -300h-113z" />
    <glyph glyph-name="Aacute" unicode="&#xc1;" horiz-adv-x="1406" 
d="M778 1400l588 -1400h-131l-170 409h-728l-170 -409h-127l588 1400h150zM701 1281l-315 -756h630zM685 1497h-113l220 300h144z" />
    <glyph glyph-name="Acircumflex" unicode="&#xc2;" horiz-adv-x="1406" 
d="M778 1400l588 -1400h-131l-170 409h-728l-170 -409h-127l588 1400h150zM701 1281l-315 -756h630zM1026 1503h-123l-200 205l-200 -205h-123l248 282h150z" />
    <glyph glyph-name="Atilde" unicode="&#xc3;" horiz-adv-x="1406" 
d="M778 1400l588 -1400h-131l-170 409h-728l-170 -409h-127l588 1400h150zM701 1281l-315 -756h630zM431 1567l-68 65q42 56 90.5 83t115.5 27q45 0 85 -13.5t63.5 -29.5t55.5 -29.5t63 -13.5q75 0 138 77l69 -65q-44 -57 -92.5 -84t-114.5 -27q-45 0 -84 13.5t-63 30
t-56 30t-64 13.5q-41 0 -72.5 -18.5t-65.5 -58.5z" />
    <glyph glyph-name="Adieresis" unicode="&#xc4;" horiz-adv-x="1406" 
d="M778 1400l588 -1400h-131l-170 409h-728l-170 -409h-127l588 1400h150zM701 1281l-315 -756h630zM498 1725q34 0 58 -24t24 -59q0 -34 -23.5 -57.5t-58.5 -23.5q-34 0 -57.5 23.5t-23.5 57.5q0 35 23.5 59t57.5 24zM907 1725q35 0 59 -24.5t24 -58.5t-24 -57.5t-59 -23.5
t-58 23.5t-23 57.5q0 35 23.5 59t57.5 24z" />
    <glyph glyph-name="Aring" unicode="&#xc5;" horiz-adv-x="1406" 
d="M778 1400l588 -1400h-131l-170 409h-728l-170 -409h-127l588 1400h150zM701 1281l-315 -756h630zM703 1481q-89 0 -152 62.5t-63 150.5t63 150.5t152 62.5t152 -62.5t63 -150.5t-63 -150.5t-152 -62.5zM703 1554q57 0 97.5 41t40.5 99t-40.5 98.5t-97.5 40.5t-97.5 -40.5
t-40.5 -98.5t40.5 -99t97.5 -41z" />
    <glyph glyph-name="AE" unicode="&#xc6;" horiz-adv-x="2265" 
d="M2097 115v-115h-964v390h-658l-296 -390h-147l1067 1400h991v-115h-835v-523h811v-114h-811v-533h842zM564 506h569v748z" />
    <glyph glyph-name="Ccedilla" unicode="&#xc7;" horiz-adv-x="1528" 
d="M843 1416q180 0 331.5 -77t234.5 -211l-102 -68q-73 111 -195.5 174.5t-268.5 63.5q-123 0 -232 -43.5t-188 -121t-124.5 -190t-45.5 -243.5t45.5 -243.5t124.5 -190t188 -121t232 -43.5q146 0 268 63t195 175l100 -73q-80 -120 -210.5 -193.5t-288.5 -86.5l-97 -310
h-124l102 309q-189 12 -339.5 105t-236.5 252.5t-86 356.5q0 155 55 288.5t150 227t227.5 147t284.5 53.5z" />
    <glyph glyph-name="Egrave" unicode="&#xc8;" horiz-adv-x="1341" 
d="M1173 115v-115h-964v1400h957v-115h-835v-523h811v-114h-811v-533h842zM691 1497l-251 300h144l220 -300h-113z" />
    <glyph glyph-name="Eacute" unicode="&#xc9;" horiz-adv-x="1341" 
d="M1173 115v-115h-964v1400h957v-115h-835v-523h811v-114h-811v-533h842zM663 1497h-113l220 300h144z" />
    <glyph glyph-name="Ecircumflex" unicode="&#xca;" horiz-adv-x="1341" 
d="M1173 115v-115h-964v1400h957v-115h-835v-523h811v-114h-811v-533h842zM1004 1503h-123l-200 205l-200 -205h-123l248 282h150z" />
    <glyph glyph-name="Edieresis" unicode="&#xcb;" horiz-adv-x="1341" 
d="M1173 115v-115h-964v1400h957v-115h-835v-523h811v-114h-811v-533h842zM476 1725q34 0 58 -24t24 -59q0 -34 -23.5 -57.5t-58.5 -23.5q-34 0 -57.5 23.5t-23.5 57.5q0 35 23.5 59t57.5 24zM885 1725q35 0 59 -24.5t24 -58.5t-24 -57.5t-59 -23.5t-58 23.5t-23 57.5
q0 35 23.5 59t57.5 24z" />
    <glyph glyph-name="Igrave" unicode="&#xcc;" horiz-adv-x="541" 
d="M331 1400v-1400h-122v1400h122zM280 1497l-251 300h144l220 -300h-113z" />
    <glyph glyph-name="Iacute" unicode="&#xcd;" horiz-adv-x="541" 
d="M331 1400v-1400h-122v1400h122zM252 1497h-113l220 300h144z" />
    <glyph glyph-name="Icircumflex" unicode="&#xce;" horiz-adv-x="541" 
d="M331 1400v-1400h-122v1400h122zM593 1503h-123l-200 205l-200 -205h-123l248 282h150z" />
    <glyph glyph-name="Idieresis" unicode="&#xcf;" horiz-adv-x="541" 
d="M331 1400v-1400h-122v1400h122zM65 1725q34 0 58 -24t24 -59q0 -34 -23.5 -57.5t-58.5 -23.5t-58 23.5t-23 57.5q0 35 23.5 59t57.5 24zM474 1725q34 0 58.5 -24.5t24.5 -58.5t-24 -57.5t-59 -23.5q-34 0 -57.5 23.5t-23.5 57.5q0 35 23.5 59t57.5 24z" />
    <glyph glyph-name="Eth" unicode="&#xd0;" horiz-adv-x="1775" 
d="M382 1400h511q349 0 553 -188.5t204 -511.5t-204 -511.5t-553 -188.5h-511v647h-257v116h257v637zM924 763v-116h-420v-531h389q301 0 465 157t164 427q0 271 -164 427.5t-465 156.5h-389v-521h420z" />
    <glyph glyph-name="Ntilde" unicode="&#xd1;" horiz-adv-x="1569" 
d="M1359 1400v-1400h-110l-917 1190l-1 -1190h-122v1400h110l918 -1190v1190h122zM512 1567l-68 65q42 56 90.5 83t115.5 27q45 0 85 -13.5t63.5 -29.5t55.5 -29.5t63 -13.5q75 0 138 77l69 -65q-44 -57 -92.5 -84t-114.5 -27q-45 0 -84 13.5t-63 30t-56 30t-64 13.5
q-41 0 -72.5 -18.5t-65.5 -58.5z" />
    <glyph glyph-name="Ograve" unicode="&#xd2;" horiz-adv-x="1685" 
d="M843 1416q152 0 284.5 -53.5t227.5 -147t150 -227t55 -288.5t-55 -288.5t-150 -227t-227.5 -147t-284.5 -53.5t-284.5 53.5t-227.5 147t-150 227t-55 288.5t55 288.5t150 227t227.5 147t284.5 53.5zM843 1298q-123 0 -232 -43.5t-188 -121t-124.5 -190t-45.5 -243.5
t45.5 -243.5t124.5 -190t188 -121t232 -43.5t231.5 43.5t187.5 121t124.5 190t45.5 243.5t-45.5 243.5t-124.5 190t-187.5 121t-231.5 43.5zM853 1497l-251 300h144l220 -300h-113z" />
    <glyph glyph-name="Oacute" unicode="&#xd3;" horiz-adv-x="1685" 
d="M843 1416q152 0 284.5 -53.5t227.5 -147t150 -227t55 -288.5t-55 -288.5t-150 -227t-227.5 -147t-284.5 -53.5t-284.5 53.5t-227.5 147t-150 227t-55 288.5t55 288.5t150 227t227.5 147t284.5 53.5zM843 1298q-123 0 -232 -43.5t-188 -121t-124.5 -190t-45.5 -243.5
t45.5 -243.5t124.5 -190t188 -121t232 -43.5t231.5 43.5t187.5 121t124.5 190t45.5 243.5t-45.5 243.5t-124.5 190t-187.5 121t-231.5 43.5zM825 1497h-113l220 300h144z" />
    <glyph glyph-name="Ocircumflex" unicode="&#xd4;" horiz-adv-x="1685" 
d="M843 1416q152 0 284.5 -53.5t227.5 -147t150 -227t55 -288.5t-55 -288.5t-150 -227t-227.5 -147t-284.5 -53.5t-284.5 53.5t-227.5 147t-150 227t-55 288.5t55 288.5t150 227t227.5 147t284.5 53.5zM843 1298q-123 0 -232 -43.5t-188 -121t-124.5 -190t-45.5 -243.5
t45.5 -243.5t124.5 -190t188 -121t232 -43.5t231.5 43.5t187.5 121t124.5 190t45.5 243.5t-45.5 243.5t-124.5 190t-187.5 121t-231.5 43.5zM1166 1503h-123l-200 205l-200 -205h-123l248 282h150z" />
    <glyph glyph-name="Otilde" unicode="&#xd5;" horiz-adv-x="1685" 
d="M843 1416q152 0 284.5 -53.5t227.5 -147t150 -227t55 -288.5t-55 -288.5t-150 -227t-227.5 -147t-284.5 -53.5t-284.5 53.5t-227.5 147t-150 227t-55 288.5t55 288.5t150 227t227.5 147t284.5 53.5zM843 1298q-123 0 -232 -43.5t-188 -121t-124.5 -190t-45.5 -243.5
t45.5 -243.5t124.5 -190t188 -121t232 -43.5t231.5 43.5t187.5 121t124.5 190t45.5 243.5t-45.5 243.5t-124.5 190t-187.5 121t-231.5 43.5zM571 1567l-68 65q42 56 90.5 83t115.5 27q45 0 85 -13.5t63.5 -29.5t55.5 -29.5t63 -13.5q75 0 138 77l69 -65q-44 -57 -92.5 -84
t-114.5 -27q-45 0 -84 13.5t-63 30t-56 30t-64 13.5q-41 0 -72.5 -18.5t-65.5 -58.5z" />
    <glyph glyph-name="Odieresis" unicode="&#xd6;" horiz-adv-x="1685" 
d="M843 1416q152 0 284.5 -53.5t227.5 -147t150 -227t55 -288.5t-55 -288.5t-150 -227t-227.5 -147t-284.5 -53.5t-284.5 53.5t-227.5 147t-150 227t-55 288.5t55 288.5t150 227t227.5 147t284.5 53.5zM843 1298q-123 0 -232 -43.5t-188 -121t-124.5 -190t-45.5 -243.5
t45.5 -243.5t124.5 -190t188 -121t232 -43.5t231.5 43.5t187.5 121t124.5 190t45.5 243.5t-45.5 243.5t-124.5 190t-187.5 121t-231.5 43.5zM638 1725q34 0 58 -24t24 -59q0 -34 -23.5 -57.5t-58.5 -23.5q-34 0 -57.5 23.5t-23.5 57.5q0 35 23.5 59t57.5 24zM1047 1725
q35 0 59 -24.5t24 -58.5t-24 -57.5t-59 -23.5t-58 23.5t-23 57.5q0 35 23.5 59t57.5 24z" />
    <glyph glyph-name="multiply" unicode="&#xd7;" horiz-adv-x="1200" 
d="M301 155l-74 74l296 296l-297 299l76 75l297 -298l301 301l73 -74l-300 -301l301 -301l-75 -75l-302 301z" />
    <glyph glyph-name="Oslash" unicode="&#xd8;" horiz-adv-x="1685" 
d="M843 1416q275 0 471 -164l163 163l81 -81l-163 -163q165 -194 165 -471q0 -155 -55 -288.5t-150 -227t-227.5 -147t-284.5 -53.5q-276 0 -472 164l-162 -162l-81 80l162 162q-164 196 -164 472q0 155 55 288.5t150 227t227.5 147t284.5 53.5zM843 1298q-123 0 -232 -43.5
t-188 -121t-124.5 -190t-45.5 -243.5q0 -226 126 -383l847 847q-161 134 -383 134zM1432 700q0 223 -126 382l-848 -847q161 -133 385 -133q123 0 231.5 43.5t187.5 121t124.5 190t45.5 243.5z" />
    <glyph glyph-name="Ugrave" unicode="&#xd9;" horiz-adv-x="1510" 
d="M1321 1400v-855q0 -137 -44 -245t-122 -176t-180 -103.5t-221 -35.5t-221 35.5t-179.5 103.5t-121.5 176t-44 245v855h122v-846q0 -113 33.5 -200.5t94 -141.5t140.5 -82t176 -28q199 0 321.5 115t122.5 337v846h123zM764 1497l-251 300h144l220 -300h-113z" />
    <glyph glyph-name="Uacute" unicode="&#xda;" horiz-adv-x="1510" 
d="M1321 1400v-855q0 -137 -44 -245t-122 -176t-180 -103.5t-221 -35.5t-221 35.5t-179.5 103.5t-121.5 176t-44 245v855h122v-846q0 -113 33.5 -200.5t94 -141.5t140.5 -82t176 -28q199 0 321.5 115t122.5 337v846h123zM736 1497h-113l220 300h144z" />
    <glyph glyph-name="Ucircumflex" unicode="&#xdb;" horiz-adv-x="1510" 
d="M1321 1400v-855q0 -137 -44 -245t-122 -176t-180 -103.5t-221 -35.5t-221 35.5t-179.5 103.5t-121.5 176t-44 245v855h122v-846q0 -113 33.5 -200.5t94 -141.5t140.5 -82t176 -28q199 0 321.5 115t122.5 337v846h123zM1077 1503h-123l-200 205l-200 -205h-123l248 282
h150z" />
    <glyph glyph-name="Udieresis" unicode="&#xdc;" horiz-adv-x="1510" 
d="M1321 1400v-855q0 -137 -44 -245t-122 -176t-180 -103.5t-221 -35.5t-221 35.5t-179.5 103.5t-121.5 176t-44 245v855h122v-846q0 -113 33.5 -200.5t94 -141.5t140.5 -82t176 -28q199 0 321.5 115t122.5 337v846h123zM549 1725q34 0 58 -24t24 -59q0 -34 -23.5 -57.5
t-58.5 -23.5t-58 23.5t-23 57.5q0 35 23.5 59t57.5 24zM958 1725q34 0 58.5 -24.5t24.5 -58.5t-24 -57.5t-59 -23.5q-34 0 -57.5 23.5t-23.5 57.5q0 35 23.5 59t57.5 24z" />
    <glyph glyph-name="Yacute" unicode="&#xdd;" horiz-adv-x="1263" 
d="M1251 1400l-558 -800v-600h-122v602l-559 798h146l475 -685l475 685h143zM615 1497h-113l220 300h144z" />
    <glyph glyph-name="Thorn" unicode="&#xde;" horiz-adv-x="1331" 
d="M331 1400v-270h398q232 0 363.5 -109.5t131.5 -305.5t-131.5 -305.5t-363.5 -109.5h-398v-300h-122v1400h122zM726 1015h-395v-599h395q178 0 274.5 76t96.5 223t-96.5 223.5t-274.5 76.5z" />
    <glyph glyph-name="germandbls" unicode="&#xdf;" horiz-adv-x="1216" 
d="M173 0v1020q0 194 118.5 314.5t330.5 120.5q191 0 319 -104.5t128 -272.5q0 -129 -65 -217.5t-169 -123.5q118 -30 196 -126t78 -226q0 -183 -118 -291.5t-292 -108.5q-139 0 -245 49l28 103q89 -46 200 -46q139 0 225 78t86 220q0 137 -95.5 213t-254.5 76h-71v103h48
q69 0 127 15.5t105 48t74 87.5t27 129q0 136 -94.5 211.5t-238.5 75.5q-152 0 -242.5 -90t-90.5 -246v-1012h-114z" />
    <glyph glyph-name="agrave" unicode="&#xe0;" horiz-adv-x="1244" 
d="M1063 941v-941h-113v181q-59 -92 -154 -144t-219 -52q-199 0 -334.5 138t-135.5 347t135.5 347.5t334.5 138.5q124 0 219 -52.5t154 -143.5v181h113zM590 849q-160 0 -263.5 -108.5t-103.5 -270.5q0 -160 104 -269t263 -109t262.5 107.5t103.5 270.5t-103.5 271
t-262.5 108zM599 1082l-251 300h144l220 -300h-113z" />
    <glyph glyph-name="aacute" unicode="&#xe1;" horiz-adv-x="1244" 
d="M1063 941v-941h-113v181q-59 -92 -154 -144t-219 -52q-199 0 -334.5 138t-135.5 347t135.5 347.5t334.5 138.5q124 0 219 -52.5t154 -143.5v181h113zM590 849q-160 0 -263.5 -108.5t-103.5 -270.5q0 -160 104 -269t263 -109t262.5 107.5t103.5 270.5t-103.5 271
t-262.5 108zM601 1082h-113l220 300h144z" />
    <glyph glyph-name="acircumflex" unicode="&#xe2;" horiz-adv-x="1244" 
d="M1063 941v-941h-113v181q-59 -92 -154 -144t-219 -52q-199 0 -334.5 138t-135.5 347t135.5 347.5t334.5 138.5q124 0 219 -52.5t154 -143.5v181h113zM590 849q-160 0 -263.5 -108.5t-103.5 -270.5q0 -160 104 -269t263 -109t262.5 107.5t103.5 270.5t-103.5 271
t-262.5 108zM929 1088h-123l-200 205l-200 -205h-123l248 282h150z" />
    <glyph glyph-name="atilde" unicode="&#xe3;" horiz-adv-x="1244" 
d="M1063 941v-941h-113v181q-59 -92 -154 -144t-219 -52q-199 0 -334.5 138t-135.5 347t135.5 347.5t334.5 138.5q124 0 219 -52.5t154 -143.5v181h113zM590 849q-160 0 -263.5 -108.5t-103.5 -270.5q0 -160 104 -269t263 -109t262.5 107.5t103.5 270.5t-103.5 271
t-262.5 108zM345 1152l-68 65q42 56 90.5 83t115.5 27q45 0 85 -13.5t63.5 -29.5t55.5 -29.5t63 -13.5q75 0 138 77l69 -65q-44 -57 -92.5 -84t-114.5 -27q-45 0 -84 13.5t-63 30t-56 30t-64 13.5q-41 0 -72.5 -18.5t-65.5 -58.5z" />
    <glyph glyph-name="adieresis" unicode="&#xe4;" horiz-adv-x="1244" 
d="M1063 941v-941h-113v181q-59 -92 -154 -144t-219 -52q-199 0 -334.5 138t-135.5 347t135.5 347.5t334.5 138.5q124 0 219 -52.5t154 -143.5v181h113zM590 849q-160 0 -263.5 -108.5t-103.5 -270.5q0 -160 104 -269t263 -109t262.5 107.5t103.5 270.5t-103.5 271
t-262.5 108zM401 1310q34 0 58 -24t24 -59q0 -34 -23.5 -57.5t-58.5 -23.5t-58 23t-23 58t23.5 59t57.5 24zM810 1310q34 0 58.5 -24t24.5 -59q0 -34 -24 -57.5t-59 -23.5q-34 0 -57.5 23t-23.5 58t23.5 59t57.5 24z" />
    <glyph glyph-name="aring" unicode="&#xe5;" horiz-adv-x="1244" 
d="M1063 941v-941h-113v181q-59 -92 -154 -144t-219 -52q-199 0 -334.5 138t-135.5 347t135.5 347.5t334.5 138.5q124 0 219 -52.5t154 -143.5v181h113zM590 849q-160 0 -263.5 -108.5t-103.5 -270.5q0 -160 104 -269t263 -109t262.5 107.5t103.5 270.5t-103.5 271
t-262.5 108zM606 1066q-89 0 -152 62.5t-63 150.5t63 150.5t152 62.5t152 -62.5t63 -150.5t-63 -150.5t-152 -62.5zM606 1139q57 0 97.5 41t40.5 99t-40.5 98.5t-97.5 40.5t-97.5 -40.5t-40.5 -98.5t40.5 -99t97.5 -41z" />
    <glyph glyph-name="ae" unicode="&#xe6;" horiz-adv-x="1819" 
d="M1272 956q189 0 313.5 -135t126.5 -346q0 -18 -2 -46h-788q12 -160 113.5 -252.5t249.5 -92.5q182 0 318 133l61 -77q-151 -155 -385 -155q-127 0 -229.5 52.5t-164.5 147.5q-70 -90 -177 -145t-238 -55q-166 0 -264.5 75t-98.5 198t101 196t289 73h309v29
q0 151 -78.5 224t-222.5 73q-158 0 -288 -100l-54 85q154 118 356 118q295 0 365 -231q55 106 159 168.5t229 62.5zM487 85q102 0 198 50.5t156 135.5q-29 75 -35 161h-297q-144 0 -212 -47t-68 -127q0 -76 68.5 -124.5t189.5 -48.5zM1270 854q-141 0 -234.5 -91
t-111.5 -236h672q-12 145 -103 236t-223 91z" />
    <glyph glyph-name="ccedilla" unicode="&#xe7;" horiz-adv-x="1023" 
d="M589 956q104 0 194 -38t153 -108l-74 -77q-116 116 -276 116q-155 0 -259 -107.5t-104 -271.5q0 -163 104 -270.5t259 -107.5q160 0 279 117l71 -78q-114 -126 -298 -143l-97 -311h-119l102 312q-186 22 -301.5 155.5t-115.5 325.5q0 209 135.5 347.5t346.5 138.5z" />
    <glyph glyph-name="egrave" unicode="&#xe8;" horiz-adv-x="1121" 
d="M573 956q189 0 314 -135t127 -345q0 -19 -2 -47h-789q12 -160 113.5 -252.5t250.5 -92.5q182 0 318 134l61 -78q-152 -155 -386 -155q-207 0 -340 135.5t-133 349.5q0 212 133 349t333 137zM571 855q-141 0 -235 -91.5t-111 -236.5h673q-13 146 -103.5 237t-223.5 91z
M564 1082l-251 300h144l220 -300h-113z" />
    <glyph glyph-name="eacute" unicode="&#xe9;" horiz-adv-x="1121" 
d="M573 956q189 0 314 -135t127 -345q0 -19 -2 -47h-789q12 -160 113.5 -252.5t250.5 -92.5q182 0 318 134l61 -78q-152 -155 -386 -155q-207 0 -340 135.5t-133 349.5q0 212 133 349t333 137zM571 855q-141 0 -235 -91.5t-111 -236.5h673q-13 146 -103.5 237t-223.5 91z
M566 1082h-113l220 300h144z" />
    <glyph glyph-name="ecircumflex" unicode="&#xea;" horiz-adv-x="1121" 
d="M573 956q189 0 314 -135t127 -345q0 -19 -2 -47h-789q12 -160 113.5 -252.5t250.5 -92.5q182 0 318 134l61 -78q-152 -155 -386 -155q-207 0 -340 135.5t-133 349.5q0 212 133 349t333 137zM571 855q-141 0 -235 -91.5t-111 -236.5h673q-13 146 -103.5 237t-223.5 91z
M894 1088h-123l-200 205l-200 -205h-123l248 282h150z" />
    <glyph glyph-name="edieresis" unicode="&#xeb;" horiz-adv-x="1121" 
d="M573 956q189 0 314 -135t127 -345q0 -19 -2 -47h-789q12 -160 113.5 -252.5t250.5 -92.5q182 0 318 134l61 -78q-152 -155 -386 -155q-207 0 -340 135.5t-133 349.5q0 212 133 349t333 137zM571 855q-141 0 -235 -91.5t-111 -236.5h673q-13 146 -103.5 237t-223.5 91z
M366 1310q34 0 58 -24t24 -59q0 -34 -23.5 -57.5t-58.5 -23.5q-34 0 -57.5 23t-23.5 58t23.5 59t57.5 24zM775 1310q35 0 59 -24t24 -59q0 -34 -24 -57.5t-59 -23.5t-58 23t-23 58t23.5 59t57.5 24z" />
    <glyph glyph-name="igrave" unicode="&#xec;" horiz-adv-x="477" 
d="M296 941v-941h-114v941h114zM232 1082l-251 300h144l220 -300h-113z" />
    <glyph glyph-name="iacute" unicode="&#xed;" horiz-adv-x="477" 
d="M296 941v-941h-114v941h114zM234 1082h-113l220 300h144z" />
    <glyph glyph-name="icircumflex" unicode="&#xee;" horiz-adv-x="477" 
d="M296 941v-941h-114v941h114zM562 1088h-123l-200 205l-200 -205h-123l248 282h150z" />
    <glyph glyph-name="idieresis" unicode="&#xef;" horiz-adv-x="477" 
d="M296 941v-941h-114v941h114zM34 1310q34 0 58 -24t24 -59q0 -34 -23.5 -57.5t-58.5 -23.5q-34 0 -57.5 23t-23.5 58t23.5 59t57.5 24zM443 1310q35 0 59 -24t24 -59q0 -34 -24 -57.5t-59 -23.5t-58 23t-23 58t23.5 59t57.5 24z" />
    <glyph glyph-name="eth" unicode="&#xf0;" horiz-adv-x="1189" 
d="M883 1425l43 -69l-222 -129q167 -147 272.5 -344t105.5 -406q0 -210 -140 -351t-347 -141q-208 0 -348 137t-140 341q0 205 134.5 342.5t332.5 137.5q102 0 188.5 -39.5t145.5 -111.5q-92 210 -301 378l-259 -150l-42 69l230 135q-110 76 -236 133l51 92
q153 -66 285 -167zM595 836q-159 0 -265.5 -105.5t-106.5 -267.5q0 -160 106.5 -265.5t265.5 -105.5q160 0 266.5 105t106.5 266q0 162 -106.5 267.5t-266.5 105.5z" />
    <glyph glyph-name="ntilde" unicode="&#xf1;" horiz-adv-x="1198" 
d="M631 956q178 0 287 -103t109 -276v-577h-114v542q0 143 -79.5 224.5t-222.5 81.5q-134 0 -224.5 -87.5t-90.5 -224.5v-536h-114v941h113v-165q53 90 143 135t193 45zM353 1152l-68 65q42 56 90.5 83t115.5 27q45 0 85 -13.5t63.5 -29.5t55.5 -29.5t63 -13.5q75 0 138 77
l69 -65q-44 -57 -92.5 -84t-114.5 -27q-45 0 -84 13.5t-63 30t-56 30t-64 13.5q-41 0 -72.5 -18.5t-65.5 -58.5z" />
    <glyph glyph-name="ograve" unicode="&#xf2;" horiz-adv-x="1192" 
d="M595 956q209 0 349.5 -139t140.5 -347t-140.5 -346.5t-349.5 -138.5t-348.5 138.5t-139.5 346.5t139.5 347t348.5 139zM595 849q-159 0 -265.5 -107.5t-106.5 -271.5q0 -163 106.5 -270.5t265.5 -107.5q160 0 266.5 107t106.5 271t-106.5 271.5t-266.5 107.5zM589 1082
l-251 300h144l220 -300h-113z" />
    <glyph glyph-name="oacute" unicode="&#xf3;" horiz-adv-x="1192" 
d="M595 956q209 0 349.5 -139t140.5 -347t-140.5 -346.5t-349.5 -138.5t-348.5 138.5t-139.5 346.5t139.5 347t348.5 139zM595 849q-159 0 -265.5 -107.5t-106.5 -271.5q0 -163 106.5 -270.5t265.5 -107.5q160 0 266.5 107t106.5 271t-106.5 271.5t-266.5 107.5zM591 1082
h-113l220 300h144z" />
    <glyph glyph-name="ocircumflex" unicode="&#xf4;" horiz-adv-x="1192" 
d="M595 956q209 0 349.5 -139t140.5 -347t-140.5 -346.5t-349.5 -138.5t-348.5 138.5t-139.5 346.5t139.5 347t348.5 139zM595 849q-159 0 -265.5 -107.5t-106.5 -271.5q0 -163 106.5 -270.5t265.5 -107.5q160 0 266.5 107t106.5 271t-106.5 271.5t-266.5 107.5zM919 1088
h-123l-200 205l-200 -205h-123l248 282h150z" />
    <glyph glyph-name="otilde" unicode="&#xf5;" horiz-adv-x="1192" 
d="M595 956q209 0 349.5 -139t140.5 -347t-140.5 -346.5t-349.5 -138.5t-348.5 138.5t-139.5 346.5t139.5 347t348.5 139zM595 849q-159 0 -265.5 -107.5t-106.5 -271.5q0 -163 106.5 -270.5t265.5 -107.5q160 0 266.5 107t106.5 271t-106.5 271.5t-266.5 107.5zM335 1152
l-68 65q42 56 90.5 83t115.5 27q45 0 85 -13.5t63.5 -29.5t55.5 -29.5t63 -13.5q75 0 138 77l69 -65q-44 -57 -92.5 -84t-114.5 -27q-45 0 -84 13.5t-63 30t-56 30t-64 13.5q-41 0 -72.5 -18.5t-65.5 -58.5z" />
    <glyph glyph-name="odieresis" unicode="&#xf6;" horiz-adv-x="1192" 
d="M595 956q209 0 349.5 -139t140.5 -347t-140.5 -346.5t-349.5 -138.5t-348.5 138.5t-139.5 346.5t139.5 347t348.5 139zM595 849q-159 0 -265.5 -107.5t-106.5 -271.5q0 -163 106.5 -270.5t265.5 -107.5q160 0 266.5 107t106.5 271t-106.5 271.5t-266.5 107.5zM391 1310
q34 0 58 -24t24 -59q0 -34 -23.5 -57.5t-58.5 -23.5t-58 23t-23 58t23.5 59t57.5 24zM800 1310q34 0 58.5 -24t24.5 -59q0 -34 -24 -57.5t-59 -23.5q-34 0 -57.5 23t-23.5 58t23.5 59t57.5 24z" />
    <glyph glyph-name="divide" unicode="&#xf7;" horiz-adv-x="1200" 
d="M1026 578v-103h-852v103h852zM601 918q32 0 56 -24t24 -56t-24 -56.5t-56 -24.5t-56.5 24.5t-24.5 56.5t24.5 56t56.5 24zM601 296q32 0 56 -23.5t24 -56.5q0 -32 -24 -56t-56 -24t-56.5 24t-24.5 56q0 33 24 56.5t57 23.5z" />
    <glyph glyph-name="oslash" unicode="&#xf8;" horiz-adv-x="1192" 
d="M595 956q177 0 312 -106l116 116l70 -68l-117 -117q109 -133 109 -311q0 -208 -140.5 -346.5t-349.5 -138.5q-180 0 -311 104l-115 -115l-70 68l116 116q-108 132 -108 312q0 208 139.5 347t348.5 139zM595 849q-159 0 -265.5 -107.5t-106.5 -271.5q0 -133 73 -231
l532 532q-100 78 -233 78zM968 470q0 130 -72 231l-532 -532q99 -77 231 -77q160 0 266.5 107t106.5 271z" />
    <glyph glyph-name="ugrave" unicode="&#xf9;" horiz-adv-x="1186" 
d="M1015 941v-552q0 -192 -120 -298t-302 -106q-88 0 -164 26t-134 75.5t-91 127.5t-33 175v552h114v-542q0 -148 84 -227.5t224 -79.5q139 0 223.5 79.5t84.5 227.5v542h114zM586 1082l-251 300h144l220 -300h-113z" />
    <glyph glyph-name="uacute" unicode="&#xfa;" horiz-adv-x="1186" 
d="M1015 941v-552q0 -192 -120 -298t-302 -106q-88 0 -164 26t-134 75.5t-91 127.5t-33 175v552h114v-542q0 -148 84 -227.5t224 -79.5q139 0 223.5 79.5t84.5 227.5v542h114zM588 1082h-113l220 300h144z" />
    <glyph glyph-name="ucircumflex" unicode="&#xfb;" horiz-adv-x="1186" 
d="M1015 941v-552q0 -192 -120 -298t-302 -106q-88 0 -164 26t-134 75.5t-91 127.5t-33 175v552h114v-542q0 -148 84 -227.5t224 -79.5q139 0 223.5 79.5t84.5 227.5v542h114zM916 1088h-123l-200 205l-200 -205h-123l248 282h150z" />
    <glyph glyph-name="udieresis" unicode="&#xfc;" horiz-adv-x="1186" 
d="M1015 941v-552q0 -192 -120 -298t-302 -106q-88 0 -164 26t-134 75.5t-91 127.5t-33 175v552h114v-542q0 -148 84 -227.5t224 -79.5q139 0 223.5 79.5t84.5 227.5v542h114zM388 1310q34 0 58 -24t24 -59q0 -34 -23.5 -57.5t-58.5 -23.5q-34 0 -57.5 23t-23.5 58t23.5 59
t57.5 24zM797 1310q35 0 59 -24t24 -59q0 -34 -24 -57.5t-59 -23.5t-58 23t-23 58t23.5 59t57.5 24z" />
    <glyph glyph-name="yacute" unicode="&#xfd;" horiz-adv-x="1028" 
d="M1011 941l-779 -1344h-126l360 613l-442 731h128l379 -619l355 619h125zM514 1082h-113l220 300h144z" />
    <glyph glyph-name="thorn" unicode="&#xfe;" horiz-adv-x="1245" 
d="M667 956q200 0 335.5 -138.5t135.5 -347.5t-135.5 -347t-335.5 -138q-124 0 -218.5 51.5t-152.5 142.5v-579h-114v1840h114v-678q59 90 153.5 142t217.5 52zM654 849q-158 0 -262 -108t-104 -271t104 -270.5t262 -107.5q160 0 263.5 108.5t103.5 269.5t-104 270t-263 109
z" />
    <glyph glyph-name="ydieresis" unicode="&#xff;" horiz-adv-x="1028" 
d="M1011 941l-779 -1344h-126l360 613l-442 731h128l379 -619l355 619h125zM314 1310q34 0 58 -24t24 -59q0 -34 -23.5 -57.5t-58.5 -23.5q-34 0 -57.5 23t-23.5 58t23.5 59t57.5 24zM723 1310q35 0 59 -24t24 -59q0 -34 -24 -57.5t-59 -23.5t-58 23t-23 58t23.5 59t57.5 24
z" />
    <glyph glyph-name="Amacron" unicode="&#x100;" horiz-adv-x="1406" 
d="M778 1400l588 -1400h-131l-170 409h-728l-170 -409h-127l588 1400h150zM701 1281l-315 -756h630zM411 1595v93h585v-93h-585z" />
    <glyph glyph-name="amacron" unicode="&#x101;" horiz-adv-x="1244" 
d="M1063 941v-941h-113v181q-59 -92 -154 -144t-219 -52q-199 0 -334.5 138t-135.5 347t135.5 347.5t334.5 138.5q124 0 219 -52.5t154 -143.5v181h113zM590 849q-160 0 -263.5 -108.5t-103.5 -270.5q0 -160 104 -269t263 -109t262.5 107.5t103.5 270.5t-103.5 271
t-262.5 108zM314 1180v93h585v-93h-585z" />
    <glyph glyph-name="Abreve" unicode="&#x102;" horiz-adv-x="1406" 
d="M778 1400l588 -1400h-131l-170 409h-728l-170 -409h-127l588 1400h150zM701 1281l-315 -756h630zM378 1771l92 28q56 -201 233 -201t233 201l93 -28q-36 -131 -120.5 -200.5t-205.5 -69.5t-205.5 69.5t-119.5 200.5z" />
    <glyph glyph-name="abreve" unicode="&#x103;" horiz-adv-x="1244" 
d="M1063 941v-941h-113v181q-59 -92 -154 -144t-219 -52q-199 0 -334.5 138t-135.5 347t135.5 347.5t334.5 138.5q124 0 219 -52.5t154 -143.5v181h113zM590 849q-160 0 -263.5 -108.5t-103.5 -270.5q0 -160 104 -269t263 -109t262.5 107.5t103.5 270.5t-103.5 271
t-262.5 108zM281 1356l92 28q28 -100 87.5 -150.5t145.5 -50.5t145.5 50.5t87.5 150.5l93 -28q-36 -131 -120.5 -200.5t-205.5 -69.5t-205.5 69.5t-119.5 200.5z" />
    <glyph glyph-name="Aogonek" unicode="&#x104;" horiz-adv-x="1406" 
d="M1311 -256l62 -74q-79 -82 -186 -82q-88 0 -144 45.5t-56 121.5q0 77 60 137.5t183 119.5l-165 397h-728l-170 -409h-127l588 1402h150l588 -1402h-33q-122 -57 -180 -110t-58 -113q0 -42 28 -66.5t74 -24.5q64 0 114 58zM701 1282l-315 -757h630z" />
    <glyph glyph-name="aogonek" unicode="&#x105;" horiz-adv-x="1244" 
d="M1041 -256l62 -74q-79 -82 -186 -82q-88 0 -144 45.5t-56 121.5t58 135t175 116v175q-59 -92 -154 -144t-219 -52q-199 0 -334.5 138t-135.5 347t135.5 347.5t334.5 138.5q124 0 219 -52.5t154 -143.5v181h113v-941q-122 -57 -180 -110t-58 -113q0 -42 28 -66.5t74 -24.5
q64 0 114 58zM590 849q-160 0 -263.5 -108.5t-103.5 -270.5q0 -160 104 -269t263 -109t262.5 107.5t103.5 270.5t-103.5 271t-262.5 108z" />
    <glyph glyph-name="Cacute" unicode="&#x106;" horiz-adv-x="1528" 
d="M843 1416q180 0 331.5 -77t234.5 -211l-102 -68q-73 111 -195.5 174.5t-268.5 63.5q-123 0 -232 -43.5t-188 -121t-124.5 -190t-45.5 -243.5t45.5 -243.5t124.5 -190t188 -121t232 -43.5q146 0 268 63t195 175l100 -73q-88 -132 -237 -207.5t-326 -75.5
q-152 0 -284.5 53.5t-227.5 147t-150 227t-55 288.5t55 288.5t150 227t227.5 147t284.5 53.5zM820 1497h-113l220 300h144z" />
    <glyph glyph-name="cacute" unicode="&#x107;" horiz-adv-x="1023" 
d="M589 956q104 0 194 -38t153 -108l-74 -77q-116 116 -276 116q-155 0 -259 -107.5t-104 -271.5q0 -163 104 -270.5t259 -107.5q160 0 279 117l71 -78q-132 -146 -347 -146q-211 0 -346.5 138t-135.5 347t135.5 347.5t346.5 138.5zM577 1082h-113l220 300h144z" />
    <glyph glyph-name="Ccircumflex" unicode="&#x108;" horiz-adv-x="1528" 
d="M843 1416q180 0 331.5 -77t234.5 -211l-102 -68q-73 111 -195.5 174.5t-268.5 63.5q-123 0 -232 -43.5t-188 -121t-124.5 -190t-45.5 -243.5t45.5 -243.5t124.5 -190t188 -121t232 -43.5q146 0 268 63t195 175l100 -73q-88 -132 -237 -207.5t-326 -75.5
q-152 0 -284.5 53.5t-227.5 147t-150 227t-55 288.5t55 288.5t150 227t227.5 147t284.5 53.5zM1161 1503h-123l-200 205l-200 -205h-123l248 282h150z" />
    <glyph glyph-name="ccircumflex" unicode="&#x109;" horiz-adv-x="1023" 
d="M589 956q104 0 194 -38t153 -108l-74 -77q-116 116 -276 116q-155 0 -259 -107.5t-104 -271.5q0 -163 104 -270.5t259 -107.5q160 0 279 117l71 -78q-132 -146 -347 -146q-211 0 -346.5 138t-135.5 347t135.5 347.5t346.5 138.5zM905 1088h-123l-200 205l-200 -205h-123
l248 282h150z" />
    <glyph glyph-name="Cdotaccent" unicode="&#x10a;" horiz-adv-x="1528" 
d="M843 1416q180 0 331.5 -77t234.5 -211l-102 -68q-73 111 -195.5 174.5t-268.5 63.5q-123 0 -232 -43.5t-188 -121t-124.5 -190t-45.5 -243.5t45.5 -243.5t124.5 -190t188 -121t232 -43.5q146 0 268 63t195 175l100 -73q-88 -132 -237 -207.5t-326 -75.5
q-152 0 -284.5 53.5t-227.5 147t-150 227t-55 288.5t55 288.5t150 227t227.5 147t284.5 53.5zM828 1730q35 0 59.5 -25t24.5 -60t-24.5 -59t-59.5 -24q-36 0 -60 24t-24 59q0 36 24 60.5t60 24.5z" />
    <glyph glyph-name="cdotaccent" unicode="&#x10b;" horiz-adv-x="1023" 
d="M589 956q104 0 194 -38t153 -108l-74 -77q-116 116 -276 116q-155 0 -259 -107.5t-104 -271.5q0 -163 104 -270.5t259 -107.5q160 0 279 117l71 -78q-132 -146 -347 -146q-211 0 -346.5 138t-135.5 347t135.5 347.5t346.5 138.5zM582 1362q34 0 58 -24t24 -59
q0 -34 -23.5 -57.5t-58.5 -23.5q-34 0 -57.5 23t-23.5 58t23.5 59t57.5 24z" />
    <glyph glyph-name="Ccaron" unicode="&#x10c;" horiz-adv-x="1528" 
d="M843 1416q180 0 331.5 -77t234.5 -211l-102 -68q-73 111 -195.5 174.5t-268.5 63.5q-123 0 -232 -43.5t-188 -121t-124.5 -190t-45.5 -243.5t45.5 -243.5t124.5 -190t188 -121t232 -43.5q146 0 268 63t195 175l100 -73q-88 -132 -237 -207.5t-326 -75.5
q-152 0 -284.5 53.5t-227.5 147t-150 227t-55 288.5t55 288.5t150 227t227.5 147t284.5 53.5zM515 1782h123l200 -204l200 204h123l-248 -281h-150z" />
    <glyph glyph-name="ccaron" unicode="&#x10d;" horiz-adv-x="1023" 
d="M589 956q104 0 194 -38t153 -108l-74 -77q-116 116 -276 116q-155 0 -259 -107.5t-104 -271.5q0 -163 104 -270.5t259 -107.5q160 0 279 117l71 -78q-132 -146 -347 -146q-211 0 -346.5 138t-135.5 347t135.5 347.5t346.5 138.5zM259 1367h123l200 -204l200 204h123
l-248 -281h-150z" />
    <glyph glyph-name="Dcaron" unicode="&#x10e;" horiz-adv-x="1602" 
d="M209 1400h511q349 0 553 -188.5t204 -511.5t-204 -511.5t-553 -188.5h-511v1400zM720 1284h-389v-1168h389q301 0 465 157t164 427q0 271 -164 427.5t-465 156.5zM413 1782h123l200 -204l200 204h123l-248 -281h-150z" />
    <glyph glyph-name="dcaron" unicode="&#x10f;" horiz-adv-x="1282" 
d="M577 956q124 0 219 -52.5t154 -143.5v680h113v-1440h-113v181q-59 -92 -154 -144t-219 -52q-199 0 -334.5 138t-135.5 347t135.5 347.5t334.5 138.5zM590 849q-160 0 -263.5 -108.5t-103.5 -270.5q0 -160 104 -269t263 -109t262.5 107.5t103.5 270.5t-103.5 271
t-262.5 108zM1282 1051h-96l11 389h117z" />
    <glyph glyph-name="Dcroat" unicode="&#x110;" horiz-adv-x="1775" 
d="M382 1400h511q349 0 553 -188.5t204 -511.5t-204 -511.5t-553 -188.5h-511v647h-257v116h257v637zM924 763v-116h-420v-531h389q301 0 465 157t164 427q0 271 -164 427.5t-465 156.5h-389v-521h420z" />
    <glyph glyph-name="dcroat" unicode="&#x111;" horiz-adv-x="1244" 
d="M1225 1228v-103h-162v-1125h-113v181q-59 -92 -154 -144t-219 -52q-199 0 -334.5 138t-135.5 347t135.5 347.5t334.5 138.5q124 0 219 -52.5t154 -143.5v365h-435v103h435v212h113v-212h162zM590 849q-160 0 -263.5 -108.5t-103.5 -270.5q0 -160 104 -269t263 -109
t262.5 107.5t103.5 270.5t-103.5 271t-262.5 108z" />
    <glyph glyph-name="Emacron" unicode="&#x112;" horiz-adv-x="1341" 
d="M1173 115v-115h-964v1400h957v-115h-835v-523h811v-114h-811v-533h842zM389 1595v93h585v-93h-585z" />
    <glyph glyph-name="emacron" unicode="&#x113;" horiz-adv-x="1121" 
d="M573 956q189 0 314 -135t127 -345q0 -19 -2 -47h-789q12 -160 113.5 -252.5t250.5 -92.5q182 0 318 134l61 -78q-152 -155 -386 -155q-207 0 -340 135.5t-133 349.5q0 212 133 349t333 137zM571 855q-141 0 -235 -91.5t-111 -236.5h673q-13 146 -103.5 237t-223.5 91z
M279 1180v93h585v-93h-585z" />
    <glyph glyph-name="Ebreve" unicode="&#x114;" horiz-adv-x="1341" 
d="M1173 115v-115h-964v1400h957v-115h-835v-523h811v-114h-811v-533h842zM356 1771l92 28q28 -100 87.5 -150.5t145.5 -50.5q177 0 233 201l93 -28q-36 -131 -120.5 -200.5t-205.5 -69.5t-205.5 69.5t-119.5 200.5z" />
    <glyph glyph-name="ebreve" unicode="&#x115;" horiz-adv-x="1121" 
d="M573 956q189 0 314 -135t127 -345q0 -19 -2 -47h-789q12 -160 113.5 -252.5t250.5 -92.5q182 0 318 134l61 -78q-152 -155 -386 -155q-207 0 -340 135.5t-133 349.5q0 212 133 349t333 137zM571 855q-141 0 -235 -91.5t-111 -236.5h673q-13 146 -103.5 237t-223.5 91z
M246 1356l92 28q56 -201 233 -201t233 201l93 -28q-36 -131 -120.5 -200.5t-205.5 -69.5t-205.5 69.5t-119.5 200.5z" />
    <glyph glyph-name="Edotaccent" unicode="&#x116;" horiz-adv-x="1341" 
d="M1173 115v-115h-964v1400h957v-115h-835v-523h811v-114h-811v-533h842zM671 1730q35 0 59.5 -25t24.5 -60t-24.5 -59t-59.5 -24q-36 0 -60 24t-24 59q0 36 24 60.5t60 24.5z" />
    <glyph glyph-name="edotaccent" unicode="&#x117;" horiz-adv-x="1121" 
d="M573 956q189 0 314 -135t127 -345q0 -19 -2 -47h-789q12 -160 113.5 -252.5t250.5 -92.5q182 0 318 134l61 -78q-152 -155 -386 -155q-207 0 -340 135.5t-133 349.5q0 212 133 349t333 137zM571 855q-141 0 -235 -91.5t-111 -236.5h673q-13 146 -103.5 237t-223.5 91z
M571 1362q34 0 58 -24t24 -59q0 -34 -23.5 -57.5t-58.5 -23.5t-58 23t-23 58t23.5 59t57.5 24z" />
    <glyph glyph-name="Eogonek" unicode="&#x118;" horiz-adv-x="1341" 
d="M1173 115v-115h-183q-80 -45 -119 -91.5t-39 -103.5q0 -53 38 -86t101 -33q88 0 154 63l61 -73q-90 -88 -222 -88q-108 0 -175.5 55.5t-67.5 141.5q0 69 38 120.5t115 94.5h-665v1400h957v-115h-835v-523h811v-114h-811v-533h842z" />
    <glyph glyph-name="eogonek" unicode="&#x119;" horiz-adv-x="1121" 
d="M894 -251l61 -73q-90 -88 -222 -88q-108 0 -175.5 55.5t-67.5 141.5q0 117 123 201q-11 -1 -33 -1q-207 0 -340 135.5t-133 349.5q0 212 133 349t333 137q189 0 314 -135t127 -345q0 -19 -2 -47h-789q12 -160 113.5 -252.5t250.5 -92.5q182 0 318 134l61 -78
q-71 -73 -164 -115q-201 -91 -201 -220q0 -53 38 -86t101 -33q88 0 154 63zM571 855q-141 0 -235 -91.5t-111 -236.5h673q-13 146 -103.5 237t-223.5 91z" />
    <glyph glyph-name="Ecaron" unicode="&#x11a;" horiz-adv-x="1341" 
d="M1173 115v-115h-964v1400h957v-115h-835v-523h811v-114h-811v-533h842zM358 1782h123l200 -204l200 204h123l-248 -281h-150z" />
    <glyph glyph-name="ecaron" unicode="&#x11b;" horiz-adv-x="1121" 
d="M573 956q189 0 314 -135t127 -345q0 -19 -2 -47h-789q12 -160 113.5 -252.5t250.5 -92.5q182 0 318 134l61 -78q-152 -155 -386 -155q-207 0 -340 135.5t-133 349.5q0 212 133 349t333 137zM571 855q-141 0 -235 -91.5t-111 -236.5h673q-13 146 -103.5 237t-223.5 91z
M248 1367h123l200 -204l200 204h123l-248 -281h-150z" />
    <glyph glyph-name="Gcircumflex" unicode="&#x11c;" horiz-adv-x="1637" 
d="M843 1416q163 0 304 -63t238 -176l-90 -87q-81 98 -198.5 153t-253.5 55q-123 0 -232 -43.5t-188 -121t-124.5 -190t-45.5 -243.5q0 -175 78 -312.5t211 -211.5t295 -74q239 0 383 140.5t158 381.5h-474v114h606q2 -13 2 -33q0 -205 -81 -368t-236 -257.5t-358 -94.5
q-140 0 -268.5 50t-227 140t-157 226.5t-58.5 298.5q0 207 94 371t257.5 254.5t365.5 90.5zM1146 1503h-123l-200 205l-200 -205h-123l248 282h150z" />
    <glyph glyph-name="gcircumflex" unicode="&#x11d;" horiz-adv-x="1236" 
d="M574 956q123 0 216.5 -53t150.5 -146v184h114v-877q0 -152 -66.5 -261.5t-176.5 -162t-251 -52.5q-116 0 -221 36t-175 100l58 83q146 -115 338 -115q166 0 273 95t107 272v134q-57 -93 -150.5 -145.5t-216.5 -52.5q-200 0 -333.5 135.5t-133.5 345.5q0 209 133.5 344.5
t333.5 135.5zM586 849q-158 0 -260.5 -107.5t-102.5 -265.5q0 -159 102 -266.5t261 -107.5q158 0 261 107t103 267t-103 266.5t-261 106.5zM923 1088h-123l-200 205l-200 -205h-123l248 282h150z" />
    <glyph glyph-name="Gbreve" unicode="&#x11e;" horiz-adv-x="1637" 
d="M843 1416q163 0 304 -63t238 -176l-90 -87q-81 98 -198.5 153t-253.5 55q-123 0 -232 -43.5t-188 -121t-124.5 -190t-45.5 -243.5q0 -175 78 -312.5t211 -211.5t295 -74q239 0 383 140.5t158 381.5h-474v114h606q2 -13 2 -33q0 -205 -81 -368t-236 -257.5t-358 -94.5
q-140 0 -268.5 50t-227 140t-157 226.5t-58.5 298.5q0 207 94 371t257.5 254.5t365.5 90.5zM498 1771l92 28q56 -201 233 -201t233 201l93 -28q-36 -131 -120.5 -200.5t-205.5 -69.5t-205.5 69.5t-119.5 200.5z" />
    <glyph glyph-name="gbreve" unicode="&#x11f;" horiz-adv-x="1236" 
d="M574 956q123 0 216.5 -53t150.5 -146v184h114v-877q0 -152 -66.5 -261.5t-176.5 -162t-251 -52.5q-116 0 -221 36t-175 100l58 83q146 -115 338 -115q166 0 273 95t107 272v134q-57 -93 -150.5 -145.5t-216.5 -52.5q-200 0 -333.5 135.5t-133.5 345.5q0 209 133.5 344.5
t333.5 135.5zM586 849q-158 0 -260.5 -107.5t-102.5 -265.5q0 -159 102 -266.5t261 -107.5q158 0 261 107t103 267t-103 266.5t-261 106.5zM275 1356l92 28q56 -201 233 -201q86 0 145.5 50.5t87.5 150.5l93 -28q-36 -131 -120.5 -200.5t-205.5 -69.5t-205.5 69.5
t-119.5 200.5z" />
    <glyph glyph-name="Gdotaccent" unicode="&#x120;" horiz-adv-x="1637" 
d="M843 1416q163 0 304 -63t238 -176l-90 -87q-81 98 -198.5 153t-253.5 55q-123 0 -232 -43.5t-188 -121t-124.5 -190t-45.5 -243.5q0 -175 78 -312.5t211 -211.5t295 -74q239 0 383 140.5t158 381.5h-474v114h606q2 -13 2 -33q0 -205 -81 -368t-236 -257.5t-358 -94.5
q-140 0 -268.5 50t-227 140t-157 226.5t-58.5 298.5q0 207 94 371t257.5 254.5t365.5 90.5zM813 1730q35 0 59.5 -25t24.5 -60t-24.5 -59t-59.5 -24q-36 0 -60 24t-24 59q0 36 24 60.5t60 24.5z" />
    <glyph glyph-name="gdotaccent" unicode="&#x121;" horiz-adv-x="1236" 
d="M574 956q123 0 216.5 -53t150.5 -146v184h114v-877q0 -152 -66.5 -261.5t-176.5 -162t-251 -52.5q-116 0 -221 36t-175 100l58 83q146 -115 338 -115q166 0 273 95t107 272v134q-57 -93 -150.5 -145.5t-216.5 -52.5q-200 0 -333.5 135.5t-133.5 345.5q0 209 133.5 344.5
t333.5 135.5zM586 849q-158 0 -260.5 -107.5t-102.5 -265.5q0 -159 102 -266.5t261 -107.5q158 0 261 107t103 267t-103 266.5t-261 106.5zM600 1362q34 0 58 -24t24 -59q0 -34 -23.5 -57.5t-58.5 -23.5q-34 0 -57.5 23t-23.5 58t23.5 59t57.5 24z" />
    <glyph glyph-name="Gcommaaccent" unicode="&#x122;" horiz-adv-x="1637" 
d="M843 1416q163 0 304 -63t238 -176l-90 -87q-81 98 -198.5 153t-253.5 55q-123 0 -232 -43.5t-188 -121t-124.5 -190t-45.5 -243.5q0 -175 78 -312.5t211 -211.5t295 -74q239 0 383 140.5t158 381.5h-474v114h606q2 -13 2 -33q0 -205 -81 -368t-236 -257.5t-358 -94.5
q-140 0 -268.5 50t-227 140t-157 226.5t-58.5 298.5q0 207 94 371t257.5 254.5t365.5 90.5zM779 -88h125l-68 -341h-101z" />
    <glyph glyph-name="gcommaaccent" unicode="&#x123;" horiz-adv-x="1236" 
d="M574 956q123 0 216.5 -53t150.5 -146v184h114v-877q0 -152 -66.5 -261.5t-176.5 -162t-251 -52.5q-116 0 -221 36t-175 100l58 83q146 -115 338 -115q166 0 273 95t107 272v134q-57 -93 -150.5 -145.5t-216.5 -52.5q-200 0 -333.5 135.5t-133.5 345.5q0 209 133.5 344.5
t333.5 135.5zM586 849q-158 0 -260.5 -107.5t-102.5 -265.5q0 -159 102 -266.5t261 -107.5q158 0 261 107t103 267t-103 266.5t-261 106.5zM653 1082h-125l68 340h101z" />
    <glyph glyph-name="Hcircumflex" unicode="&#x124;" horiz-adv-x="1565" 
d="M331 1400v-637h902v637h122v-1400h-122v647h-902v-647h-122v1400h122zM1105 1503h-123l-200 205l-200 -205h-123l248 282h150z" />
    <glyph glyph-name="hcircumflex" unicode="&#x125;" horiz-adv-x="1198" 
d="M296 1440v-662q53 89 142.5 133.5t192.5 44.5q178 0 287 -103t109 -276v-577h-114v542q0 143 -79.5 224.5t-222.5 81.5q-134 0 -224.5 -87.5t-90.5 -224.5v-536h-114v1440h114zM930 1547h-123l-200 205l-200 -205h-123l248 282h150z" />
    <glyph glyph-name="Hbar" unicode="&#x126;" horiz-adv-x="1621" 
d="M1558 1125v-103h-175v-1022h-122v647h-902v-647h-122v1022h-174v103h174v275h122v-275h902v275h122v-275h175zM359 763h902v259h-902v-259z" />
    <glyph glyph-name="hbar" unicode="&#x127;" horiz-adv-x="1198" 
d="M709 1228v-103h-413v-347q53 89 142.5 133.5t192.5 44.5q178 0 287 -103t109 -276v-577h-114v542q0 143 -79.5 224.5t-222.5 81.5q-134 0 -224.5 -87.5t-90.5 -224.5v-536h-114v1125h-183v103h183v212h114v-212h413z" />
    <glyph glyph-name="Itilde" unicode="&#x128;" horiz-adv-x="541" 
d="M331 1400v-1400h-122v1400h122zM-2 1567l-68 65q42 56 90.5 83t115.5 27q45 0 85 -13.5t63.5 -29.5t55.5 -29.5t63 -13.5q75 0 138 77l69 -65q-44 -57 -92.5 -84t-114.5 -27q-45 0 -84 13.5t-63 30t-56 30t-64 13.5q-41 0 -72.5 -18.5t-65.5 -58.5z" />
    <glyph glyph-name="itilde" unicode="&#x129;" horiz-adv-x="477" 
d="M296 941v-941h-114v941h114zM-22 1152l-68 65q42 56 90.5 83t115.5 27q45 0 85 -13.5t63.5 -29.5t55.5 -29.5t63 -13.5q75 0 138 77l69 -65q-44 -57 -92.5 -84t-114.5 -27q-45 0 -84 13.5t-63 30t-56 30t-64 13.5q-41 0 -72.5 -18.5t-65.5 -58.5z" />
    <glyph glyph-name="Imacron" unicode="&#x12a;" horiz-adv-x="541" 
d="M331 1400v-1400h-122v1400h122zM-22 1595v93h585v-93h-585z" />
    <glyph glyph-name="imacron" unicode="&#x12b;" horiz-adv-x="477" 
d="M296 941v-941h-114v941h114zM-53 1180v93h585v-93h-585z" />
    <glyph glyph-name="Ibreve" unicode="&#x12c;" horiz-adv-x="541" 
d="M331 1400v-1400h-122v1400h122zM-55 1771l92 28q28 -100 87.5 -150.5t145.5 -50.5t145.5 50.5t87.5 150.5l93 -28q-36 -131 -120.5 -200.5t-205.5 -69.5t-205.5 69.5t-119.5 200.5z" />
    <glyph glyph-name="ibreve" unicode="&#x12d;" horiz-adv-x="477" 
d="M296 941v-941h-114v941h114zM-86 1356l92 28q56 -201 233 -201t233 201l93 -28q-36 -131 -120.5 -200.5t-205.5 -69.5t-205.5 69.5t-119.5 200.5z" />
    <glyph glyph-name="Iogonek" unicode="&#x12e;" horiz-adv-x="541" 
d="M399 -256l61 -74q-78 -82 -185 -82q-88 0 -144 45.5t-56 121.5q0 121 163 245h-29v1400h122v-1400q-148 -127 -148 -223q0 -42 28 -66.5t74 -24.5q64 0 114 58z" />
    <glyph glyph-name="iogonek" unicode="&#x12f;" horiz-adv-x="477" 
d="M296 941v-941q-148 -127 -148 -223q0 -42 28 -66.5t74 -24.5q64 0 114 58l61 -74q-78 -82 -185 -82q-88 0 -144 45.5t-56 121.5q0 121 163 245h-21v941h114zM239 1362q34 0 58 -24t24 -59q0 -34 -23.5 -57.5t-58.5 -23.5t-58 23t-23 58t23.5 59t57.5 24z" />
    <glyph glyph-name="Idotaccent" unicode="&#x130;" horiz-adv-x="541" 
d="M331 1400v-1400h-122v1400h122zM260 1730q35 0 59.5 -25t24.5 -60t-24.5 -59t-59.5 -24q-36 0 -60 24t-24 59q0 36 24 60.5t60 24.5z" />
    <glyph glyph-name="dotlessi" unicode="&#x131;" horiz-adv-x="477" 
d="M296 941v-941h-114v941h114z" />
    <glyph glyph-name="IJ" unicode="&#x132;" horiz-adv-x="1692" 
d="M331 1400v-1400h-122v1400h122zM1493 1400v-898q0 -243 -135.5 -380t-349.5 -137q-259 0 -422 186l82 84q131 -153 339 -153q165 0 264.5 107t99.5 304v887h122z" />
    <glyph glyph-name="ij" unicode="&#x133;" horiz-adv-x="958" 
d="M776 941v-1119q0 -113 -55.5 -173.5t-154.5 -60.5q-74 0 -130 33l28 98q43 -24 93 -24q105 0 105 132v1114h114zM718 1362q34 0 58 -24t24 -59q0 -34 -23.5 -57.5t-58.5 -23.5q-34 0 -57.5 23t-23.5 58t23.5 59t57.5 24zM296 941v-941h-114v941h114zM239 1362
q34 0 58 -24t24 -59q0 -34 -23.5 -57.5t-58.5 -23.5t-58 23t-23 58t23.5 59t57.5 24z" />
    <glyph glyph-name="Jcircumflex" unicode="&#x134;" horiz-adv-x="1151" 
d="M952 1400v-898q0 -243 -135.5 -380t-349.5 -137q-259 0 -422 186l82 84q131 -153 339 -153q165 0 264.5 107t99.5 304v887h122zM1214 1503h-123l-200 205l-200 -205h-123l248 282h150z" />
    <glyph glyph-name="jcircumflex" unicode="&#x135;" horiz-adv-x="480" 
d="M299 941v-1119q0 -113 -55.5 -173.5t-154.5 -60.5q-74 0 -130 33l28 98q43 -24 93 -24q105 0 105 132v1114h114zM564 1088h-123l-200 205l-200 -205h-123l248 282h150z" />
    <glyph glyph-name="Kcommaaccent" unicode="&#x136;" horiz-adv-x="1367" 
d="M1167 0l-651 646h-185v-646h-122v1400h122v-638h187l615 638h158l-675 -689l717 -711h-166zM642 -88h125l-68 -341h-101z" />
    <glyph glyph-name="kcommaaccent" unicode="&#x137;" horiz-adv-x="1042" 
d="M296 1440v-896h153l396 397h144l-448 -444l456 -497h-145l-403 441h-153v-441h-114v1440h114zM506 -88h125l-68 -341h-101z" />
    <glyph glyph-name="kgreenlandic" unicode="&#x138;" horiz-adv-x="1027" 
d="M296 941v-397h147l388 397h143l-439 -444l447 -497h-144l-395 441h-147v-441h-114v941h114z" />
    <glyph glyph-name="Lacute" unicode="&#x139;" horiz-adv-x="1204" 
d="M1162 116v-116h-953v1400h122v-1284h831zM252 1497h-113l220 300h144z" />
    <glyph glyph-name="lacute" unicode="&#x13a;" horiz-adv-x="477" 
d="M296 1440v-1440h-114v1440h114zM189 1546h-113l220 300h144z" />
    <glyph glyph-name="Lcommaaccent" unicode="&#x13b;" horiz-adv-x="1204" 
d="M1162 116v-116h-953v1400h122v-1284h831zM634 -88h125l-68 -341h-101z" />
    <glyph glyph-name="lcommaaccent" unicode="&#x13c;" horiz-adv-x="477" 
d="M296 1440v-1440h-114v1440h114zM192 -88h125l-68 -341h-101z" />
    <glyph glyph-name="Lcaron" unicode="&#x13d;" horiz-adv-x="1204" 
d="M1162 116v-116h-953v1400h122v-1284h831zM690 1011h-96l11 389h117z" />
    <glyph glyph-name="lcaron" unicode="&#x13e;" horiz-adv-x="510" 
d="M296 1440v-1440h-114v1440h114zM505 1051h-96l11 389h117z" />
    <glyph glyph-name="Ldot" unicode="&#x13f;" horiz-adv-x="1204" 
d="M1162 116v-116h-953v1400h122v-1284h831zM846 789q35 0 59.5 -25t24.5 -60t-24.5 -59t-59.5 -24q-36 0 -60 24t-24 59q0 36 24 60.5t60 24.5z" />
    <glyph glyph-name="ldot" unicode="&#x140;" horiz-adv-x="567" 
d="M296 1440v-1440h-114v1440h114zM518 813q34 0 58 -24t24 -59q0 -34 -23.5 -57.5t-58.5 -23.5q-34 0 -57.5 23.5t-23.5 57.5q0 35 23.5 59t57.5 24z" />
    <glyph glyph-name="Lslash" unicode="&#x141;" horiz-adv-x="1348" 
d="M1306 116v-116h-953v530l-228 -128v130l228 128v740h122v-671l537 303v-130l-537 -303v-483h831z" />
    <glyph glyph-name="lslash" unicode="&#x142;" horiz-adv-x="657" 
d="M385 1440v-588l217 159v-119l-217 -159v-733h-114v650l-216 -158v119l216 158v671h114z" />
    <glyph glyph-name="Nacute" unicode="&#x143;" horiz-adv-x="1569" 
d="M1359 1400v-1400h-110l-917 1190l-1 -1190h-122v1400h110l918 -1190v1190h122zM766 1497h-113l220 300h144z" />
    <glyph glyph-name="nacute" unicode="&#x144;" horiz-adv-x="1198" 
d="M631 956q178 0 287 -103t109 -276v-577h-114v542q0 143 -79.5 224.5t-222.5 81.5q-134 0 -224.5 -87.5t-90.5 -224.5v-536h-114v941h113v-165q53 90 143 135t193 45zM609 1082h-113l220 300h144z" />
    <glyph glyph-name="Ncommaaccent" unicode="&#x145;" horiz-adv-x="1569" 
d="M1359 1400v-1400h-110l-917 1190l-1 -1190h-122v1400h110l918 -1190v1190h122zM740 -88h125l-68 -341h-101z" />
    <glyph glyph-name="ncommaaccent" unicode="&#x146;" horiz-adv-x="1198" 
d="M631 956q178 0 287 -103t109 -276v-577h-114v542q0 143 -79.5 224.5t-222.5 81.5q-134 0 -224.5 -87.5t-90.5 -224.5v-536h-114v941h113v-165q53 90 143 135t193 45zM556 -88h125l-68 -341h-101z" />
    <glyph glyph-name="Ncaron" unicode="&#x147;" horiz-adv-x="1569" 
d="M1359 1400v-1400h-110l-917 1190l-1 -1190h-122v1400h110l918 -1190v1190h122zM461 1782h123l200 -204l200 204h123l-248 -281h-150z" />
    <glyph glyph-name="ncaron" unicode="&#x148;" horiz-adv-x="1198" 
d="M631 956q178 0 287 -103t109 -276v-577h-114v542q0 143 -79.5 224.5t-222.5 81.5q-134 0 -224.5 -87.5t-90.5 -224.5v-536h-114v941h113v-165q53 90 143 135t193 45zM291 1367h123l200 -204l200 204h123l-248 -281h-150z" />
    <glyph glyph-name="napostrophe" unicode="&#x149;" horiz-adv-x="1477" 
d="M205 1440h133l-96 -483h-99zM910 956q178 0 287 -103t109 -276v-577h-114v542q0 143 -79.5 224.5t-222.5 81.5q-134 0 -224.5 -87.5t-90.5 -224.5v-536h-114v941h113v-165q53 90 142.5 135t193.5 45z" />
    <glyph glyph-name="Eng" unicode="&#x14a;" horiz-adv-x="1569" 
d="M1359 1400v-1439q0 -168 -81 -270.5t-249 -102.5q-142 0 -256 65l45 106q94 -54 198 -54q114 0 167.5 69.5t53.5 191.5v49l-905 1175l-1 -1190h-122v1400h110l918 -1190v1190h122z" />
    <glyph glyph-name="eng" unicode="&#x14b;" horiz-adv-x="1198" 
d="M631 956q178 0 287 -103t109 -276v-671q0 -112 -55 -173t-154 -61q-72 0 -131 33l29 98q44 -24 92 -24q105 0 105 133v630q0 143 -79.5 224.5t-222.5 81.5q-134 0 -224.5 -87.5t-90.5 -224.5v-536h-114v941h113v-165q53 90 143 135t193 45z" />
    <glyph glyph-name="Omacron" unicode="&#x14c;" horiz-adv-x="1685" 
d="M843 1416q152 0 284.5 -53.5t227.5 -147t150 -227t55 -288.5t-55 -288.5t-150 -227t-227.5 -147t-284.5 -53.5t-284.5 53.5t-227.5 147t-150 227t-55 288.5t55 288.5t150 227t227.5 147t284.5 53.5zM843 1298q-123 0 -232 -43.5t-188 -121t-124.5 -190t-45.5 -243.5
t45.5 -243.5t124.5 -190t188 -121t232 -43.5t231.5 43.5t187.5 121t124.5 190t45.5 243.5t-45.5 243.5t-124.5 190t-187.5 121t-231.5 43.5zM551 1595v93h585v-93h-585z" />
    <glyph glyph-name="omacron" unicode="&#x14d;" horiz-adv-x="1192" 
d="M595 956q209 0 349.5 -139t140.5 -347t-140.5 -346.5t-349.5 -138.5t-348.5 138.5t-139.5 346.5t139.5 347t348.5 139zM595 849q-159 0 -265.5 -107.5t-106.5 -271.5q0 -163 106.5 -270.5t265.5 -107.5q160 0 266.5 107t106.5 271t-106.5 271.5t-266.5 107.5zM304 1180
v93h585v-93h-585z" />
    <glyph glyph-name="Obreve" unicode="&#x14e;" horiz-adv-x="1685" 
d="M843 1416q152 0 284.5 -53.5t227.5 -147t150 -227t55 -288.5t-55 -288.5t-150 -227t-227.5 -147t-284.5 -53.5t-284.5 53.5t-227.5 147t-150 227t-55 288.5t55 288.5t150 227t227.5 147t284.5 53.5zM843 1298q-123 0 -232 -43.5t-188 -121t-124.5 -190t-45.5 -243.5
t45.5 -243.5t124.5 -190t188 -121t232 -43.5t231.5 43.5t187.5 121t124.5 190t45.5 243.5t-45.5 243.5t-124.5 190t-187.5 121t-231.5 43.5zM518 1771l92 28q56 -201 233 -201t233 201l93 -28q-36 -131 -120.5 -200.5t-205.5 -69.5t-205.5 69.5t-119.5 200.5z" />
    <glyph glyph-name="obreve" unicode="&#x14f;" horiz-adv-x="1192" 
d="M595 956q209 0 349.5 -139t140.5 -347t-140.5 -346.5t-349.5 -138.5t-348.5 138.5t-139.5 346.5t139.5 347t348.5 139zM595 849q-159 0 -265.5 -107.5t-106.5 -271.5q0 -163 106.5 -270.5t265.5 -107.5q160 0 266.5 107t106.5 271t-106.5 271.5t-266.5 107.5zM271 1356
l92 28q28 -100 87.5 -150.5t145.5 -50.5t145.5 50.5t87.5 150.5l93 -28q-36 -131 -120.5 -200.5t-205.5 -69.5t-205.5 69.5t-119.5 200.5z" />
    <glyph glyph-name="Ohungarumlaut" unicode="&#x150;" horiz-adv-x="1685" 
d="M843 1416q152 0 284.5 -53.5t227.5 -147t150 -227t55 -288.5t-55 -288.5t-150 -227t-227.5 -147t-284.5 -53.5t-284.5 53.5t-227.5 147t-150 227t-55 288.5t55 288.5t150 227t227.5 147t284.5 53.5zM843 1298q-123 0 -232 -43.5t-188 -121t-124.5 -190t-45.5 -243.5
t45.5 -243.5t124.5 -190t188 -121t232 -43.5t231.5 43.5t187.5 121t124.5 190t45.5 243.5t-45.5 243.5t-124.5 190t-187.5 121t-231.5 43.5zM1042 1497h-115l224 300h134zM701 1497h-117l213 300h130z" />
    <glyph glyph-name="ohungarumlaut" unicode="&#x151;" horiz-adv-x="1192" 
d="M595 956q209 0 349.5 -139t140.5 -347t-140.5 -346.5t-349.5 -138.5t-348.5 138.5t-139.5 346.5t139.5 347t348.5 139zM595 849q-159 0 -265.5 -107.5t-106.5 -271.5q0 -163 106.5 -270.5t265.5 -107.5q160 0 266.5 107t106.5 271t-106.5 271.5t-266.5 107.5zM808 1082
h-115l224 300h134zM467 1082h-117l213 300h130z" />
    <glyph glyph-name="OE" unicode="&#x152;" horiz-adv-x="2260" 
d="M2092 115v-115h-1209q-350 0 -553.5 188.5t-203.5 511.5t203.5 511.5t553.5 188.5h1202v-115h-835v-523h811v-114h-811v-533h842zM253 700q0 -271 164 -427.5t466 -156.5h245v1168h-245q-302 0 -466 -156.5t-164 -427.5z" />
    <glyph glyph-name="oe" unicode="&#x153;" horiz-adv-x="1982" 
d="M1434 956q189 0 313.5 -135t127.5 -345q0 -26 -3 -47h-788q12 -160 113.5 -252.5t250.5 -92.5q180 0 318 133l61 -77q-152 -155 -386 -155q-145 0 -255 68.5t-165 189.5q-59 -119 -172 -188.5t-254 -69.5q-209 0 -348.5 138.5t-139.5 346.5t139.5 347t348.5 139
q141 0 254 -71t172 -191q56 121 165.5 191.5t247.5 70.5zM595 849q-159 0 -265.5 -107.5t-106.5 -271.5q0 -163 106.5 -270.5t265.5 -107.5t266 107.5t107 270.5t-107 271t-266 108zM1432 855q-141 0 -235 -91.5t-111 -236.5h672q-12 146 -102.5 237t-223.5 91z" />
    <glyph glyph-name="Racute" unicode="&#x154;" horiz-adv-x="1341" 
d="M209 1400h534q232 0 357.5 -101.5t125.5 -287.5q0 -181 -129.5 -285.5t-352.5 -104.5h-55l530 -621h-152l-522 621h-214v-621h-122v1400zM742 1285h-411v-553h411q174 0 266 72t92 207q0 134 -92.5 204t-265.5 70zM643 1497h-113l220 300h144z" />
    <glyph glyph-name="racute" unicode="&#x155;" horiz-adv-x="814" 
d="M584 957q103 0 176 -36l-29 -111q-70 38 -167 38q-119 0 -194 -87.5t-75 -229.5v-531h-113v941h112v-160q46 83 122 129.5t168 46.5zM461 1082h-113l220 300h144z" />
    <glyph glyph-name="Rcommaaccent" unicode="&#x156;" horiz-adv-x="1341" 
d="M209 1400h534q232 0 357.5 -101.5t125.5 -287.5q0 -181 -129.5 -285.5t-352.5 -104.5h-55l530 -621h-152l-522 621h-214v-621h-122v1400zM742 1285h-411v-553h411q174 0 266 72t92 207q0 134 -92.5 204t-265.5 70zM620 -88h125l-68 -341h-101z" />
    <glyph glyph-name="rcommaaccent" unicode="&#x157;" horiz-adv-x="814" 
d="M584 957q103 0 176 -36l-29 -111q-70 38 -167 38q-119 0 -194 -87.5t-75 -229.5v-531h-113v941h112v-160q46 83 122 129.5t168 46.5zM193 -88h125l-68 -341h-101z" />
    <glyph glyph-name="Rcaron" unicode="&#x158;" horiz-adv-x="1341" 
d="M209 1400h534q232 0 357.5 -101.5t125.5 -287.5q0 -181 -129.5 -285.5t-352.5 -104.5h-55l530 -621h-152l-522 621h-214v-621h-122v1400zM742 1285h-411v-553h411q174 0 266 72t92 207q0 134 -92.5 204t-265.5 70zM338 1782h123l200 -204l200 204h123l-248 -281h-150z
" />
    <glyph glyph-name="rcaron" unicode="&#x159;" horiz-adv-x="814" 
d="M584 957q103 0 176 -36l-29 -111q-70 38 -167 38q-119 0 -194 -87.5t-75 -229.5v-531h-113v941h112v-160q46 83 122 129.5t168 46.5zM143 1367h123l200 -204l200 204h123l-248 -281h-150z" />
    <glyph glyph-name="Sacute" unicode="&#x15a;" horiz-adv-x="1343" 
d="M1183 1261l-63 -99q-194 137 -438 137q-172 0 -281 -75t-109 -204q0 -106 83 -168.5t259 -82.5l153 -17q430 -48 430 -359q0 -99 -43 -178t-119 -128.5t-174.5 -75.5t-213.5 -26q-152 0 -298.5 49t-243.5 126l67 97q81 -64 209.5 -110t264.5 -46q187 0 305.5 73
t118.5 209q0 112 -88 172t-267 80l-159 18q-197 22 -304 111.5t-107 247.5q0 125 70 218t186 139t262 46q283 0 500 -154zM685 1497h-113l220 300h144z" />
    <glyph glyph-name="sacute" unicode="&#x15b;" horiz-adv-x="974" 
d="M858 850l-49 -88q-54 38 -140.5 66t-178.5 28q-112 0 -181 -46t-69 -124q0 -65 52.5 -102t161.5 -50l120 -14q309 -36 309 -253q0 -132 -110.5 -207t-294.5 -75q-229 0 -387 120l53 85q136 -106 335 -106q132 0 209.5 45t77.5 131q0 132 -217 156l-121 13
q-155 18 -230 82.5t-75 168.5q0 128 100.5 202t265.5 74q108 0 205.5 -29t163.5 -77zM498 1082h-113l220 300h144z" />
    <glyph glyph-name="Scircumflex" unicode="&#x15c;" horiz-adv-x="1343" 
d="M1183 1261l-63 -99q-194 137 -438 137q-172 0 -281 -75t-109 -204q0 -106 83 -168.5t259 -82.5l153 -17q430 -48 430 -359q0 -99 -43 -178t-119 -128.5t-174.5 -75.5t-213.5 -26q-152 0 -298.5 49t-243.5 126l67 97q81 -64 209.5 -110t264.5 -46q187 0 305.5 73
t118.5 209q0 112 -88 172t-267 80l-159 18q-197 22 -304 111.5t-107 247.5q0 125 70 218t186 139t262 46q283 0 500 -154zM1026 1503h-123l-200 205l-200 -205h-123l248 282h150z" />
    <glyph glyph-name="scircumflex" unicode="&#x15d;" horiz-adv-x="974" 
d="M858 850l-49 -88q-54 38 -140.5 66t-178.5 28q-112 0 -181 -46t-69 -124q0 -65 52.5 -102t161.5 -50l120 -14q309 -36 309 -253q0 -132 -110.5 -207t-294.5 -75q-229 0 -387 120l53 85q136 -106 335 -106q132 0 209.5 45t77.5 131q0 132 -217 156l-121 13
q-155 18 -230 82.5t-75 168.5q0 128 100.5 202t265.5 74q108 0 205.5 -29t163.5 -77zM826 1088h-123l-200 205l-200 -205h-123l248 282h150z" />
    <glyph glyph-name="Scedilla" unicode="&#x15e;" horiz-adv-x="1343" 
d="M1183 1261l-63 -99q-194 137 -438 137q-172 0 -281 -75t-109 -204q0 -106 83 -168.5t259 -82.5l153 -17q430 -48 430 -359q0 -177 -128.5 -281t-334.5 -123l-98 -312h-124l102 309q-145 5 -281.5 53.5t-227.5 120.5l67 97q81 -64 209.5 -110t264.5 -46q187 0 305.5 73
t118.5 209q0 112 -88 172t-267 80l-159 18q-197 22 -304 111.5t-107 247.5q0 125 70 218t186 139t262 46q283 0 500 -154z" />
    <glyph glyph-name="scedilla" unicode="&#x15f;" horiz-adv-x="974" 
d="M858 850l-49 -88q-54 38 -140.5 66t-178.5 28q-112 0 -181 -46t-69 -124q0 -65 52.5 -102t161.5 -50l120 -14q309 -36 309 -253q0 -115 -85 -187t-231 -89l-98 -314h-119l101 309q-213 7 -360 119l53 85q136 -106 335 -106q132 0 209.5 45t77.5 131q0 132 -217 156
l-121 13q-155 18 -230 82.5t-75 168.5q0 128 100.5 202t265.5 74q108 0 205.5 -29t163.5 -77z" />
    <glyph glyph-name="Scaron" unicode="&#x160;" horiz-adv-x="1343" 
d="M1183 1261l-63 -99q-194 137 -438 137q-172 0 -281 -75t-109 -204q0 -106 83 -168.5t259 -82.5l153 -17q430 -48 430 -359q0 -99 -43 -178t-119 -128.5t-174.5 -75.5t-213.5 -26q-152 0 -298.5 49t-243.5 126l67 97q81 -64 209.5 -110t264.5 -46q187 0 305.5 73
t118.5 209q0 112 -88 172t-267 80l-159 18q-197 22 -304 111.5t-107 247.5q0 125 70 218t186 139t262 46q283 0 500 -154zM380 1782h123l200 -204l200 204h123l-248 -281h-150z" />
    <glyph glyph-name="scaron" unicode="&#x161;" horiz-adv-x="974" 
d="M858 850l-49 -88q-54 38 -140.5 66t-178.5 28q-112 0 -181 -46t-69 -124q0 -65 52.5 -102t161.5 -50l120 -14q309 -36 309 -253q0 -132 -110.5 -207t-294.5 -75q-229 0 -387 120l53 85q136 -106 335 -106q132 0 209.5 45t77.5 131q0 132 -217 156l-121 13
q-155 18 -230 82.5t-75 168.5q0 128 100.5 202t265.5 74q108 0 205.5 -29t163.5 -77zM180 1367h123l200 -204l200 204h123l-248 -281h-150z" />
    <glyph glyph-name="Tcommaaccent" unicode="&#x162;" horiz-adv-x="1215" 
d="M1173 1400v-116h-505v-1284h-3l-101 -323h-124l107 323h-1v1284h-504v116h1131z" />
    <glyph glyph-name="tcommaaccent" unicode="&#x163;" horiz-adv-x="904" 
d="M819 941v-104h-434v-513q0 -116 56 -174t153 -58q120 0 210 72l54 -85q-97 -82 -234 -92l-97 -310h-119l103 314q-116 19 -178 102t-62 229v515h-216v104h216v307h114v-307h434z" />
    <glyph glyph-name="Tcaron" unicode="&#x164;" horiz-adv-x="1215" 
d="M1173 1400v-116h-505v-1284h-122v1284h-504v116h1131zM284 1782h123l200 -204l200 204h123l-248 -281h-150z" />
    <glyph glyph-name="tcaron" unicode="&#x165;" horiz-adv-x="904" 
d="M819 941v-104h-434v-513q0 -116 56 -174t153 -58q120 0 210 72l54 -85q-112 -94 -273 -94q-150 0 -232 84.5t-82 252.5v515h-216v104h216v307h114v-307h434zM626 1051h-96l11 389h117z" />
    <glyph glyph-name="Tbar" unicode="&#x166;" horiz-adv-x="1215" 
d="M1007 763v-116h-339v-647h-122v647h-338v116h338v521h-504v116h1131v-116h-505v-521h339z" />
    <glyph glyph-name="tbar" unicode="&#x167;" horiz-adv-x="904" 
d="M819 941v-104h-434v-259h325v-103h-325v-151q0 -116 56 -174t153 -58q120 0 210 72l54 -85q-112 -94 -273 -94q-150 0 -232 84.5t-82 252.5v153h-207v103h207v259h-216v104h216v307h114v-307h434z" />
    <glyph glyph-name="Utilde" unicode="&#x168;" horiz-adv-x="1510" 
d="M1321 1400v-855q0 -137 -44 -245t-122 -176t-180 -103.5t-221 -35.5t-221 35.5t-179.5 103.5t-121.5 176t-44 245v855h122v-846q0 -113 33.5 -200.5t94 -141.5t140.5 -82t176 -28q199 0 321.5 115t122.5 337v846h123zM482 1567l-68 65q42 56 90.5 83t115.5 27
q45 0 85 -13.5t63.5 -29.5t55.5 -29.5t63 -13.5q75 0 138 77l69 -65q-44 -57 -92.5 -84t-114.5 -27q-45 0 -84 13.5t-63 30t-56 30t-64 13.5q-41 0 -72.5 -18.5t-65.5 -58.5z" />
    <glyph glyph-name="utilde" unicode="&#x169;" horiz-adv-x="1186" 
d="M1015 941v-552q0 -192 -120 -298t-302 -106q-88 0 -164 26t-134 75.5t-91 127.5t-33 175v552h114v-542q0 -148 84 -227.5t224 -79.5q139 0 223.5 79.5t84.5 227.5v542h114zM332 1152l-68 65q42 56 90.5 83t115.5 27q45 0 85 -13.5t63.5 -29.5t55.5 -29.5t63 -13.5
q75 0 138 77l69 -65q-44 -57 -92.5 -84t-114.5 -27q-45 0 -84 13.5t-63 30t-56 30t-64 13.5q-41 0 -72.5 -18.5t-65.5 -58.5z" />
    <glyph glyph-name="Umacron" unicode="&#x16a;" horiz-adv-x="1510" 
d="M1321 1400v-855q0 -137 -44 -245t-122 -176t-180 -103.5t-221 -35.5t-221 35.5t-179.5 103.5t-121.5 176t-44 245v855h122v-846q0 -113 33.5 -200.5t94 -141.5t140.5 -82t176 -28q199 0 321.5 115t122.5 337v846h123zM462 1595v93h585v-93h-585z" />
    <glyph glyph-name="umacron" unicode="&#x16b;" horiz-adv-x="1186" 
d="M1015 941v-552q0 -192 -120 -298t-302 -106q-88 0 -164 26t-134 75.5t-91 127.5t-33 175v552h114v-542q0 -148 84 -227.5t224 -79.5q139 0 223.5 79.5t84.5 227.5v542h114zM301 1180v93h585v-93h-585z" />
    <glyph glyph-name="Ubreve" unicode="&#x16c;" horiz-adv-x="1510" 
d="M1321 1400v-855q0 -137 -44 -245t-122 -176t-180 -103.5t-221 -35.5t-221 35.5t-179.5 103.5t-121.5 176t-44 245v855h122v-846q0 -113 33.5 -200.5t94 -141.5t140.5 -82t176 -28q199 0 321.5 115t122.5 337v846h123zM429 1771l92 28q28 -100 87.5 -150.5t145.5 -50.5
t145.5 50.5t87.5 150.5l93 -28q-36 -131 -120.5 -200.5t-205.5 -69.5t-205.5 69.5t-119.5 200.5z" />
    <glyph glyph-name="ubreve" unicode="&#x16d;" horiz-adv-x="1186" 
d="M1015 941v-552q0 -192 -120 -298t-302 -106q-88 0 -164 26t-134 75.5t-91 127.5t-33 175v552h114v-542q0 -148 84 -227.5t224 -79.5q139 0 223.5 79.5t84.5 227.5v542h114zM268 1356l92 28q28 -100 87.5 -150.5t145.5 -50.5q177 0 233 201l93 -28q-36 -131 -120.5 -200.5
t-205.5 -69.5t-205.5 69.5t-119.5 200.5z" />
    <glyph glyph-name="Uring" unicode="&#x16e;" horiz-adv-x="1510" 
d="M1321 1400v-855q0 -137 -44 -245t-122 -176t-180 -103.5t-221 -35.5t-221 35.5t-179.5 103.5t-121.5 176t-44 245v855h122v-846q0 -113 33.5 -200.5t94 -141.5t140.5 -82t176 -28q199 0 321.5 115t122.5 337v846h123zM754 1481q-89 0 -152 62.5t-63 150.5t63 150.5
t152 62.5t152 -62.5t63 -150.5t-63 -150.5t-152 -62.5zM754 1554q57 0 97.5 41t40.5 99t-40.5 98.5t-97.5 40.5t-97.5 -40.5t-40.5 -98.5t40.5 -99t97.5 -41z" />
    <glyph glyph-name="uring" unicode="&#x16f;" horiz-adv-x="1186" 
d="M1015 941v-552q0 -192 -120 -298t-302 -106q-88 0 -164 26t-134 75.5t-91 127.5t-33 175v552h114v-542q0 -148 84 -227.5t224 -79.5q139 0 223.5 79.5t84.5 227.5v542h114zM593 1066q-89 0 -152 62.5t-63 150.5t63 150.5t152 62.5t152 -62.5t63 -150.5t-63 -150.5
t-152 -62.5zM593 1139q57 0 97.5 41t40.5 99t-40.5 98.5t-97.5 40.5t-97.5 -40.5t-40.5 -98.5t40.5 -99t97.5 -41z" />
    <glyph glyph-name="Uhungarumlaut" unicode="&#x170;" horiz-adv-x="1510" 
d="M1321 1400v-855q0 -137 -44 -245t-122 -176t-180 -103.5t-221 -35.5t-221 35.5t-179.5 103.5t-121.5 176t-44 245v855h122v-846q0 -113 33.5 -200.5t94 -141.5t140.5 -82t176 -28q199 0 321.5 115t122.5 337v846h123zM953 1497h-115l224 300h134zM612 1497h-117l213 300
h130z" />
    <glyph glyph-name="uhungarumlaut" unicode="&#x171;" horiz-adv-x="1186" 
d="M1015 941v-552q0 -192 -120 -298t-302 -106q-88 0 -164 26t-134 75.5t-91 127.5t-33 175v552h114v-542q0 -148 84 -227.5t224 -79.5q139 0 223.5 79.5t84.5 227.5v542h114zM805 1082h-115l224 300h134zM464 1082h-117l213 300h130z" />
    <glyph glyph-name="Uogonek" unicode="&#x172;" horiz-adv-x="1510" 
d="M1117 -251l61 -73q-90 -88 -222 -88q-108 0 -175.5 55.5t-67.5 141.5q0 119 130 205q-48 -5 -89 -5q-119 0 -221 35.5t-179.5 103.5t-121.5 176t-44 245v855h122v-846q0 -113 33.5 -200.5t94 -141.5t140.5 -82t176 -28q199 0 321.5 115t122.5 337v846h123v-855
q0 -179 -72.5 -303.5t-200.5 -192.5q-113 -61 -168.5 -117t-55.5 -127q0 -53 38 -86t101 -33q88 0 154 63z" />
    <glyph glyph-name="uogonek" unicode="&#x173;" horiz-adv-x="1186" 
d="M911 -251l61 -73q-90 -88 -222 -88q-108 0 -175.5 55.5t-67.5 141.5q0 119 124 202q-24 -2 -38 -2q-88 0 -164 26t-134 75.5t-91 127.5t-33 175v552h114v-542q0 -148 84 -227.5t224 -79.5q139 0 223.5 79.5t84.5 227.5v542h114v-552q0 -118 -46 -203.5t-129 -134.5
q-116 -68 -169 -122t-53 -124q0 -53 38 -86t101 -33q88 0 154 63z" />
    <glyph glyph-name="Wcircumflex" unicode="&#x174;" horiz-adv-x="2208" 
d="M2144 1400l-472 -1400h-149l-419 1241l-419 -1241h-149l-472 1400h129l419 -1265l425 1265h137l424 -1263l420 1263h126zM1427 1503h-123l-200 205l-200 -205h-123l248 282h150z" />
    <glyph glyph-name="wcircumflex" unicode="&#x175;" horiz-adv-x="1725" 
d="M927 941l310 -825l319 825h118l-369 -941h-134l-310 822l-308 -822h-133l-369 941h121l318 -824l309 824h128zM1186 1088h-123l-200 205l-200 -205h-123l248 282h150z" />
    <glyph glyph-name="Ycircumflex" unicode="&#x176;" horiz-adv-x="1263" 
d="M1251 1400l-558 -800v-600h-122v602l-559 798h146l475 -685l475 685h143zM956 1503h-123l-200 205l-200 -205h-123l248 282h150z" />
    <glyph glyph-name="ycircumflex" unicode="&#x177;" horiz-adv-x="1028" 
d="M1011 941l-779 -1344h-126l360 613l-442 731h128l379 -619l355 619h125zM842 1088h-123l-200 205l-200 -205h-123l248 282h150z" />
    <glyph glyph-name="Ydieresis" unicode="&#x178;" horiz-adv-x="1263" 
d="M1251 1400l-558 -800v-600h-122v602l-559 798h146l475 -685l475 685h143zM428 1725q34 0 58 -24t24 -59q0 -34 -23.5 -57.5t-58.5 -23.5q-34 0 -57.5 23.5t-23.5 57.5q0 35 23.5 59t57.5 24zM837 1725q35 0 59 -24.5t24 -58.5t-24 -57.5t-59 -23.5t-58 23.5t-23 57.5
q0 35 23.5 59t57.5 24z" />
    <glyph glyph-name="Zacute" unicode="&#x179;" horiz-adv-x="1327" 
d="M1197 1400v-94l-910 -1190h914v-116h-1076v95l909 1189h-894v116h1057zM650 1497h-113l220 300h144z" />
    <glyph glyph-name="zacute" unicode="&#x17a;" horiz-adv-x="1066" 
d="M931 941v-84l-652 -754h660v-103h-812v83l657 754h-637v104h784zM534 1082h-113l220 300h144z" />
    <glyph glyph-name="Zdotaccent" unicode="&#x17b;" horiz-adv-x="1327" 
d="M1197 1400v-94l-910 -1190h914v-116h-1076v95l909 1189h-894v116h1057zM658 1730q35 0 59.5 -25t24.5 -60t-24.5 -59t-59.5 -24q-36 0 -60 24t-24 59q0 36 24 60.5t60 24.5z" />
    <glyph glyph-name="zdotaccent" unicode="&#x17c;" horiz-adv-x="1066" 
d="M931 941v-84l-652 -754h660v-103h-812v83l657 754h-637v104h784zM539 1362q34 0 58 -24t24 -59q0 -34 -23.5 -57.5t-58.5 -23.5t-58 23t-23 58t23.5 59t57.5 24z" />
    <glyph glyph-name="Zcaron" unicode="&#x17d;" horiz-adv-x="1327" 
d="M1197 1400v-94l-910 -1190h914v-116h-1076v95l909 1189h-894v116h1057zM345 1782h123l200 -204l200 204h123l-248 -281h-150z" />
    <glyph glyph-name="zcaron" unicode="&#x17e;" horiz-adv-x="1066" 
d="M931 941v-84l-652 -754h660v-103h-812v83l657 754h-637v104h784zM216 1367h123l200 -204l200 204h123l-248 -281h-150z" />
    <glyph glyph-name="longs" unicode="&#x17f;" horiz-adv-x="652" 
d="M484 1455q140 0 254 -70l-42 -95q-94 58 -205 58q-204 0 -204 -245v-1103h-114v1103q0 164 75 258t236 94z" />
    <glyph glyph-name="uni018F" unicode="&#x18f;" horiz-adv-x="1625" 
d="M795 1415q146 0 276.5 -53.5t224.5 -147t149 -227t55 -287.5t-53.5 -287.5t-146 -227t-219.5 -147t-270 -53.5q-197 0 -353.5 90t-244 251.5t-87.5 366.5q0 22 2 64h1243q-19 238 -182.5 389.5t-393.5 151.5q-285 0 -477 -226l-86 84q228 259 563 259zM812 102
q223 0 381.5 150.5t177.5 389.5h-1112q9 -237 164.5 -388.5t388.5 -151.5z" />
    <glyph glyph-name="florin" unicode="&#x192;" horiz-adv-x="1400" 
d="M1078 777v-104h-324l-36 -370q-15 -150 -83.5 -234t-196.5 -84q-123 0 -225 66l40 92q80 -55 177 -55q79 0 123 56.5t54 158.5l37 370h-276v104h286l32 320q15 150 83.5 234t196.5 84q122 0 224 -66l-40 -92q-80 55 -177 55q-79 0 -123 -56.5t-54 -158.5l-32 -320h314z
" />
    <glyph glyph-name="uni01B5" unicode="&#x1b5;" horiz-adv-x="1327" 
d="M1063 757v-113h-373l-403 -528h914v-116h-1076v95l422 553h-284v112h370l401 524h-894v116h1057v-94l-420 -549h286z" />
    <glyph glyph-name="uni01B6" unicode="&#x1b6;" horiz-adv-x="1066" 
d="M854 521v-88h-290l-285 -330h660v-103h-812v83l308 354h-213v88h289l273 312h-637v104h784v-84l-290 -336h213z" />
    <glyph glyph-name="uni01CD" unicode="&#x1cd;" horiz-adv-x="1406" 
d="M778 1400l588 -1400h-131l-170 409h-728l-170 -409h-127l588 1400h150zM701 1281l-315 -756h630zM380 1782h123l200 -204l200 204h123l-248 -281h-150z" />
    <glyph glyph-name="uni01CE" unicode="&#x1ce;" horiz-adv-x="1244" 
d="M1063 941v-941h-113v181q-59 -92 -154 -144t-219 -52q-199 0 -334.5 138t-135.5 347t135.5 347.5t334.5 138.5q124 0 219 -52.5t154 -143.5v181h113zM590 849q-160 0 -263.5 -108.5t-103.5 -270.5q0 -160 104 -269t263 -109t262.5 107.5t103.5 270.5t-103.5 271
t-262.5 108zM283 1367h123l200 -204l200 204h123l-248 -281h-150z" />
    <glyph glyph-name="uni01CF" unicode="&#x1cf;" horiz-adv-x="541" 
d="M331 1400v-1400h-122v1400h122zM-53 1782h123l200 -204l200 204h123l-248 -281h-150z" />
    <glyph glyph-name="uni01D0" unicode="&#x1d0;" horiz-adv-x="477" 
d="M296 941v-941h-114v941h114zM-84 1367h123l200 -204l200 204h123l-248 -281h-150z" />
    <glyph glyph-name="uni01D1" unicode="&#x1d1;" horiz-adv-x="1685" 
d="M843 1416q152 0 284.5 -53.5t227.5 -147t150 -227t55 -288.5t-55 -288.5t-150 -227t-227.5 -147t-284.5 -53.5t-284.5 53.5t-227.5 147t-150 227t-55 288.5t55 288.5t150 227t227.5 147t284.5 53.5zM843 1298q-123 0 -232 -43.5t-188 -121t-124.5 -190t-45.5 -243.5
t45.5 -243.5t124.5 -190t188 -121t232 -43.5t231.5 43.5t187.5 121t124.5 190t45.5 243.5t-45.5 243.5t-124.5 190t-187.5 121t-231.5 43.5zM520 1782h123l200 -204l200 204h123l-248 -281h-150z" />
    <glyph glyph-name="uni01D2" unicode="&#x1d2;" horiz-adv-x="1192" 
d="M595 956q209 0 349.5 -139t140.5 -347t-140.5 -346.5t-349.5 -138.5t-348.5 138.5t-139.5 346.5t139.5 347t348.5 139zM595 849q-159 0 -265.5 -107.5t-106.5 -271.5q0 -163 106.5 -270.5t265.5 -107.5q160 0 266.5 107t106.5 271t-106.5 271.5t-266.5 107.5zM273 1367
h123l200 -204l200 204h123l-248 -281h-150z" />
    <glyph glyph-name="uni01D3" unicode="&#x1d3;" horiz-adv-x="1510" 
d="M1321 1400v-855q0 -137 -44 -245t-122 -176t-180 -103.5t-221 -35.5t-221 35.5t-179.5 103.5t-121.5 176t-44 245v855h122v-846q0 -113 33.5 -200.5t94 -141.5t140.5 -82t176 -28q199 0 321.5 115t122.5 337v846h123zM431 1782h123l200 -204l200 204h123l-248 -281h-150z
" />
    <glyph glyph-name="uni01D4" unicode="&#x1d4;" horiz-adv-x="1186" 
d="M1015 941v-552q0 -192 -120 -298t-302 -106q-88 0 -164 26t-134 75.5t-91 127.5t-33 175v552h114v-542q0 -148 84 -227.5t224 -79.5q139 0 223.5 79.5t84.5 227.5v542h114zM270 1367h123l200 -204l200 204h123l-248 -281h-150z" />
    <glyph glyph-name="uni01D5" unicode="&#x1d5;" horiz-adv-x="1510" 
d="M1321 1400v-855q0 -137 -44 -245t-122 -176t-180 -103.5t-221 -35.5t-221 35.5t-179.5 103.5t-121.5 176t-44 245v855h122v-846q0 -113 33.5 -200.5t94 -141.5t140.5 -82t176 -28q199 0 321.5 115t122.5 337v846h123zM462 1927v93h585v-93h-585zM549 1725q34 0 58 -24
t24 -59q0 -34 -23.5 -57.5t-58.5 -23.5t-58 23.5t-23 57.5q0 35 23.5 59t57.5 24zM958 1725q34 0 58.5 -24.5t24.5 -58.5t-24 -57.5t-59 -23.5q-34 0 -57.5 23.5t-23.5 57.5q0 35 23.5 59t57.5 24z" />
    <glyph glyph-name="uni01D6" unicode="&#x1d6;" horiz-adv-x="1186" 
d="M1015 941v-552q0 -192 -120 -298t-302 -106q-88 0 -164 26t-134 75.5t-91 127.5t-33 175v552h114v-542q0 -148 84 -227.5t224 -79.5q139 0 223.5 79.5t84.5 227.5v542h114zM388 1310q34 0 58 -24t24 -59q0 -34 -23.5 -57.5t-58.5 -23.5q-34 0 -57.5 23t-23.5 58t23.5 59
t57.5 24zM797 1310q35 0 59 -24t24 -59q0 -34 -24 -57.5t-59 -23.5t-58 23t-23 58t23.5 59t57.5 24zM301 1505v93h585v-93h-585z" />
    <glyph glyph-name="uni01D7" unicode="&#x1d7;" horiz-adv-x="1510" 
d="M1321 1400v-855q0 -137 -44 -245t-122 -176t-180 -103.5t-221 -35.5t-221 35.5t-179.5 103.5t-121.5 176t-44 245v855h122v-846q0 -113 33.5 -200.5t94 -141.5t140.5 -82t176 -28q199 0 321.5 115t122.5 337v846h123zM736 1903h-113l220 300h144zM549 1725q34 0 58 -24
t24 -59q0 -34 -23.5 -57.5t-58.5 -23.5t-58 23.5t-23 57.5q0 35 23.5 59t57.5 24zM958 1725q34 0 58.5 -24.5t24.5 -58.5t-24 -57.5t-59 -23.5q-34 0 -57.5 23.5t-23.5 57.5q0 35 23.5 59t57.5 24z" />
    <glyph glyph-name="uni01D8" unicode="&#x1d8;" horiz-adv-x="1186" 
d="M1015 941v-552q0 -192 -120 -298t-302 -106q-88 0 -164 26t-134 75.5t-91 127.5t-33 175v552h114v-542q0 -148 84 -227.5t224 -79.5q139 0 223.5 79.5t84.5 227.5v542h114zM388 1310q34 0 58 -24t24 -59q0 -34 -23.5 -57.5t-58.5 -23.5q-34 0 -57.5 23t-23.5 58t23.5 59
t57.5 24zM797 1310q35 0 59 -24t24 -59q0 -34 -24 -57.5t-59 -23.5t-58 23t-23 58t23.5 59t57.5 24zM575 1481h-113l220 300h144z" />
    <glyph glyph-name="uni01D9" unicode="&#x1d9;" horiz-adv-x="1510" 
d="M1321 1400v-855q0 -137 -44 -245t-122 -176t-180 -103.5t-221 -35.5t-221 35.5t-179.5 103.5t-121.5 176t-44 245v855h122v-846q0 -113 33.5 -200.5t94 -141.5t140.5 -82t176 -28q199 0 321.5 115t122.5 337v846h123zM431 2188h123l200 -204l200 204h123l-248 -281h-150z
M549 1725q34 0 58 -24t24 -59q0 -34 -23.5 -57.5t-58.5 -23.5t-58 23.5t-23 57.5q0 35 23.5 59t57.5 24zM958 1725q34 0 58.5 -24.5t24.5 -58.5t-24 -57.5t-59 -23.5q-34 0 -57.5 23.5t-23.5 57.5q0 35 23.5 59t57.5 24z" />
    <glyph glyph-name="uni01DA" unicode="&#x1da;" horiz-adv-x="1186" 
d="M1015 941v-552q0 -192 -120 -298t-302 -106q-88 0 -164 26t-134 75.5t-91 127.5t-33 175v552h114v-542q0 -148 84 -227.5t224 -79.5q139 0 223.5 79.5t84.5 227.5v542h114zM388 1310q34 0 58 -24t24 -59q0 -34 -23.5 -57.5t-58.5 -23.5q-34 0 -57.5 23t-23.5 58t23.5 59
t57.5 24zM797 1310q35 0 59 -24t24 -59q0 -34 -24 -57.5t-59 -23.5t-58 23t-23 58t23.5 59t57.5 24zM270 1766h123l200 -204l200 204h123l-248 -281h-150z" />
    <glyph glyph-name="uni01DB" unicode="&#x1db;" horiz-adv-x="1510" 
d="M1321 1400v-855q0 -137 -44 -245t-122 -176t-180 -103.5t-221 -35.5t-221 35.5t-179.5 103.5t-121.5 176t-44 245v855h122v-846q0 -113 33.5 -200.5t94 -141.5t140.5 -82t176 -28q199 0 321.5 115t122.5 337v846h123zM764 1903l-251 300h144l220 -300h-113zM549 1725
q34 0 58 -24t24 -59q0 -34 -23.5 -57.5t-58.5 -23.5t-58 23.5t-23 57.5q0 35 23.5 59t57.5 24zM958 1725q34 0 58.5 -24.5t24.5 -58.5t-24 -57.5t-59 -23.5q-34 0 -57.5 23.5t-23.5 57.5q0 35 23.5 59t57.5 24z" />
    <glyph glyph-name="uni01DC" unicode="&#x1dc;" horiz-adv-x="1186" 
d="M1015 941v-552q0 -192 -120 -298t-302 -106q-88 0 -164 26t-134 75.5t-91 127.5t-33 175v552h114v-542q0 -148 84 -227.5t224 -79.5q139 0 223.5 79.5t84.5 227.5v542h114zM388 1310q34 0 58 -24t24 -59q0 -34 -23.5 -57.5t-58.5 -23.5q-34 0 -57.5 23t-23.5 58t23.5 59
t57.5 24zM797 1310q35 0 59 -24t24 -59q0 -34 -24 -57.5t-59 -23.5t-58 23t-23 58t23.5 59t57.5 24zM603 1481l-251 300h144l220 -300h-113z" />
    <glyph glyph-name="uni01E2" unicode="&#x1e2;" horiz-adv-x="2265" 
d="M2097 115v-115h-964v390h-658l-296 -390h-147l1067 1400h991v-115h-835v-523h811v-114h-811v-533h842zM564 506h569v748zM1223 1595v93h585v-93h-585z" />
    <glyph glyph-name="uni01E3" unicode="&#x1e3;" horiz-adv-x="1819" 
d="M1272 956q189 0 313.5 -135t126.5 -346q0 -18 -2 -46h-788q12 -160 113.5 -252.5t249.5 -92.5q182 0 318 133l61 -77q-151 -155 -385 -155q-127 0 -229.5 52.5t-164.5 147.5q-70 -90 -177 -145t-238 -55q-166 0 -264.5 75t-98.5 198t101 196t289 73h309v29
q0 151 -78.5 224t-222.5 73q-158 0 -288 -100l-54 85q154 118 356 118q295 0 365 -231q55 106 159 168.5t229 62.5zM487 85q102 0 198 50.5t156 135.5q-29 75 -35 161h-297q-144 0 -212 -47t-68 -127q0 -76 68.5 -124.5t189.5 -48.5zM1270 854q-141 0 -234.5 -91
t-111.5 -236h672q-12 145 -103 236t-223 91zM608 1180v93h585v-93h-585z" />
    <glyph glyph-name="Gcaron" unicode="&#x1e6;" horiz-adv-x="1637" 
d="M843 1416q163 0 304 -63t238 -176l-90 -87q-81 98 -198.5 153t-253.5 55q-123 0 -232 -43.5t-188 -121t-124.5 -190t-45.5 -243.5q0 -175 78 -312.5t211 -211.5t295 -74q239 0 383 140.5t158 381.5h-474v114h606q2 -13 2 -33q0 -205 -81 -368t-236 -257.5t-358 -94.5
q-140 0 -268.5 50t-227 140t-157 226.5t-58.5 298.5q0 207 94 371t257.5 254.5t365.5 90.5zM500 1782h123l200 -204l200 204h123l-248 -281h-150z" />
    <glyph glyph-name="gcaron" unicode="&#x1e7;" horiz-adv-x="1236" 
d="M574 956q123 0 216.5 -53t150.5 -146v184h114v-877q0 -152 -66.5 -261.5t-176.5 -162t-251 -52.5q-116 0 -221 36t-175 100l58 83q146 -115 338 -115q166 0 273 95t107 272v134q-57 -93 -150.5 -145.5t-216.5 -52.5q-200 0 -333.5 135.5t-133.5 345.5q0 209 133.5 344.5
t333.5 135.5zM586 849q-158 0 -260.5 -107.5t-102.5 -265.5q0 -159 102 -266.5t261 -107.5q158 0 261 107t103 267t-103 266.5t-261 106.5zM277 1367h123l200 -204l200 204h123l-248 -281h-150z" />
    <glyph glyph-name="Aringacute" unicode="&#x1fa;" horiz-adv-x="1406" 
d="M167 0h-127l569 1356q-55 26 -89 78t-34 115q0 88 63 150.5t152 62.5t152 -62.5t63 -150.5q0 -62 -33 -113t-87 -78l570 -1358h-131l-170 409h-728zM701 1282l-315 -757h630zM701 1409q57 0 97.5 41t40.5 99t-40.5 98.5t-97.5 40.5t-97.5 -40.5t-40.5 -98.5t40.5 -99
t97.5 -41zM683 1817h-113l220 300h144z" />
    <glyph glyph-name="aringacute" unicode="&#x1fb;" horiz-adv-x="1244" 
d="M1063 941v-941h-113v181q-59 -92 -154 -144t-219 -52q-199 0 -334.5 138t-135.5 347t135.5 347.5t334.5 138.5q124 0 219 -52.5t154 -143.5v181h113zM590 849q-160 0 -263.5 -108.5t-103.5 -270.5q0 -160 104 -269t263 -109t262.5 107.5t103.5 270.5t-103.5 271
t-262.5 108zM584 1036q-89 0 -152 62.5t-63 150.5t63 150.5t152 62.5t152 -62.5t63 -150.5t-63 -150.5t-152 -62.5zM584 1109q57 0 97.5 41t40.5 99t-40.5 98.5t-97.5 40.5t-97.5 -40.5t-40.5 -98.5t40.5 -99t97.5 -41zM566 1521h-113l220 300h144z" />
    <glyph glyph-name="AEacute" unicode="&#x1fc;" horiz-adv-x="2265" 
d="M2097 115v-115h-964v390h-658l-296 -390h-147l1067 1400h991v-115h-835v-523h811v-114h-811v-533h842zM564 506h569v748zM1497 1497h-113l220 300h144z" />
    <glyph glyph-name="aeacute" unicode="&#x1fd;" horiz-adv-x="1819" 
d="M1272 956q189 0 313.5 -135t126.5 -346q0 -18 -2 -46h-788q12 -160 113.5 -252.5t249.5 -92.5q182 0 318 133l61 -77q-151 -155 -385 -155q-127 0 -229.5 52.5t-164.5 147.5q-70 -90 -177 -145t-238 -55q-166 0 -264.5 75t-98.5 198t101 196t289 73h309v29
q0 151 -78.5 224t-222.5 73q-158 0 -288 -100l-54 85q154 118 356 118q295 0 365 -231q55 106 159 168.5t229 62.5zM487 85q102 0 198 50.5t156 135.5q-29 75 -35 161h-297q-144 0 -212 -47t-68 -127q0 -76 68.5 -124.5t189.5 -48.5zM1270 854q-141 0 -234.5 -91
t-111.5 -236h672q-12 145 -103 236t-223 91zM895 1082h-113l220 300h144z" />
    <glyph glyph-name="Oslashacute" unicode="&#x1fe;" horiz-adv-x="1685" 
d="M843 1416q275 0 471 -164l163 163l81 -81l-163 -163q165 -194 165 -471q0 -155 -55 -288.5t-150 -227t-227.5 -147t-284.5 -53.5q-276 0 -472 164l-162 -162l-81 80l162 162q-164 196 -164 472q0 155 55 288.5t150 227t227.5 147t284.5 53.5zM843 1298q-123 0 -232 -43.5
t-188 -121t-124.5 -190t-45.5 -243.5q0 -226 126 -383l847 847q-161 134 -383 134zM1432 700q0 223 -126 382l-848 -847q161 -133 385 -133q123 0 231.5 43.5t187.5 121t124.5 190t45.5 243.5zM825 1497h-113l220 300h144z" />
    <glyph glyph-name="oslashacute" unicode="&#x1ff;" horiz-adv-x="1192" 
d="M595 956q177 0 312 -106l116 116l70 -68l-117 -117q109 -133 109 -311q0 -208 -140.5 -346.5t-349.5 -138.5q-180 0 -311 104l-115 -115l-70 68l116 116q-108 132 -108 312q0 208 139.5 347t348.5 139zM595 849q-159 0 -265.5 -107.5t-106.5 -271.5q0 -133 73 -231
l532 532q-100 78 -233 78zM968 470q0 130 -72 231l-532 -532q99 -77 231 -77q160 0 266.5 107t106.5 271zM590 1082h-113l220 300h144z" />
    <glyph glyph-name="Scommaaccent" unicode="&#x218;" horiz-adv-x="1343" 
d="M1183 1261l-63 -99q-194 137 -438 137q-172 0 -281 -75t-109 -204q0 -106 83 -168.5t259 -82.5l153 -17q430 -48 430 -359q0 -99 -43 -178t-119 -128.5t-174.5 -75.5t-213.5 -26q-152 0 -298.5 49t-243.5 126l67 97q81 -64 209.5 -110t264.5 -46q187 0 305.5 73
t118.5 209q0 112 -88 172t-267 80l-159 18q-197 22 -304 111.5t-107 247.5q0 125 70 218t186 139t262 46q283 0 500 -154zM659 -88h125l-68 -341h-101z" />
    <glyph glyph-name="scommaaccent" unicode="&#x219;" horiz-adv-x="974" 
d="M858 850l-49 -88q-54 38 -140.5 66t-178.5 28q-112 0 -181 -46t-69 -124q0 -65 52.5 -102t161.5 -50l120 -14q309 -36 309 -253q0 -132 -110.5 -207t-294.5 -75q-229 0 -387 120l53 85q136 -106 335 -106q132 0 209.5 45t77.5 131q0 132 -217 156l-121 13
q-155 18 -230 82.5t-75 168.5q0 128 100.5 202t265.5 74q108 0 205.5 -29t163.5 -77zM448 -88h125l-68 -341h-101z" />
    <glyph glyph-name="uni021A" unicode="&#x21a;" horiz-adv-x="1215" 
d="M1173 1400v-116h-505v-1284h-122v1284h-504v116h1131zM567 -88h125l-68 -341h-101z" />
    <glyph glyph-name="uni021B" unicode="&#x21b;" horiz-adv-x="904" 
d="M819 941v-104h-434v-513q0 -116 56 -174t153 -58q120 0 210 72l54 -85q-112 -94 -273 -94q-150 0 -232 84.5t-82 252.5v515h-216v104h216v307h114v-307h434zM506 -88h125l-68 -341h-101z" />
    <glyph glyph-name="uni0232" unicode="&#x232;" horiz-adv-x="1263" 
d="M1251 1400l-558 -800v-600h-122v602l-559 798h146l475 -685l475 685h143zM341 1595v93h585v-93h-585z" />
    <glyph glyph-name="uni0233" unicode="&#x233;" horiz-adv-x="1028" 
d="M1011 941l-779 -1344h-126l360 613l-442 731h128l379 -619l355 619h125zM227 1180v93h585v-93h-585z" />
    <glyph glyph-name="uni0237" unicode="&#x237;" horiz-adv-x="480" 
d="M299 941v-1119q0 -113 -55.5 -173.5t-154.5 -60.5q-74 0 -130 33l28 98q43 -24 93 -24q105 0 105 132v1114h114z" />
    <glyph glyph-name="uni0259" unicode="&#x259;" horiz-adv-x="1121" 
d="M548 -15q-189 0 -314 135t-127 345q0 19 2 47h789q-12 160 -113.5 252.5t-250.5 92.5q-183 0 -322 -137l-57 81q152 155 386 155q207 0 340 -135.5t133 -349.5q0 -212 -133 -349t-333 -137zM550 86q141 0 235 91.5t111 236.5h-673q13 -146 103.5 -237t223.5 -91z" />
    <glyph glyph-name="uni02BB" unicode="&#x2bb;" horiz-adv-x="488" 
d="M283 957h-133l96 483h99z" />
    <glyph glyph-name="afii57929" unicode="&#x2bc;" horiz-adv-x="488" 
d="M205 1440h133l-96 -483h-99z" />
    <glyph glyph-name="uni02BE" unicode="&#x2be;" horiz-adv-x="533" 
d="M147 776v105q93 0 159 68t66 164q0 97 -66 164.5t-159 67.5v105q139 0 237.5 -98.5t98.5 -238.5q0 -139 -98.5 -238t-237.5 -99z" />
    <glyph glyph-name="uni02BF" unicode="&#x2bf;" horiz-adv-x="533" 
d="M386 1451v-105q-93 0 -159 -68t-66 -164q0 -97 66 -164.5t159 -67.5v-105q-139 0 -237.5 98.5t-98.5 238.5q0 139 98.5 238t237.5 99z" />
    <glyph glyph-name="circumflex" unicode="&#x2c6;" horiz-adv-x="904" 
d="M775 1089h-123l-200 204l-200 -204h-123l248 281h150z" />
    <glyph glyph-name="caron" unicode="&#x2c7;" horiz-adv-x="904" 
d="M129 1367h123l200 -204l200 204h123l-248 -281h-150z" />
    <glyph glyph-name="breve" unicode="&#x2d8;" horiz-adv-x="904" 
d="M127 1356l92 28q56 -201 233 -201q86 0 145.5 50.5t87.5 150.5l92 -28q-35 -131 -119.5 -200.5t-205.5 -69.5t-205.5 69.5t-119.5 200.5z" />
    <glyph glyph-name="dotaccent" unicode="&#x2d9;" horiz-adv-x="526" 
d="M263 1362q34 0 58 -24t24 -59q0 -34 -23.5 -57.5t-58.5 -23.5t-58 23t-23 58t23.5 59t57.5 24z" />
    <glyph glyph-name="ring" unicode="&#x2da;" horiz-adv-x="904" 
d="M452 1066q-89 0 -152 62.5t-63 150.5t63 150.5t152 62.5t152 -62.5t63 -150.5t-63 -150.5t-152 -62.5zM452 1139q57 0 97.5 41t40.5 99t-40.5 98.5t-97.5 40.5t-97.5 -40.5t-40.5 -98.5t40.5 -99t97.5 -41z" />
    <glyph glyph-name="ogonek" unicode="&#x2db;" horiz-adv-x="1076" 
d="M831 -251l61 -73q-90 -88 -222 -88q-107 0 -173.5 57t-66.5 149q0 95 73.5 161.5t218.5 132.5l51 -65q-121 -55 -178 -104t-57 -114q0 -53 38 -86t101 -33q88 0 154 63z" />
    <glyph glyph-name="tilde" unicode="&#x2dc;" horiz-adv-x="904" 
d="M181 1152l-68 65q42 56 90.5 83t115.5 27q45 0 85 -13.5t63.5 -29.5t55.5 -29.5t63 -13.5q75 0 138 77l69 -65q-44 -57 -92.5 -84t-114.5 -27q-45 0 -84 13.5t-63 30t-56 30t-64 13.5q-41 0 -72.5 -18.5t-65.5 -58.5z" />
    <glyph glyph-name="hungarumlaut" unicode="&#x2dd;" horiz-adv-x="904" 
d="M569 1082h-113l220 300h144zM197 1082h-113l220 300h144z" />
    <glyph glyph-name="gravecomb" unicode="&#x300;" 
d="M-603 1082l-251 300h144l220 -300h-113z" />
    <glyph glyph-name="acutecomb" unicode="&#x301;" 
d="M-601 1082h-113l220 300h144z" />
    <glyph glyph-name="uni0302" unicode="&#x302;" 
d="M-273 1088h-123l-200 205l-200 -205h-123l248 282h150z" />
    <glyph glyph-name="tildecomb" unicode="&#x303;" 
d="M-857 1152l-68 65q42 56 90.5 83t115.5 27q45 0 85 -13.5t63.5 -29.5t55.5 -29.5t63 -13.5q75 0 138 77l69 -65q-44 -57 -92.5 -84t-114.5 -27q-45 0 -84 13.5t-63 30t-56 30t-64 13.5q-41 0 -72.5 -18.5t-65.5 -58.5z" />
    <glyph glyph-name="uni0304" unicode="&#x304;" 
d="M-888 1180v93h585v-93h-585z" />
    <glyph glyph-name="uni0306" unicode="&#x306;" 
d="M-921 1356l92 28q28 -100 87.5 -150.5t145.5 -50.5t145.5 50.5t87.5 150.5l93 -28q-36 -131 -120.5 -200.5t-205.5 -69.5t-205.5 69.5t-119.5 200.5z" />
    <glyph glyph-name="uni0307" unicode="&#x307;" 
d="M-596 1362q34 0 58 -24t24 -59q0 -34 -23.5 -57.5t-58.5 -23.5q-34 0 -57.5 23t-23.5 58t23.5 59t57.5 24z" />
    <glyph glyph-name="uni0308" unicode="&#x308;" 
d="M-801 1310q34 0 58 -24t24 -59q0 -34 -23.5 -57.5t-58.5 -23.5t-58 23t-23 58t23.5 59t57.5 24zM-392 1310q34 0 58.5 -24t24.5 -59q0 -34 -24 -57.5t-59 -23.5q-34 0 -57.5 23t-23.5 58t23.5 59t57.5 24z" />
    <glyph glyph-name="uni030A" unicode="&#x30a;" 
d="M-596 1066q-89 0 -152 62.5t-63 150.5t63 150.5t152 62.5t152 -62.5t63 -150.5t-63 -150.5t-152 -62.5zM-596 1139q57 0 97.5 41t40.5 99t-40.5 98.5t-97.5 40.5t-97.5 -40.5t-40.5 -98.5t40.5 -99t97.5 -41z" />
    <glyph glyph-name="uni030B" unicode="&#x30b;" 
d="M-384 1082h-115l224 300h134zM-725 1082h-117l213 300h130z" />
    <glyph glyph-name="uni030C" unicode="&#x30c;" 
d="M-919 1367h123l200 -204l200 204h123l-248 -281h-150z" />
    <glyph glyph-name="uni0312" unicode="&#x312;" 
d="M-543 1082h-125l68 340h101z" />
    <glyph glyph-name="dotbelowcomb" unicode="&#x323;" 
d="M-595 -179q34 0 58 -24t24 -59q0 -34 -23.5 -57.5t-58.5 -23.5t-58 23.5t-23 57.5q0 35 23.5 59t57.5 24z" />
    <glyph glyph-name="uni0326" unicode="&#x326;" 
d="M-642 -88h125l-68 -341h-101z" />
    <glyph glyph-name="uni0327" unicode="&#x327;" 
d="M-484 5l-103 -328h-119l108 329z" />
    <glyph glyph-name="uni0328" unicode="&#x328;" 
d="M-423 -251l61 -73q-90 -88 -222 -88q-108 0 -175.5 55.5t-67.5 141.5q0 52 22 95t67 79t99 64.5t133 60.5l12 -35q-113 -63 -167.5 -118t-54.5 -126q0 -53 38 -86t101 -33q88 0 154 63z" />
    <glyph glyph-name="uni032E" unicode="&#x32e;" 
d="M-920 -138l92 27q27 -99 86.5 -150t146.5 -51q177 0 233 201l92 -27q-35 -132 -119.5 -201t-205.5 -69t-205.5 69t-119.5 201z" />
    <glyph glyph-name="uni0331" unicode="&#x331;" 
d="M-887 -308v93h585v-93h-585z" />
    <glyph glyph-name="uni0335" unicode="&#x335;" 
d="M-241 578v-103h-710v103h710z" />
    <glyph glyph-name="uni0336" unicode="&#x336;" 
d="M152 578v-103h-1495v103h1495z" />
    <glyph glyph-name="uni0394" unicode="&#x394;" horiz-adv-x="1419" 
d="M784 1402l551 -1307v-95h-1251v95l551 1307h149zM710 1277l-489 -1161h976z" />
    <glyph glyph-name="uni03A9" unicode="&#x3a9;" horiz-adv-x="1718" 
d="M84 116h385q-151 84 -239 235t-88 342q0 208 94 374t257.5 257.5t365.5 91.5t365.5 -91.5t257.5 -257.5t94 -374q0 -191 -88 -342t-239 -235h385v-116h-588v99q182 57 292 214t110 375q0 179 -78 319t-212 215.5t-299 75.5t-299 -75.5t-212 -215.5t-78 -319
q0 -218 110.5 -374.5t291.5 -214.5v-99h-588v116z" />
    <glyph glyph-name="uni03BC" unicode="&#x3bc;" horiz-adv-x="1197" 
d="M284 -400h-113v1341h114v-542q0 -143 79.5 -224.5t222.5 -81.5q134 0 224.5 87.5t90.5 224.5v536h114v-941h-113v165q-53 -90 -143 -135t-193 -45q-180 0 -283 107v-492z" />
    <glyph glyph-name="pi" unicode="&#x3c0;" horiz-adv-x="1198" 
d="M1027 941v-941h-114v837h-617v-837h-114v941h845z" />
    <glyph glyph-name="uni1E0C" unicode="&#x1e0c;" horiz-adv-x="1602" 
d="M209 1400h511q349 0 553 -188.5t204 -511.5t-204 -511.5t-553 -188.5h-511v1400zM720 1284h-389v-1168h389q301 0 465 157t164 427q0 271 -164 427.5t-465 156.5zM758 -179q34 0 58 -24t24 -59q0 -34 -23.5 -57.5t-58.5 -23.5q-34 0 -57.5 23.5t-23.5 57.5q0 35 23.5 59
t57.5 24z" />
    <glyph glyph-name="uni1E0D" unicode="&#x1e0d;" horiz-adv-x="1244" 
d="M577 956q124 0 219 -52.5t154 -143.5v680h113v-1440h-113v181q-59 -92 -154 -144t-219 -52q-199 0 -334.5 138t-135.5 347t135.5 347.5t334.5 138.5zM590 849q-160 0 -263.5 -108.5t-103.5 -270.5q0 -160 104 -269t263 -109t262.5 107.5t103.5 270.5t-103.5 271
t-262.5 108zM612 -179q34 0 58 -24t24 -59q0 -34 -23.5 -57.5t-58.5 -23.5q-34 0 -57.5 23.5t-23.5 57.5q0 35 23.5 59t57.5 24z" />
    <glyph glyph-name="uni1E0E" unicode="&#x1e0e;" horiz-adv-x="1602" 
d="M209 1400h511q349 0 553 -188.5t204 -511.5t-204 -511.5t-553 -188.5h-511v1400zM720 1284h-389v-1168h389q301 0 465 157t164 427q0 271 -164 427.5t-465 156.5zM466 -308v93h585v-93h-585z" />
    <glyph glyph-name="uni1E0F" unicode="&#x1e0f;" horiz-adv-x="1244" 
d="M577 956q124 0 219 -52.5t154 -143.5v680h113v-1440h-113v181q-59 -92 -154 -144t-219 -52q-199 0 -334.5 138t-135.5 347t135.5 347.5t334.5 138.5zM590 849q-160 0 -263.5 -108.5t-103.5 -270.5q0 -160 104 -269t263 -109t262.5 107.5t103.5 270.5t-103.5 271
t-262.5 108zM319 -308v93h585v-93h-585z" />
    <glyph glyph-name="uni1E24" unicode="&#x1e24;" horiz-adv-x="1565" 
d="M331 1400v-637h902v637h122v-1400h-122v647h-902v-647h-122v1400h122zM782 -179q34 0 58 -24t24 -59q0 -34 -23.5 -57.5t-58.5 -23.5q-34 0 -57.5 23.5t-23.5 57.5q0 35 23.5 59t57.5 24z" />
    <glyph glyph-name="uni1E25" unicode="&#x1e25;" horiz-adv-x="1198" 
d="M296 1440v-662q53 89 142.5 133.5t192.5 44.5q178 0 287 -103t109 -276v-577h-114v542q0 143 -79.5 224.5t-222.5 81.5q-134 0 -224.5 -87.5t-90.5 -224.5v-536h-114v1440h114zM606 -179q34 0 58 -24t24 -59q0 -34 -23.5 -57.5t-58.5 -23.5q-34 0 -57.5 23.5t-23.5 57.5
q0 35 23.5 59t57.5 24z" />
    <glyph glyph-name="uni1E28" unicode="&#x1e28;" horiz-adv-x="1565" 
d="M331 1400v-637h902v637h122v-1400h-122v647h-902v-647h-3l-101 -323h-124l107 323h-1v1400h122z" />
    <glyph glyph-name="uni1E29" unicode="&#x1e29;" horiz-adv-x="1198" 
d="M296 1440v-662q53 89 142.5 133.5t192.5 44.5q178 0 287 -103t109 -276v-577h-114v542q0 143 -79.5 224.5t-222.5 81.5q-134 0 -224.5 -87.5t-90.5 -224.5v-536h-2l-101 -323h-119l110 323h-2v1440h114z" />
    <glyph glyph-name="uni1E2A" unicode="&#x1e2a;" horiz-adv-x="1565" 
d="M331 1400v-637h902v637h122v-1400h-122v647h-902v-647h-122v1400h122zM457 -138l92 27q27 -99 87 -150t146 -51t145.5 50.5t87.5 150.5l92 -27q-35 -132 -119.5 -201t-205.5 -69t-205.5 69t-119.5 201z" />
    <glyph glyph-name="uni1E2B" unicode="&#x1e2b;" horiz-adv-x="1198" 
d="M296 1440v-662q53 89 142.5 133.5t192.5 44.5q178 0 287 -103t109 -276v-577h-114v542q0 143 -79.5 224.5t-222.5 81.5q-134 0 -224.5 -87.5t-90.5 -224.5v-536h-114v1440h114zM280 -138l92 27q27 -99 86.5 -150t146.5 -51q177 0 233 201l92 -27q-35 -132 -119.5 -201
t-205.5 -69t-205.5 69t-119.5 201z" />
    <glyph glyph-name="uni1E32" unicode="&#x1e32;" horiz-adv-x="1367" 
d="M1167 0l-651 646h-185v-646h-122v1400h122v-638h187l615 638h158l-675 -689l717 -711h-166zM682 -179q34 0 58 -24t24 -59q0 -34 -23.5 -57.5t-58.5 -23.5q-34 0 -57.5 23.5t-23.5 57.5q0 35 23.5 59t57.5 24z" />
    <glyph glyph-name="uni1E33" unicode="&#x1e33;" horiz-adv-x="1042" 
d="M296 1440v-896h153l396 397h144l-448 -444l456 -497h-145l-403 441h-153v-441h-114v1440h114zM554 -179q34 0 58 -24t24 -59q0 -34 -23.5 -57.5t-58.5 -23.5q-34 0 -57.5 23.5t-23.5 57.5q0 35 23.5 59t57.5 24z" />
    <glyph glyph-name="uni1E36" unicode="&#x1e36;" horiz-adv-x="1204" 
d="M1162 116v-116h-953v1400h122v-1284h831zM674 -179q34 0 58 -24t24 -59q0 -34 -23.5 -57.5t-58.5 -23.5q-34 0 -57.5 23.5t-23.5 57.5q0 35 23.5 59t57.5 24z" />
    <glyph glyph-name="uni1E37" unicode="&#x1e37;" horiz-adv-x="477" 
d="M296 1440v-1440h-114v1440h114zM240 -179q34 0 58 -24t24 -59q0 -34 -23.5 -57.5t-58.5 -23.5q-34 0 -57.5 23.5t-23.5 57.5q0 35 23.5 59t57.5 24z" />
    <glyph glyph-name="uni1E38" unicode="&#x1e38;" horiz-adv-x="1204" 
d="M1162 116v-116h-953v1400h122v-1284h831zM674 -179q34 0 58 -24t24 -59q0 -34 -23.5 -57.5t-58.5 -23.5q-34 0 -57.5 23.5t-23.5 57.5q0 35 23.5 59t57.5 24zM-22 1595v93h585v-93h-585z" />
    <glyph glyph-name="uni1E39" unicode="&#x1e39;" horiz-adv-x="477" 
d="M296 1440v-1440h-114v1440h114zM-74 1611v93h585v-93h-585zM240 -179q34 0 58 -24t24 -59q0 -34 -23.5 -57.5t-58.5 -23.5q-34 0 -57.5 23.5t-23.5 57.5q0 35 23.5 59t57.5 24z" />
    <glyph glyph-name="uni1E3A" unicode="&#x1e3a;" horiz-adv-x="1204" 
d="M1162 116v-116h-953v1400h122v-1284h831zM382 -308v93h585v-93h-585z" />
    <glyph glyph-name="uni1E3B" unicode="&#x1e3b;" horiz-adv-x="477" 
d="M296 1440v-1440h-114v1440h114zM-53 -308v93h585v-93h-585z" />
    <glyph glyph-name="uni1E40" unicode="&#x1e40;" horiz-adv-x="1860" 
d="M1650 1400v-1400h-122v1261l-534 -1095h-129l-534 1089v-1255h-122v1400h184l537 -1091l536 1091h184zM920 1730q35 0 59.5 -25t24.5 -60t-24.5 -59t-59.5 -24q-36 0 -60 24t-24 59q0 36 24 60.5t60 24.5z" />
    <glyph glyph-name="uni1E41" unicode="&#x1e41;" horiz-adv-x="1930" 
d="M1362 956q178 0 287.5 -103t109.5 -276v-577h-114v542q0 143 -80 224.5t-223 81.5q-134 0 -224.5 -87.5t-90.5 -224.5v-536h-114v542q0 143 -79.5 224.5t-222.5 81.5q-134 0 -224.5 -87.5t-90.5 -224.5v-536h-114v941h113v-165q53 90 143 135t193 45q132 0 228 -57.5
t138 -161.5q50 110 149 164.5t216 54.5zM970 1379q34 0 58 -24t24 -59q0 -34 -23.5 -57.5t-58.5 -23.5q-34 0 -57.5 23.5t-23.5 57.5q0 35 23.5 59t57.5 24z" />
    <glyph glyph-name="uni1E42" unicode="&#x1e42;" horiz-adv-x="1860" 
d="M1650 1400v-1400h-122v1261l-534 -1095h-129l-534 1089v-1255h-122v1400h184l537 -1091l536 1091h184zM930 -179q34 0 58 -24t24 -59q0 -34 -23.5 -57.5t-58.5 -23.5q-34 0 -57.5 23.5t-23.5 57.5q0 35 23.5 59t57.5 24z" />
    <glyph glyph-name="uni1E43" unicode="&#x1e43;" horiz-adv-x="1930" 
d="M1362 956q178 0 287.5 -103t109.5 -276v-577h-114v542q0 143 -80 224.5t-223 81.5q-134 0 -224.5 -87.5t-90.5 -224.5v-536h-114v542q0 143 -79.5 224.5t-222.5 81.5q-134 0 -224.5 -87.5t-90.5 -224.5v-536h-114v941h113v-165q53 90 143 135t193 45q132 0 228 -57.5
t138 -161.5q50 110 149 164.5t216 54.5zM971 -179q34 0 58 -24t24 -59q0 -34 -23.5 -57.5t-58.5 -23.5t-58 23.5t-23 57.5q0 35 23.5 59t57.5 24z" />
    <glyph glyph-name="uni1E44" unicode="&#x1e44;" horiz-adv-x="1569" 
d="M1359 1400v-1400h-110l-917 1190l-1 -1190h-122v1400h110l918 -1190v1190h122zM774 1730q35 0 59.5 -25t24.5 -60t-24.5 -59t-59.5 -24q-36 0 -60 24t-24 59q0 36 24 60.5t60 24.5z" />
    <glyph glyph-name="uni1E45" unicode="&#x1e45;" horiz-adv-x="1198" 
d="M631 956q178 0 287 -103t109 -276v-577h-114v542q0 143 -79.5 224.5t-222.5 81.5q-134 0 -224.5 -87.5t-90.5 -224.5v-536h-114v941h113v-165q53 90 143 135t193 45zM614 1362q34 0 58 -24t24 -59q0 -34 -23.5 -57.5t-58.5 -23.5q-34 0 -57.5 23t-23.5 58t23.5 59
t57.5 24z" />
    <glyph glyph-name="uni1E46" unicode="&#x1e46;" horiz-adv-x="1569" 
d="M1359 1400v-1400h-110l-917 1190l-1 -1190h-122v1400h110l918 -1190v1190h122zM780 -179q34 0 58 -24t24 -59q0 -34 -23.5 -57.5t-58.5 -23.5q-34 0 -57.5 23.5t-23.5 57.5q0 35 23.5 59t57.5 24z" />
    <glyph glyph-name="uni1E47" unicode="&#x1e47;" horiz-adv-x="1198" 
d="M631 956q178 0 287 -103t109 -276v-577h-114v542q0 143 -79.5 224.5t-222.5 81.5q-134 0 -224.5 -87.5t-90.5 -224.5v-536h-114v941h113v-165q53 90 143 135t193 45zM604 -179q34 0 58 -24t24 -59q0 -34 -23.5 -57.5t-58.5 -23.5q-34 0 -57.5 23.5t-23.5 57.5
q0 35 23.5 59t57.5 24z" />
    <glyph glyph-name="uni1E48" unicode="&#x1e48;" horiz-adv-x="1569" 
d="M1359 1400v-1400h-110l-917 1190l-1 -1190h-122v1400h110l918 -1190v1190h122zM488 -308v93h585v-93h-585z" />
    <glyph glyph-name="uni1E49" unicode="&#x1e49;" horiz-adv-x="1198" 
d="M631 956q178 0 287 -103t109 -276v-577h-114v542q0 143 -79.5 224.5t-222.5 81.5q-134 0 -224.5 -87.5t-90.5 -224.5v-536h-114v941h113v-165q53 90 143 135t193 45zM311 -308v93h585v-93h-585z" />
    <glyph glyph-name="uni1E58" unicode="&#x1e58;" horiz-adv-x="1341" 
d="M209 1400h534q232 0 357.5 -101.5t125.5 -287.5q0 -181 -129.5 -285.5t-352.5 -104.5h-55l530 -621h-152l-522 621h-214v-621h-122v1400zM742 1285h-411v-553h411q174 0 266 72t92 207q0 134 -92.5 204t-265.5 70zM651 1730q35 0 59.5 -25t24.5 -60t-24.5 -59t-59.5 -24
q-36 0 -60 24t-24 59q0 36 24 60.5t60 24.5z" />
    <glyph glyph-name="uni1E59" unicode="&#x1e59;" horiz-adv-x="814" 
d="M584 957q103 0 176 -36l-29 -111q-70 38 -167 38q-119 0 -194 -87.5t-75 -229.5v-531h-113v941h112v-160q46 83 122 129.5t168 46.5zM466 1362q34 0 58 -24t24 -59q0 -34 -23.5 -57.5t-58.5 -23.5q-34 0 -57.5 23t-23.5 58t23.5 59t57.5 24z" />
    <glyph glyph-name="uni1E5A" unicode="&#x1e5a;" horiz-adv-x="1341" 
d="M209 1400h534q232 0 357.5 -101.5t125.5 -287.5q0 -181 -129.5 -285.5t-352.5 -104.5h-55l530 -621h-152l-522 621h-214v-621h-122v1400zM742 1285h-411v-553h411q174 0 266 72t92 207q0 134 -92.5 204t-265.5 70zM660 -179q34 0 58 -24t24 -59q0 -34 -23.5 -57.5
t-58.5 -23.5q-34 0 -57.5 23.5t-23.5 57.5q0 35 23.5 59t57.5 24z" />
    <glyph glyph-name="uni1E5B" unicode="&#x1e5b;" horiz-adv-x="814" 
d="M584 957q103 0 176 -36l-29 -111q-70 38 -167 38q-119 0 -194 -87.5t-75 -229.5v-531h-113v941h112v-160q46 83 122 129.5t168 46.5zM241 -179q34 0 58 -24t24 -59q0 -34 -23.5 -57.5t-58.5 -23.5t-58 23.5t-23 57.5q0 35 23.5 59t57.5 24z" />
    <glyph glyph-name="uni1E5C" unicode="&#x1e5c;" horiz-adv-x="1341" 
d="M209 1400h534q232 0 357.5 -101.5t125.5 -287.5q0 -181 -129.5 -285.5t-352.5 -104.5h-55l530 -621h-152l-522 621h-214v-621h-122v1400zM742 1285h-411v-553h411q174 0 266 72t92 207q0 134 -92.5 204t-265.5 70zM660 -179q34 0 58 -24t24 -59q0 -34 -23.5 -57.5
t-58.5 -23.5q-34 0 -57.5 23.5t-23.5 57.5q0 35 23.5 59t57.5 24zM369 1595v93h585v-93h-585z" />
    <glyph glyph-name="uni1E5D" unicode="&#x1e5d;" horiz-adv-x="814" 
d="M584 957q103 0 176 -36l-29 -111q-70 38 -167 38q-119 0 -194 -87.5t-75 -229.5v-531h-113v941h112v-160q46 83 122 129.5t168 46.5zM174 1180v93h585v-93h-585zM241 -179q34 0 58 -24t24 -59q0 -34 -23.5 -57.5t-58.5 -23.5t-58 23.5t-23 57.5q0 35 23.5 59t57.5 24z
" />
    <glyph glyph-name="uni1E5E" unicode="&#x1e5e;" horiz-adv-x="1341" 
d="M209 1400h534q232 0 357.5 -101.5t125.5 -287.5q0 -181 -129.5 -285.5t-352.5 -104.5h-55l530 -621h-152l-522 621h-214v-621h-122v1400zM742 1285h-411v-553h411q174 0 266 72t92 207q0 134 -92.5 204t-265.5 70zM368 -308v93h585v-93h-585z" />
    <glyph glyph-name="uni1E5F" unicode="&#x1e5f;" horiz-adv-x="814" 
d="M584 957q103 0 176 -36l-29 -111q-70 38 -167 38q-119 0 -194 -87.5t-75 -229.5v-531h-113v941h112v-160q46 83 122 129.5t168 46.5zM-52 -308v93h585v-93h-585z" />
    <glyph glyph-name="uni1E62" unicode="&#x1e62;" horiz-adv-x="1343" 
d="M1183 1261l-63 -99q-194 137 -438 137q-172 0 -281 -75t-109 -204q0 -106 83 -168.5t259 -82.5l153 -17q430 -48 430 -359q0 -99 -43 -178t-119 -128.5t-174.5 -75.5t-213.5 -26q-152 0 -298.5 49t-243.5 126l67 97q81 -64 209.5 -110t264.5 -46q187 0 305.5 73
t118.5 209q0 112 -88 172t-267 80l-159 18q-197 22 -304 111.5t-107 247.5q0 125 70 218t186 139t262 46q283 0 500 -154zM699 -179q34 0 58 -24t24 -59q0 -34 -23.5 -57.5t-58.5 -23.5t-58 23.5t-23 57.5q0 35 23.5 59t57.5 24z" />
    <glyph glyph-name="uni1E63" unicode="&#x1e63;" horiz-adv-x="974" 
d="M858 850l-49 -88q-54 38 -140.5 66t-178.5 28q-112 0 -181 -46t-69 -124q0 -65 52.5 -102t161.5 -50l120 -14q309 -36 309 -253q0 -132 -110.5 -207t-294.5 -75q-229 0 -387 120l53 85q136 -106 335 -106q132 0 209.5 45t77.5 131q0 132 -217 156l-121 13
q-155 18 -230 82.5t-75 168.5q0 128 100.5 202t265.5 74q108 0 205.5 -29t163.5 -77zM496 -179q34 0 58 -24t24 -59q0 -34 -23.5 -57.5t-58.5 -23.5q-34 0 -57.5 23.5t-23.5 57.5q0 35 23.5 59t57.5 24z" />
    <glyph glyph-name="uni1E6C" unicode="&#x1e6c;" horiz-adv-x="1215" 
d="M1173 1400v-116h-505v-1284h-122v1284h-504v116h1131zM607 -179q34 0 58 -24t24 -59q0 -34 -23.5 -57.5t-58.5 -23.5t-58 23.5t-23 57.5q0 35 23.5 59t57.5 24z" />
    <glyph glyph-name="uni1E6D" unicode="&#x1e6d;" horiz-adv-x="904" 
d="M819 941v-104h-434v-513q0 -116 56 -174t153 -58q120 0 210 72l54 -85q-112 -94 -273 -94q-150 0 -232 84.5t-82 252.5v515h-216v104h216v307h114v-307h434zM554 -179q34 0 58 -24t24 -59q0 -34 -23.5 -57.5t-58.5 -23.5q-34 0 -57.5 23.5t-23.5 57.5q0 35 23.5 59
t57.5 24z" />
    <glyph glyph-name="uni1E6E" unicode="&#x1e6e;" horiz-adv-x="1215" 
d="M1173 1400v-116h-505v-1284h-122v1284h-504v116h1131zM315 -308v93h585v-93h-585z" />
    <glyph glyph-name="uni1E6F" unicode="&#x1e6f;" horiz-adv-x="904" 
d="M819 941v-104h-434v-513q0 -116 56 -174t153 -58q120 0 210 72l54 -85q-112 -94 -273 -94q-150 0 -232 84.5t-82 252.5v515h-216v104h216v307h114v-307h434zM261 -308v93h585v-93h-585z" />
    <glyph glyph-name="Wgrave" unicode="&#x1e80;" horiz-adv-x="2208" 
d="M2144 1400l-472 -1400h-149l-419 1241l-419 -1241h-149l-472 1400h129l419 -1265l425 1265h137l424 -1263l420 1263h126zM1114 1497l-251 300h144l220 -300h-113z" />
    <glyph glyph-name="wgrave" unicode="&#x1e81;" horiz-adv-x="1725" 
d="M927 941l310 -825l319 825h118l-369 -941h-134l-310 822l-308 -822h-133l-369 941h121l318 -824l309 824h128zM856 1082l-251 300h144l220 -300h-113z" />
    <glyph glyph-name="Wacute" unicode="&#x1e82;" horiz-adv-x="2208" 
d="M2144 1400l-472 -1400h-149l-419 1241l-419 -1241h-149l-472 1400h129l419 -1265l425 1265h137l424 -1263l420 1263h126zM1086 1497h-113l220 300h144z" />
    <glyph glyph-name="wacute" unicode="&#x1e83;" horiz-adv-x="1725" 
d="M927 941l310 -825l319 825h118l-369 -941h-134l-310 822l-308 -822h-133l-369 941h121l318 -824l309 824h128zM858 1082h-113l220 300h144z" />
    <glyph glyph-name="Wdieresis" unicode="&#x1e84;" horiz-adv-x="2208" 
d="M2144 1400l-472 -1400h-149l-419 1241l-419 -1241h-149l-472 1400h129l419 -1265l425 1265h137l424 -1263l420 1263h126zM899 1725q34 0 58 -24t24 -59q0 -34 -23.5 -57.5t-58.5 -23.5t-58 23.5t-23 57.5q0 35 23.5 59t57.5 24zM1308 1725q34 0 58.5 -24.5t24.5 -58.5
t-24 -57.5t-59 -23.5q-34 0 -57.5 23.5t-23.5 57.5q0 35 23.5 59t57.5 24z" />
    <glyph glyph-name="wdieresis" unicode="&#x1e85;" horiz-adv-x="1725" 
d="M927 941l310 -825l319 825h118l-369 -941h-134l-310 822l-308 -822h-133l-369 941h121l318 -824l309 824h128zM658 1310q34 0 58 -24t24 -59q0 -34 -23.5 -57.5t-58.5 -23.5q-34 0 -57.5 23t-23.5 58t23.5 59t57.5 24zM1067 1310q35 0 59 -24t24 -59q0 -34 -24 -57.5
t-59 -23.5t-58 23t-23 58t23.5 59t57.5 24z" />
    <glyph glyph-name="uni1E88" unicode="&#x1e88;" horiz-adv-x="2208" 
d="M2144 1400l-472 -1400h-149l-419 1241l-419 -1241h-149l-472 1400h129l419 -1265l425 1265h137l424 -1263l420 1263h126zM1105 -179q34 0 58 -24t24 -59q0 -34 -23.5 -57.5t-58.5 -23.5t-58 23.5t-23 57.5q0 35 23.5 59t57.5 24z" />
    <glyph glyph-name="uni1E89" unicode="&#x1e89;" horiz-adv-x="1725" 
d="M927 941l310 -825l319 825h118l-369 -941h-134l-310 822l-308 -822h-133l-369 941h121l318 -824l309 824h128zM863 -179q34 0 58 -24t24 -59q0 -34 -23.5 -57.5t-58.5 -23.5t-58 23.5t-23 57.5q0 35 23.5 59t57.5 24z" />
    <glyph glyph-name="uni1E92" unicode="&#x1e92;" horiz-adv-x="1327" 
d="M1197 1400v-94l-910 -1190h914v-116h-1076v95l909 1189h-894v116h1057zM663 -179q34 0 58 -24t24 -59q0 -34 -23.5 -57.5t-58.5 -23.5t-58 23.5t-23 57.5q0 35 23.5 59t57.5 24z" />
    <glyph glyph-name="uni1E93" unicode="&#x1e93;" horiz-adv-x="1066" 
d="M931 941v-84l-652 -754h660v-103h-812v83l657 754h-637v104h784zM535 -179q34 0 58 -24t24 -59q0 -34 -23.5 -57.5t-58.5 -23.5t-58 23.5t-23 57.5q0 35 23.5 59t57.5 24z" />
    <glyph glyph-name="uni1E94" unicode="&#x1e94;" horiz-adv-x="1327" 
d="M1197 1400v-94l-910 -1190h914v-116h-1076v95l909 1189h-894v116h1057zM371 -308v93h585v-93h-585z" />
    <glyph glyph-name="uni1E95" unicode="&#x1e95;" horiz-adv-x="1066" 
d="M931 941v-84l-652 -754h660v-103h-812v83l657 754h-637v104h784zM242 -308v93h585v-93h-585z" />
    <glyph glyph-name="uni1E96" unicode="&#x1e96;" horiz-adv-x="1198" 
d="M296 1440v-662q53 89 142.5 133.5t192.5 44.5q178 0 287 -103t109 -276v-577h-114v542q0 143 -79.5 224.5t-222.5 81.5q-134 0 -224.5 -87.5t-90.5 -224.5v-536h-114v1440h114zM313 -308v93h585v-93h-585z" />
    <glyph glyph-name="uni1E9E" unicode="&#x1e9e;" horiz-adv-x="1464" 
d="M732 648v91l383 417q-124 142 -377 142q-195 0 -310.5 -101t-115.5 -277v-920h-123v927q0 219 146.5 353.5t405.5 134.5q197 0 325.5 -63t214.5 -179l-387 -419q195 -17 320 -120t125 -264q0 -116 -68 -204.5t-181 -134.5t-250 -46q-172 0 -307 51l31 116
q118 -49 258 -49q175 0 281.5 71.5t106.5 195.5q0 128 -111 203t-297 75h-70z" />
    <glyph glyph-name="Ygrave" unicode="&#x1ef2;" horiz-adv-x="1263" 
d="M1251 1400l-558 -800v-600h-122v602l-559 798h146l475 -685l475 685h143zM643 1497l-251 300h144l220 -300h-113z" />
    <glyph glyph-name="ygrave" unicode="&#x1ef3;" horiz-adv-x="1028" 
d="M1011 941l-779 -1344h-126l360 613l-442 731h128l379 -619l355 619h125zM512 1082l-251 300h144l220 -300h-113z" />
    <glyph glyph-name="uni1EF4" unicode="&#x1ef4;" horiz-adv-x="1263" 
d="M1251 1400l-558 -800v-600h-122v602l-559 798h146l475 -685l475 685h143zM632 -179q34 0 58 -24t24 -59q0 -34 -23.5 -57.5t-58.5 -23.5q-34 0 -57.5 23.5t-23.5 57.5q0 35 23.5 59t57.5 24z" />
    <glyph glyph-name="uni1EF5" unicode="&#x1ef5;" horiz-adv-x="1028" 
d="M1011 941l-779 -1344h-126l360 613l-442 731h128l379 -619l355 619h125zM734 -179q34 0 58 -24t24 -59q0 -34 -23.5 -57.5t-58.5 -23.5q-34 0 -57.5 23.5t-23.5 57.5q0 35 23.5 59t57.5 24z" />
    <glyph glyph-name="uni2007" unicode="&#x2007;" horiz-adv-x="1417" 
 />
    <glyph glyph-name="uni2008" unicode="&#x2008;" horiz-adv-x="520" 
 />
    <glyph glyph-name="uni2009" unicode="&#x2009;" horiz-adv-x="177" 
 />
    <glyph glyph-name="uni200B" unicode="&#x200b;" horiz-adv-x="0" 
 />
    <glyph glyph-name="uni2010" unicode="&#x2010;" horiz-adv-x="835" 
d="M689 578v-103h-542v103h542z" />
    <glyph glyph-name="uni2011" unicode="&#x2011;" horiz-adv-x="835" 
d="M689 578v-103h-542v103h542z" />
    <glyph glyph-name="figuredash" unicode="&#x2012;" horiz-adv-x="1200" 
d="M1075 578v-103h-950v103h950z" />
    <glyph glyph-name="endash" unicode="&#x2013;" horiz-adv-x="1201" 
d="M1076 578v-103h-950v103h950z" />
    <glyph glyph-name="emdash" unicode="&#x2014;" horiz-adv-x="1626" 
d="M1563 578v-103h-1500v103h1500z" />
    <glyph glyph-name="quoteleft" unicode="&#x2018;" horiz-adv-x="488" 
d="M283 957h-133l96 483h99z" />
    <glyph glyph-name="quoteright" unicode="&#x2019;" horiz-adv-x="488" 
d="M205 1440h133l-96 -483h-99z" />
    <glyph glyph-name="quotesinglbase" unicode="&#x201a;" horiz-adv-x="488" 
d="M205 234h133l-96 -483h-99z" />
    <glyph glyph-name="quotedblleft" unicode="&#x201c;" horiz-adv-x="821" 
d="M283 957h-133l96 483h99zM616 957h-133l96 483h99z" />
    <glyph glyph-name="quotedblright" unicode="&#x201d;" horiz-adv-x="821" 
d="M538 1440h133l-96 -483h-99zM205 1440h133l-96 -483h-99z" />
    <glyph glyph-name="quotedblbase" unicode="&#x201e;" horiz-adv-x="821" 
d="M538 234h133l-96 -483h-99zM205 234h133l-96 -483h-99z" />
    <glyph glyph-name="dagger" unicode="&#x2020;" horiz-adv-x="713" 
d="M404 701h-95v442h-204v93h204v204h95v-204h204v-93h-204v-442z" />
    <glyph glyph-name="daggerdbl" unicode="&#x2021;" horiz-adv-x="713" 
d="M404 1440v-184h204v-92h-204v-187h204v-93h-204v-183h-95v183h-204v93h204v187h-204v92h204v184h95z" />
    <glyph glyph-name="bullet" unicode="&#x2022;" horiz-adv-x="874" 
d="M437 718q78 0 134.5 -56t56.5 -135t-56.5 -135t-134.5 -56q-80 0 -135.5 56t-55.5 135q0 80 55.5 135.5t135.5 55.5z" />
    <glyph glyph-name="uni2023" unicode="&#x2023;" horiz-adv-x="991" 
d="M814 527l-536 -311v621z" />
    <glyph glyph-name="ellipsis" unicode="&#x2026;" horiz-adv-x="1409" 
d="M260 178q39 0 67.5 -28.5t28.5 -66.5q0 -39 -28.5 -68t-67.5 -29q-38 0 -67 29t-29 68q0 38 29 66.5t67 28.5zM705 178q38 0 66.5 -28.5t28.5 -66.5q0 -39 -28.5 -68t-66.5 -29q-39 0 -67.5 29t-28.5 68q0 38 28.5 66.5t67.5 28.5zM1149 178q38 0 67 -28.5t29 -66.5
q0 -39 -29 -68t-67 -29t-67 29t-29 68q0 38 29 66.5t67 28.5z" />
    <glyph glyph-name="perthousand" unicode="&#x2030;" horiz-adv-x="2743" 
d="M456 1415q153 0 255.5 -101t102.5 -252t-102.5 -252.5t-255.5 -101.5q-151 0 -253 101.5t-102 252.5t102 252t253 101zM456 1315q-106 0 -177 -71.5t-71 -181.5t71 -181.5t177 -71.5q108 0 179.5 71.5t71.5 181.5t-71.5 181.5t-179.5 71.5zM1458 1400l-883 -1400h-120
l883 1400h120zM1453 692q153 0 256 -102t103 -252q0 -151 -103 -252t-256 -101q-151 0 -252.5 101t-101.5 252t101.5 252.5t252.5 101.5zM1453 591q-106 0 -176.5 -71.5t-70.5 -181.5t70.5 -181.5t176.5 -71.5q108 0 180 71.5t72 181.5t-72 181.5t-180 71.5zM2285 692
q153 0 255.5 -101.5t102.5 -252.5t-102.5 -252t-255.5 -101q-151 0 -253 101t-102 252t102 252.5t253 101.5zM2285 591q-106 0 -177 -71.5t-71 -181.5t71 -181.5t177 -71.5q108 0 179.5 71.5t71.5 181.5t-71.5 181.5t-179.5 71.5z" />
    <glyph glyph-name="minute" unicode="&#x2032;" horiz-adv-x="533" 
d="M274 1400h109l-131 -616h-109z" />
    <glyph glyph-name="second" unicode="&#x2033;" horiz-adv-x="830" 
d="M571 1400h109l-131 -616h-109zM274 1400h109l-131 -616h-109z" />
    <glyph glyph-name="uni2034" unicode="&#x2034;" horiz-adv-x="1077" 
d="M546 1400h109l-131 -616h-109zM818 1400h109l-131 -616h-109zM274 1400h109l-131 -616h-109z" />
    <glyph glyph-name="guilsinglleft" unicode="&#x2039;" horiz-adv-x="619" 
d="M261 527l194 -364h-123l-193 364l193 364h123z" />
    <glyph glyph-name="guilsinglright" unicode="&#x203a;" horiz-adv-x="619" 
d="M358 527l-194 364h123l193 -364l-193 -364h-123z" />
    <glyph glyph-name="fraction" unicode="&#x2044;" horiz-adv-x="420" 
d="M709 1400l-883 -1400h-115l883 1400h115z" />
    <glyph glyph-name="uni2070" unicode="&#x2070;" horiz-adv-x="848" 
d="M424 1408q138 0 230 -106.5t92 -285.5q0 -178 -92 -284.5t-230 -106.5t-230 106.5t-92 284.5q0 179 92 285.5t230 106.5zM424 1317q-96 0 -160 -80.5t-64 -220.5q0 -139 64 -219.5t160 -80.5q97 0 160.5 80t63.5 220t-63.5 220.5t-160.5 80.5z" />
    <glyph glyph-name="uni2071" unicode="&#x2071;" horiz-adv-x="360" 
d="M227 1287v-653h-94v653h94zM180 1573q27 0 45.5 -18.5t18.5 -45.5t-18.5 -45t-45.5 -18t-45.5 18t-18.5 45t18.5 45.5t45.5 18.5z" />
    <glyph glyph-name="uni2074" unicode="&#x2074;" horiz-adv-x="670" 
d="M501 1095v-217h128v-87h-128v-157h-95v157h-365v69l274 538h104l-266 -520h253v217h95z" />
    <glyph glyph-name="uni2075" unicode="&#x2075;" horiz-adv-x="691" 
d="M563 1399v-87h-341l-7 -217h103q135 0 208 -61.5t73 -162.5q0 -112 -76 -179t-194 -67q-165 0 -263 111l57 63q81 -87 205 -87q81 0 127 41.5t46 110.5q0 67 -50 107t-153 40h-170l12 388h423z" />
    <glyph glyph-name="uni2076" unicode="&#x2076;" horiz-adv-x="686" 
d="M457 1399l-194 -292q40 17 91 17q117 0 191.5 -70.5t74.5 -176.5q0 -109 -79 -180.5t-200 -71.5q-120 0 -200 71.5t-80 178.5q0 79 56 167l226 357h114zM341 1044q-79 0 -130 -47.5t-51 -120.5q0 -72 51 -119.5t130 -47.5q78 0 129 47t51 120t-51 120.5t-129 47.5z" />
    <glyph glyph-name="uni2077" unicode="&#x2077;" horiz-adv-x="645" 
d="M594 1399v-74l-344 -691h-111l343 676h-421v89h533z" />
    <glyph glyph-name="uni2078" unicode="&#x2078;" horiz-adv-x="753" 
d="M377 1408q115 0 192.5 -55.5t77.5 -151.5q0 -130 -141 -180q72 -22 116 -68t44 -116q0 -99 -82.5 -155.5t-206.5 -56.5q-125 0 -207.5 56.5t-82.5 155.5q0 70 44 116t116 68q-141 50 -141 180q0 96 77.5 151.5t193.5 55.5zM377 983q-81 0 -134.5 -36.5t-53.5 -100.5
q0 -66 53.5 -103t134.5 -37q80 0 133.5 37t53.5 103q0 64 -53.5 100.5t-133.5 36.5zM377 1325q-73 0 -121.5 -35t-48.5 -97q0 -63 48.5 -98t121.5 -35t121.5 35t48.5 98q0 62 -48.5 97t-121.5 35z" />
    <glyph glyph-name="uni2079" unicode="&#x2079;" horiz-adv-x="686" 
d="M230 634l192 291q-42 -16 -89 -16q-117 0 -191.5 70.5t-74.5 176.5q0 109 79.5 180.5t199.5 71.5q121 0 200.5 -71.5t79.5 -178.5q0 -80 -56 -168l-226 -356h-114zM346 989q78 0 129 47.5t52 120.5q0 72 -51 119.5t-130 47.5q-78 0 -129 -47t-51 -120t51 -120.5
t129 -47.5z" />
    <glyph glyph-name="uni207F" unicode="&#x207f;" horiz-adv-x="850" 
d="M456 1298q120 0 194 -71t74 -190v-403h-95v374q0 94 -51.5 147.5t-146.5 53.5q-86 0 -145 -56.5t-59 -148.5v-370h-94v653h92v-125q33 68 94 102t137 34z" />
    <glyph glyph-name="uni2080" unicode="&#x2080;" horiz-adv-x="848" 
d="M424 411q138 0 230 -106.5t92 -285.5q0 -178 -92 -284.5t-230 -106.5t-230 106.5t-92 284.5q0 179 92 285.5t230 106.5zM424 320q-96 0 -160 -80.5t-64 -220.5q0 -139 64 -219.5t160 -80.5q97 0 160.5 80t63.5 220t-63.5 220.5t-160.5 80.5z" />
    <glyph glyph-name="uni2081" unicode="&#x2081;" horiz-adv-x="541" 
d="M378 410v-773h-95v641l-232 -95v94z" />
    <glyph glyph-name="uni2082" unicode="&#x2082;" horiz-adv-x="657" 
d="M128 223l-62 59q90 129 246 129q115 0 181 -65.5t66 -168.5q0 -115 -110 -225l-224 -227h361v-88h-496v74l292 295q80 80 80 164q0 65 -42.5 107.5t-115.5 42.5q-106 0 -176 -97z" />
    <glyph glyph-name="uni2083" unicode="&#x2083;" horiz-adv-x="658" 
d="M293 411q115 0 188 -57.5t73 -149.5q0 -66 -35.5 -112.5t-97.5 -68.5q69 -21 109 -68t40 -113q0 -103 -79 -158.5t-192 -55.5q-155 0 -248 98l55 63q77 -75 189 -75q76 0 126.5 35t50.5 101q0 60 -52 95.5t-129 35.5h-103v84h103q72 0 118.5 35t46.5 97q0 57 -46.5 92.5
t-120.5 35.5q-109 0 -177 -84l-58 60q89 110 239 110z" />
    <glyph glyph-name="uni2084" unicode="&#x2084;" horiz-adv-x="670" 
d="M501 98v-217h128v-87h-128v-157h-95v157h-365v69l274 538h104l-266 -520h253v217h95z" />
    <glyph glyph-name="uni2085" unicode="&#x2085;" horiz-adv-x="691" 
d="M563 402v-87h-341l-7 -217h103q135 0 208 -61.5t73 -162.5q0 -112 -76 -179t-194 -67q-165 0 -263 111l57 63q81 -87 205 -87q81 0 127 41.5t46 110.5q0 67 -50 107t-153 40h-170l12 388h423z" />
    <glyph glyph-name="uni2086" unicode="&#x2086;" horiz-adv-x="686" 
d="M457 402l-194 -292q40 17 91 17q117 0 191.5 -70.5t74.5 -176.5q0 -109 -79 -180.5t-200 -71.5q-120 0 -200 71.5t-80 178.5q0 79 56 167l226 357h114zM341 47q-79 0 -130 -47.5t-51 -120.5q0 -72 51 -119.5t130 -47.5q78 0 129 47t51 120t-51 120.5t-129 47.5z" />
    <glyph glyph-name="uni2087" unicode="&#x2087;" horiz-adv-x="645" 
d="M594 402v-74l-344 -691h-111l343 676h-421v89h533z" />
    <glyph glyph-name="uni2088" unicode="&#x2088;" horiz-adv-x="753" 
d="M377 411q115 0 192.5 -55.5t77.5 -151.5q0 -130 -141 -180q72 -22 116 -68t44 -116q0 -99 -82.5 -155.5t-206.5 -56.5q-125 0 -207.5 56.5t-82.5 155.5q0 70 44 116t116 68q-141 50 -141 180q0 96 77.5 151.5t193.5 55.5zM377 -14q-81 0 -134.5 -36.5t-53.5 -100.5
q0 -66 53.5 -103t134.5 -37q80 0 133.5 37t53.5 103q0 64 -53.5 100.5t-133.5 36.5zM377 328q-73 0 -121.5 -35t-48.5 -97q0 -63 48.5 -98t121.5 -35t121.5 35t48.5 98q0 62 -48.5 97t-121.5 35z" />
    <glyph glyph-name="uni2089" unicode="&#x2089;" horiz-adv-x="686" 
d="M230 -363l192 291q-42 -16 -89 -16q-117 0 -191.5 70.5t-74.5 176.5q0 109 79.5 180.5t199.5 71.5q121 0 200.5 -71.5t79.5 -178.5q0 -80 -56 -168l-226 -356h-114zM346 -8q78 0 129 47.5t52 120.5q0 72 -51 119.5t-130 47.5q-78 0 -129 -47t-51 -120t51 -120.5
t129 -47.5z" />
    <glyph glyph-name="Euro" unicode="&#x20ac;" horiz-adv-x="1400" 
d="M1046 590v-95h-673q43 -189 164 -295t304 -106q134 0 236 59t166 163l75 -78q-77 -121 -198 -187t-279 -66q-234 0 -388 136.5t-202 373.5h-172v95h158q-5 58 -5 110q0 50 5 110h-158v95h172q48 237 202 373.5t388 136.5q158 0 280.5 -65.5t199.5 -183.5l-80 -82
q-63 104 -164.5 163t-236.5 59q-183 0 -303.5 -106t-163.5 -295h673v-95h-688q-6 -53 -6 -110q0 -58 6 -110h688z" />
    <glyph glyph-name="uni20BA" unicode="&#x20ba;" horiz-adv-x="1400" 
d="M995 788v-101l-535 -254v-321h259q153 0 262.5 70t198.5 230l101 -56q-107 -191 -242 -273.5t-329 -82.5h-367v378l-201 -95v101l201 95v218l-201 -95v101l201 95v602h117v-547l535 254v-101l-535 -254v-218z" />
    <glyph glyph-name="uni2100" unicode="&#x2100;" horiz-adv-x="1856" 
d="M470 1416q132 0 208 -67.5t76 -203.5v-393h-93v100q-100 -111 -247 -111q-106 0 -169 54.5t-63 142.5t71 139t200 51h206v8q0 196 -199 196q-114 0 -204 -75l-38 73q108 86 252 86zM435 819q131 0 225 110v132h-193q-93 0 -139.5 -33.5t-46.5 -87.5q0 -52 41.5 -86.5
t112.5 -34.5zM1478 1400l-883 -1400h-115l883 1400h115zM1426 660q153 0 248 -109l-67 -59q-75 80 -183 80q-101 0 -169.5 -70.5t-68.5 -178.5q0 -109 68 -179t170 -70q108 0 184 79l66 -59q-95 -109 -248 -109q-147 0 -242 96t-95 242q0 145 95 241t242 96z" />
    <glyph glyph-name="uni2101" unicode="&#x2101;" horiz-adv-x="1856" 
d="M473 1416q132 0 208 -67.5t76 -203.5v-393h-93v100q-100 -111 -247 -111q-106 0 -169 54.5t-63 142.5t71 139t200 51h206v8q0 196 -199 196q-114 0 -204 -75l-38 73q108 86 252 86zM438 819q131 0 225 110v132h-193q-93 0 -139.5 -33.5t-46.5 -87.5q0 -52 41.5 -86.5
t112.5 -34.5zM1480 1400l-883 -1400h-115l883 1400h115zM1650 590l-35 -74q-41 26 -101.5 45t-121.5 19q-74 0 -118 -29.5t-44 -80.5q0 -83 146 -99l78 -9q213 -25 213 -177q0 -94 -77 -147t-206 -53q-164 0 -273 80l40 72q96 -71 234 -71q86 0 136 28.5t50 83.5
q0 86 -148 102l-75 8q-216 23 -216 178q0 90 70.5 142t187.5 52q144 0 260 -70z" />
    <glyph glyph-name="afii61248" unicode="&#x2105;" horiz-adv-x="1856" 
d="M485 1416q153 0 248 -109l-67 -59q-75 80 -183 80q-101 0 -169.5 -70.5t-68.5 -178.5q0 -109 68 -179t170 -70q108 0 184 79l66 -59q-95 -109 -248 -109q-147 0 -242 96t-95 242q0 145 95 241t242 96zM1421 1400l-883 -1400h-115l883 1400h115zM1368 660q146 0 243.5 -96
t97.5 -241t-97.5 -241.5t-243.5 -96.5t-243 96.5t-97 241.5t97 241t243 96zM1368 572q-104 0 -173.5 -71t-69.5 -178q0 -108 69.5 -178.5t173.5 -70.5q105 0 175 70.5t70 178.5q0 107 -70 178t-175 71z" />
    <glyph glyph-name="uni2106" unicode="&#x2106;" horiz-adv-x="1856" 
d="M482 1416q153 0 248 -109l-67 -59q-75 80 -183 80q-101 0 -169.5 -70.5t-68.5 -178.5q0 -109 68 -179t170 -70q108 0 184 79l66 -59q-95 -109 -248 -109q-147 0 -242 96t-95 242q0 145 95 241t242 96zM1418 1400l-883 -1400h-115l883 1400h115zM1711 649v-382
q0 -134 -83.5 -208t-212.5 -74q-128 0 -211.5 74t-83.5 208v382h94v-374q0 -96 55 -148.5t146 -52.5q92 0 147 52.5t55 148.5v374h94z" />
    <glyph glyph-name="afii61289" unicode="&#x2113;" horiz-adv-x="1081" 
d="M198 385l-42 98q78 32 167 81l1 529q1 160 80 261t209 101q125 0 203 -82t78 -213q0 -190 -123.5 -356t-333.5 -296v-184q0 -117 52.5 -175t144.5 -58q115 0 206 76l46 -90q-112 -93 -261 -93q-144 0 -223 85t-79 252v123q-65 -33 -125 -59zM438 1093l-1 -458
q160 110 250 244t90 281q0 87 -44 138t-120 51q-78 0 -126.5 -69.5t-48.5 -186.5z" />
    <glyph glyph-name="afii61352" unicode="&#x2116;" horiz-adv-x="2413" 
d="M2316 575v-103h-650v103h650zM1991 1412q145 0 241.5 -96t96.5 -240q0 -143 -96.5 -238.5t-241.5 -95.5t-241 95.5t-96 238.5q0 144 96 240t241 96zM1990 1324q-103 0 -172.5 -70.5t-69.5 -177.5t69.5 -177t172.5 -70q105 0 174.5 70t69.5 177q0 108 -69.5 178t-174.5 70
zM1359 1400v-1400h-110l-917 1190l-1 -1190h-122v1400h110l918 -1190v1190h122z" />
    <glyph glyph-name="uni2117" unicode="&#x2117;" horiz-adv-x="1898" 
d="M949 1500q162 0 310 -63t255 -169.5t170.5 -253.5t63.5 -308q0 -162 -63.5 -309t-170.5 -254t-255 -170t-310 -63t-310 63t-255 170t-170 254t-63 309q0 161 63 308t170 253.5t255 169.5t310 63zM949 1400q-141 0 -270 -55t-221.5 -147.5t-147.5 -221.5t-55 -270
q0 -142 55 -270.5t147.5 -221.5t221.5 -148t270 -55q142 0 270.5 55t221.5 148t148 221.5t55 270.5q0 141 -55 270t-148 221.5t-222 147.5t-270 55zM678 1121h334q152 0 237.5 -68.5t85.5 -189.5q0 -119 -85.5 -186.5t-237.5 -67.5h-232v-328h-102v840zM1010 1028h-230v-328
h230q104 0 162 42t58 121q0 80 -57.5 122.5t-162.5 42.5z" />
    <glyph glyph-name="uni2120" unicode="&#x2120;" horiz-adv-x="1404" 
d="M576 1351l-37 -69q-90 50 -184 50q-64 0 -104.5 -23t-40.5 -64q0 -67 141 -81l54 -5q90 -9 140 -45.5t50 -100.5q0 -87 -70.5 -131t-177.5 -44q-69 0 -133.5 18t-108.5 47l41 67q91 -56 202 -56q69 0 113 22t44 66q0 38 -35.5 57t-108.5 25l-56 5q-90 8 -138 46t-48 103
q0 77 66 123t168 46q123 0 223 -56zM1320 847h-83v441l-177 -380h-85l-178 380v-441h-83v553h117l187 -397l186 397h116v-553z" />
    <glyph glyph-name="trademark" unicode="&#x2122;" horiz-adv-x="1348" 
d="M1264 848h-83v441l-177 -380h-85l-178 380v-441h-83v553h117l187 -398l186 398h116v-553zM358 848h-82v476h-192v76h466v-76h-192v-476z" />
    <glyph glyph-name="Omega" unicode="&#x2126;" horiz-adv-x="1718" 
d="M84 116h385q-151 84 -239 235t-88 342q0 208 94 374t257.5 257.5t365.5 91.5t365.5 -91.5t257.5 -257.5t94 -374q0 -191 -88 -342t-239 -235h385v-116h-588v99q182 57 292 214t110 375q0 179 -78 319t-212 215.5t-299 75.5t-299 -75.5t-212 -215.5t-78 -319
q0 -218 110.5 -374.5t291.5 -214.5v-99h-588v116z" />
    <glyph glyph-name="estimated" unicode="&#x212e;" horiz-adv-x="2000" 
d="M438 677v-353q0 -76 21.5 -129.5t76.5 -95.5q198 -153 464 -153q196 0 360.5 85.5t264.5 238.5l37 -28q-107 -162 -281 -252t-381 -90q-163 0 -308.5 58t-252.5 161t-170 254t-63 327t63 327t170 254t252.5 161t308.5 58t308.5 -58t252.5 -161t170 -254t63 -327v-23
h-1356zM438 723h1132v346q0 75 -21.5 129t-74.5 96q-200 160 -474 160q-266 0 -464 -153q-55 -42 -76.5 -95.5t-21.5 -129.5v-353z" />
    <glyph glyph-name="uni214D" unicode="&#x214d;" horiz-adv-x="1856" 
d="M517 1400l293 -729h-101l-74 190h-351l-74 -190h-99l293 729h113zM1721 660l-41 -78q-104 68 -228 68q-80 0 -130.5 -32.5t-50.5 -89.5q0 -93 178 -114l69 -8q227 -29 227 -190q0 -75 -42.5 -127t-108 -74.5t-148.5 -22.5q-86 0 -163 23.5t-131 61.5l46 77
q114 -76 249 -76q87 0 141.5 31.5t54.5 93.5q0 52 -43 78.5t-133 36.5l-73 8q-225 25 -225 194q0 99 78.5 157.5t200.5 58.5q153 0 273 -76zM460 1314l-143 -367h285zM1498 1400l-883 -1400h-115l883 1400h115z" />
    <glyph glyph-name="uni2150" unicode="&#x2150;" horiz-adv-x="1654" 
d="M1271 1400l-883 -1400h-115l883 1400h115zM1603 765v-74l-344 -691h-111l343 676h-421v89h533zM378 1407v-773h-95v641l-232 -95v94z" />
    <glyph glyph-name="uni2151" unicode="&#x2151;" horiz-adv-x="1669" 
d="M1271 1400l-883 -1400h-115l883 1400h115zM1213 0l192 291q-42 -16 -89 -16q-117 0 -191.5 70.5t-74.5 176.5q0 109 79.5 180.5t199.5 71.5q121 0 200.5 -71.5t79.5 -178.5q0 -80 -56 -168l-226 -356h-114zM1329 355q78 0 129 47.5t52 120.5q0 72 -51 119.5t-130 47.5
q-78 0 -129 -47t-51 -120t51 -120.5t129 -47.5zM378 1407v-773h-95v641l-232 -95v94z" />
    <glyph glyph-name="uni2152" unicode="&#x2152;" horiz-adv-x="2392" 
d="M1271 1400l-883 -1400h-115l883 1400h115zM1381 773v-773h-95v641l-232 -95v94zM1968 774q138 0 230 -106.5t92 -285.5q0 -178 -92 -284.5t-230 -106.5t-230 106.5t-92 284.5q0 179 92 285.5t230 106.5zM1968 683q-96 0 -160 -80.5t-64 -220.5q0 -139 64 -219.5
t160 -80.5q97 0 160.5 80t63.5 220t-63.5 220.5t-160.5 80.5zM378 1407v-773h-95v641l-232 -95v94z" />
    <glyph glyph-name="onethird" unicode="&#x2153;" horiz-adv-x="1641" 
d="M1271 1400l-883 -1400h-115l883 1400h115zM1276 774q115 0 188 -57.5t73 -149.5q0 -66 -35.5 -112.5t-97.5 -68.5q69 -21 109 -68t40 -113q0 -103 -79 -158.5t-192 -55.5q-155 0 -248 98l55 63q77 -75 189 -75q76 0 126.5 35t50.5 101q0 60 -52 95.5t-129 35.5h-103v84
h103q72 0 118.5 35t46.5 97q0 57 -46.5 92.5t-120.5 35.5q-109 0 -177 -84l-58 60q89 110 239 110zM378 1407v-773h-95v641l-232 -95v94z" />
    <glyph glyph-name="twothirds" unicode="&#x2154;" horiz-adv-x="1765" 
d="M1396 1400l-883 -1400h-115l883 1400h115zM1400 774q115 0 188 -57.5t73 -149.5q0 -66 -35.5 -112.5t-97.5 -68.5q69 -21 109 -68t40 -113q0 -103 -79 -158.5t-192 -55.5q-155 0 -248 98l55 63q77 -75 189 -75q76 0 126.5 35t50.5 101q0 60 -52 95.5t-129 35.5h-103v84
h103q72 0 118.5 35t46.5 97q0 57 -46.5 92.5t-120.5 35.5q-109 0 -177 -84l-58 60q89 110 239 110zM128 1220l-62 59q90 129 246 129q115 0 181 -65.5t66 -168.5q0 -115 -110 -225l-224 -227h361v-88h-496v74l292 295q80 80 80 164q0 65 -42.5 107.5t-115.5 42.5
q-106 0 -176 -97z" />
    <glyph glyph-name="uni2155" unicode="&#x2155;" horiz-adv-x="1673" 
d="M1271 1400l-883 -1400h-115l883 1400h115zM1546 765v-87h-341l-7 -217h103q135 0 208 -61.5t73 -162.5q0 -112 -76 -179t-194 -67q-165 0 -263 111l57 63q81 -87 205 -87q81 0 127 41.5t46 110.5q0 67 -50 107t-153 40h-170l12 388h423zM378 1407v-773h-95v641l-232 -95
v94z" />
    <glyph glyph-name="uni2156" unicode="&#x2156;" horiz-adv-x="1798" 
d="M1396 1400l-883 -1400h-115l883 1400h115zM1670 765v-87h-341l-7 -217h103q135 0 208 -61.5t73 -162.5q0 -112 -76 -179t-194 -67q-165 0 -263 111l57 63q81 -87 205 -87q81 0 127 41.5t46 110.5q0 67 -50 107t-153 40h-170l12 388h423zM128 1220l-62 59q90 129 246 129
q115 0 181 -65.5t66 -168.5q0 -115 -110 -225l-224 -227h361v-88h-496v74l292 295q80 80 80 164q0 65 -42.5 107.5t-115.5 42.5q-106 0 -176 -97z" />
    <glyph glyph-name="uni2157" unicode="&#x2157;" horiz-adv-x="1769" 
d="M1367 1400l-883 -1400h-115l883 1400h115zM1641 765v-87h-341l-7 -217h103q135 0 208 -61.5t73 -162.5q0 -112 -76 -179t-194 -67q-165 0 -263 111l57 63q81 -87 205 -87q81 0 127 41.5t46 110.5q0 67 -50 107t-153 40h-170l12 388h423zM293 1408q115 0 188 -57.5
t73 -149.5q0 -66 -35.5 -112.5t-97.5 -68.5q69 -21 109 -68t40 -113q0 -103 -79 -158.5t-192 -55.5q-155 0 -248 98l55 63q77 -75 189 -75q76 0 126.5 35t50.5 101q0 60 -52 95.5t-129 35.5h-103v84h103q72 0 118.5 35t46.5 97q0 57 -46.5 92.5t-120.5 35.5q-109 0 -177 -84
l-58 60q89 110 239 110z" />
    <glyph glyph-name="uni2158" unicode="&#x2158;" horiz-adv-x="1781" 
d="M1379 1400l-883 -1400h-115l883 1400h115zM1653 765v-87h-341l-7 -217h103q135 0 208 -61.5t73 -162.5q0 -112 -76 -179t-194 -67q-165 0 -263 111l57 63q81 -87 205 -87q81 0 127 41.5t46 110.5q0 67 -50 107t-153 40h-170l12 388h423zM501 1095v-217h128v-87h-128v-157
h-95v157h-365v69l274 538h104l-266 -520h253v217h95z" />
    <glyph glyph-name="uni2159" unicode="&#x2159;" horiz-adv-x="1588" 
d="M1271 1400l-883 -1400h-115l883 1400h115zM1359 765l-194 -292q40 17 91 17q117 0 191.5 -70.5t74.5 -176.5q0 -109 -79 -180.5t-200 -71.5q-120 0 -200 71.5t-80 178.5q0 79 56 167l226 357h114zM1243 410q-79 0 -130 -47.5t-51 -120.5q0 -72 51 -119.5t130 -47.5
q78 0 129 47t51 120t-51 120.5t-129 47.5zM378 1407v-773h-95v641l-232 -95v94z" />
    <glyph glyph-name="uni215A" unicode="&#x215a;" horiz-adv-x="1711" 
d="M1395 1400l-883 -1400h-115l883 1400h115zM1482 765l-194 -292q40 17 91 17q117 0 191.5 -70.5t74.5 -176.5q0 -109 -79 -180.5t-200 -71.5q-120 0 -200 71.5t-80 178.5q0 79 56 167l226 357h114zM1366 410q-79 0 -130 -47.5t-51 -120.5q0 -72 51 -119.5t130 -47.5
q78 0 129 47t51 120t-51 120.5t-129 47.5zM563 1399v-87h-341l-7 -217h103q135 0 208 -61.5t73 -162.5q0 -112 -76 -179t-194 -67q-165 0 -263 111l57 63q81 -87 205 -87q81 0 127 41.5t46 110.5q0 67 -50 107t-153 40h-170l12 388h423z" />
    <glyph glyph-name="oneeighth" unicode="&#x215b;" horiz-adv-x="1710" 
d="M1271 1400l-883 -1400h-115l883 1400h115zM1334 774q115 0 192.5 -55.5t77.5 -151.5q0 -130 -141 -180q72 -22 116 -68t44 -116q0 -99 -82.5 -155.5t-206.5 -56.5q-125 0 -207.5 56.5t-82.5 155.5q0 70 44 116t116 68q-141 50 -141 180q0 96 77.5 151.5t193.5 55.5z
M1334 349q-81 0 -134.5 -36.5t-53.5 -100.5q0 -66 53.5 -103t134.5 -37q80 0 133.5 37t53.5 103q0 64 -53.5 100.5t-133.5 36.5zM1334 691q-73 0 -121.5 -35t-48.5 -97q0 -63 48.5 -98t121.5 -35t121.5 35t48.5 98q0 62 -48.5 97t-121.5 35zM378 1407v-773h-95v641l-232 -95
v94z" />
    <glyph glyph-name="threeeighths" unicode="&#x215c;" horiz-adv-x="1805" 
d="M1367 1400l-883 -1400h-115l883 1400h115zM1429 774q115 0 192.5 -55.5t77.5 -151.5q0 -130 -141 -180q72 -22 116 -68t44 -116q0 -99 -82.5 -155.5t-206.5 -56.5q-125 0 -207.5 56.5t-82.5 155.5q0 70 44 116t116 68q-141 50 -141 180q0 96 77.5 151.5t193.5 55.5z
M1429 349q-81 0 -134.5 -36.5t-53.5 -100.5q0 -66 53.5 -103t134.5 -37q80 0 133.5 37t53.5 103q0 64 -53.5 100.5t-133.5 36.5zM1429 691q-73 0 -121.5 -35t-48.5 -97q0 -63 48.5 -98t121.5 -35t121.5 35t48.5 98q0 62 -48.5 97t-121.5 35zM293 1408q115 0 188 -57.5
t73 -149.5q0 -66 -35.5 -112.5t-97.5 -68.5q69 -21 109 -68t40 -113q0 -103 -79 -158.5t-192 -55.5q-155 0 -248 98l55 63q77 -75 189 -75q76 0 126.5 35t50.5 101q0 60 -52 95.5t-129 35.5h-103v84h103q72 0 118.5 35t46.5 97q0 57 -46.5 92.5t-120.5 35.5q-109 0 -177 -84
l-58 60q89 110 239 110z" />
    <glyph glyph-name="fiveeighths" unicode="&#x215d;" horiz-adv-x="1833" 
d="M1395 1400l-883 -1400h-115l883 1400h115zM1457 774q115 0 192.5 -55.5t77.5 -151.5q0 -130 -141 -180q72 -22 116 -68t44 -116q0 -99 -82.5 -155.5t-206.5 -56.5q-125 0 -207.5 56.5t-82.5 155.5q0 70 44 116t116 68q-141 50 -141 180q0 96 77.5 151.5t193.5 55.5z
M1457 349q-81 0 -134.5 -36.5t-53.5 -100.5q0 -66 53.5 -103t134.5 -37q80 0 133.5 37t53.5 103q0 64 -53.5 100.5t-133.5 36.5zM1457 691q-73 0 -121.5 -35t-48.5 -97q0 -63 48.5 -98t121.5 -35t121.5 35t48.5 98q0 62 -48.5 97t-121.5 35zM563 1399v-87h-341l-7 -217h103
q135 0 208 -61.5t73 -162.5q0 -112 -76 -179t-194 -67q-165 0 -263 111l57 63q81 -87 205 -87q81 0 127 41.5t46 110.5q0 67 -50 107t-153 40h-170l12 388h423z" />
    <glyph glyph-name="seveneighths" unicode="&#x215e;" horiz-adv-x="1678" 
d="M1239 1400l-883 -1400h-115l883 1400h115zM1301 774q115 0 192.5 -55.5t77.5 -151.5q0 -130 -141 -180q72 -22 116 -68t44 -116q0 -99 -82.5 -155.5t-206.5 -56.5q-125 0 -207.5 56.5t-82.5 155.5q0 70 44 116t116 68q-141 50 -141 180q0 96 77.5 151.5t193.5 55.5z
M1301 349q-81 0 -134.5 -36.5t-53.5 -100.5q0 -66 53.5 -103t134.5 -37q80 0 133.5 37t53.5 103q0 64 -53.5 100.5t-133.5 36.5zM1301 691q-73 0 -121.5 -35t-48.5 -97q0 -63 48.5 -98t121.5 -35t121.5 35t48.5 98q0 62 -48.5 97t-121.5 35zM594 1399v-74l-344 -691h-111
l343 676h-421v89h533z" />
    <glyph glyph-name="uni215F" unicode="&#x215f;" horiz-adv-x="983" 
d="M1271 1400l-883 -1400h-115l883 1400h115zM378 1407v-773h-95v641l-232 -95v94z" />
    <glyph glyph-name="uni2189" unicode="&#x2189;" horiz-adv-x="1876" 
d="M1507 1400l-883 -1400h-115l883 1400h115zM1512 774q115 0 188 -57.5t73 -149.5q0 -66 -35.5 -112.5t-97.5 -68.5q69 -21 109 -68t40 -113q0 -103 -79 -158.5t-192 -55.5q-155 0 -248 98l55 63q77 -75 189 -75q76 0 126.5 35t50.5 101q0 60 -52 95.5t-129 35.5h-103v84
h103q72 0 118.5 35t46.5 97q0 57 -46.5 92.5t-120.5 35.5q-109 0 -177 -84l-58 60q89 110 239 110zM424 1408q138 0 230 -106.5t92 -285.5q0 -178 -92 -284.5t-230 -106.5t-230 106.5t-92 284.5q0 179 92 285.5t230 106.5zM424 1317q-96 0 -160 -80.5t-64 -220.5
q0 -139 64 -219.5t160 -80.5q97 0 160.5 80t63.5 220t-63.5 220.5t-160.5 80.5z" />
    <glyph glyph-name="arrowleft" unicode="&#x2190;" horiz-adv-x="2000" 
d="M1762 595h-1192q-79 0 -148 4q57 -47 144 -134l356 -356l-73 -73l-610 610l610 611l73 -73l-356 -356q-93 -93 -144 -134q69 4 148 4h1192v-103z" />
    <glyph glyph-name="arrowup" unicode="&#x2191;" horiz-adv-x="2000" 
d="M949 -58v1192q0 79 4 148q-47 -57 -134 -144l-356 -356l-73 73l610 610l611 -610l-73 -73l-356 356q-87 87 -134 144q4 -69 4 -148v-1192h-103z" />
    <glyph glyph-name="arrowright" unicode="&#x2192;" horiz-adv-x="2000" 
d="M239 698h1191q80 0 149 -5q-39 31 -144 134l-357 356l73 73l611 -610l-611 -611l-73 73l357 357q92 92 144 133q-69 -4 -149 -4h-1191v104z" />
    <glyph glyph-name="arrowdown" unicode="&#x2193;" horiz-adv-x="2000" 
d="M1052 1463v-1192q0 -79 -4 -148q45 56 133 144l356 357l74 -74l-611 -610l-611 610l74 74l356 -357q88 -88 133 -144q-4 69 -4 148v1192h104z" />
    <glyph glyph-name="uni2196" unicode="&#x2196;" horiz-adv-x="2000" 
d="M1483 78l-842 843q-80 82 -102 107q7 -65 7 -196v-504h-103v864h864v-104h-504q-122 0 -197 8l108 -102l843 -843z" />
    <glyph glyph-name="uni2197" unicode="&#x2197;" horiz-adv-x="2000" 
d="M425 144l843 843q42 43 107 102q-74 -8 -196 -8h-504v104l864 -1v-863h-104v504q0 122 8 196q-46 -51 -102 -107l-843 -843z" />
    <glyph glyph-name="uni2198" unicode="&#x2198;" horiz-adv-x="2000" 
d="M499 1221l842 -843q80 -82 102 -107q-7 65 -7 197v503h103v-863l-864 -1v104h504q131 0 197 -8q-62 56 -108 102l-843 843z" />
    <glyph glyph-name="uni2199" unicode="&#x2199;" horiz-adv-x="2000" 
d="M1558 1140l-843 -843q-76 -74 -107 -101q76 7 196 7h504v-104l-864 1v863h104v-504q0 -121 -8 -196q38 43 102 107l843 843z" />
    <glyph glyph-name="partialdiff" unicode="&#x2202;" horiz-adv-x="1181" 
d="M278 1357l51 92q135 -58 247 -135.5t191 -161.5t138.5 -181.5t94.5 -193.5t53 -199q10 -60 10 -101q0 -210 -140.5 -351t-349.5 -141q-208 0 -348 137t-140 341q0 205 134.5 342.5t334.5 137.5q104 0 193 -46t148 -129q-140 372 -617 589zM573 836q-159 0 -265 -105.5
t-106 -267.5q0 -161 106 -266t265 -105q160 0 266.5 105t106.5 266q0 162 -106.5 267.5t-266.5 105.5z" />
    <glyph glyph-name="uni2300" unicode="&#x2205;" horiz-adv-x="1414" 
d="M1131 1018l73 -74l-131 -131q103 -130 103 -293q0 -127 -63 -235t-171 -171t-235 -63q-166 0 -293 103l-132 -132l-73 74l131 131q-103 129 -103 293q0 127 63 235t171 171.5t236 63.5q164 0 292 -104zM340 520q0 -126 76 -224l515 514q-99 77 -224 77
q-152 0 -259.5 -107.5t-107.5 -259.5zM707 154q151 0 258.5 107.5t107.5 258.5q0 123 -76 223l-514 -514q99 -75 224 -75z" />
    <glyph glyph-name="uni2300" unicode="&#x2300;" horiz-adv-x="1414" 
d="M1131 1018l73 -74l-131 -131q103 -130 103 -293q0 -127 -63 -235t-171 -171t-235 -63q-166 0 -293 103l-132 -132l-73 74l131 131q-103 129 -103 293q0 127 63 235t171 171.5t236 63.5q164 0 292 -104zM340 520q0 -126 76 -224l515 514q-99 77 -224 77
q-152 0 -259.5 -107.5t-107.5 -259.5zM707 154q151 0 258.5 107.5t107.5 258.5q0 123 -76 223l-514 -514q99 -75 224 -75z" />
    <glyph glyph-name="Delta" unicode="&#x2206;" horiz-adv-x="1419" 
d="M784 1402l551 -1307v-95h-1251v95l551 1307h149zM710 1277l-489 -1161h976z" />
    <glyph glyph-name="product" unicode="&#x220f;" horiz-adv-x="1455" 
d="M1245 1400v-1665h-122v1549h-792v-1549h-122v1665h1036z" />
    <glyph glyph-name="summation" unicode="&#x2211;" horiz-adv-x="1317" 
d="M1189 1400v-116h-882l584 -671v-68l-587 -694h888v-116h-1066v95l636 746l-634 729v95h1061z" />
    <glyph glyph-name="minus" unicode="&#x2212;" horiz-adv-x="1200" 
d="M1026 578v-103h-852v103h852z" />
    <glyph glyph-name="uni2219" unicode="&#x2219;" horiz-adv-x="1200" 
d="M600 718q78 0 134.5 -56t56.5 -135t-56.5 -135t-134.5 -56q-80 0 -135.5 56t-55.5 135q0 80 55.5 135.5t135.5 55.5z" />
    <glyph glyph-name="radical" unicode="&#x221a;" horiz-adv-x="1222" 
d="M1182 1440l-587 -1705h-151l-410 1000h135l350 -856l538 1561h125z" />
    <glyph glyph-name="infinity" unicode="&#x221e;" horiz-adv-x="1608" 
d="M55 520q0 162 99.5 262t242.5 100q38 0 72 -8t70.5 -30.5t61 -40t67 -60t63.5 -65.5l73 -81l87 96.5t75 74.5t80 64t76 34.5t89 15.5q143 0 242.5 -100t99.5 -262t-99.5 -262t-242.5 -100q-45 0 -89 15.5t-76 34.5t-80 64t-75 74.5l-87 96.5l-87 -96.5t-75 -74.5t-80 -64
t-76 -34.5t-89 -15.5q-143 0 -242.5 100t-99.5 262zM1445 520q0 119 -67 188.5t-167 69.5q-72 0 -135.5 -52t-192.5 -196q-6 -7 -9 -10h1l-1 -1l85.5 -94t66.5 -67t66.5 -56.5t55 -27t63.5 -12.5q100 0 167 69.5t67 188.5zM164 520q0 -119 66.5 -188.5t166.5 -69.5
q78 0 164 76q45 39 172 181v1q-131 146 -178 187q-82 71 -158 71q-100 0 -166.5 -69.5t-66.5 -188.5z" />
    <glyph glyph-name="integral" unicode="&#x222b;" horiz-adv-x="680" 
d="M661 1403l-31 -103q-37 8 -72 8q-99 0 -144.5 -58.5t-45.5 -171.5v-1021q0 -157 -71.5 -247t-224.5 -90q-59 0 -110 12l30 103q38 -8 73 -8q190 0 190 230v1021q0 157 71.5 247t224.5 90q59 0 110 -12z" />
    <glyph glyph-name="congruent" unicode="&#x2245;" horiz-adv-x="1200" 
d="M1026 403v-104h-852v104h852zM1026 754v-103h-852v103h852zM973 1149l63 -72q-53 -59 -113 -87t-141 -28q-61 0 -113 14t-83.5 31.5t-78.5 31.5t-98 14q-54 0 -96 -21.5t-88 -67.5l-63 72q53 59 113 87t141 28q61 0 113.5 -14t84 -31.5t78 -31.5t97.5 -14q54 0 96 21.5
t88 67.5z" />
    <glyph glyph-name="approxequal" unicode="&#x2248;" horiz-adv-x="1200" 
d="M973 795l63 -72q-53 -59 -113 -87t-141 -28q-61 0 -113 14t-83.5 31.5t-78.5 31.5t-98 14q-54 0 -96 -21.5t-88 -67.5l-63 72q53 59 113 87t141 28q61 0 113.5 -14t84 -31.5t78 -31.5t97.5 -14q54 0 96 21.5t88 67.5zM973 447l63 -72q-53 -59 -113 -87t-141 -28
q-61 0 -113 14t-83.5 31.5t-78.5 31.5t-98 14q-54 0 -96 -21.5t-88 -67.5l-63 72q53 59 113 87t141 28q61 0 113.5 -14t84 -31.5t78 -31.5t97.5 -14q54 0 96 21.5t88 67.5z" />
    <glyph glyph-name="uni2259" unicode="&#x2259;" horiz-adv-x="1200" 
d="M1026 403v-104h-852v104h852zM1026 754v-103h-852v103h852zM923 938h-123l-200 205l-200 -205h-123l248 282h150z" />
    <glyph glyph-name="notequal" unicode="&#x2260;" horiz-adv-x="1200" 
d="M1026 403v-104h-483l-127 -261h-109l127 261h-260v104h311l121 248h-432v103h482l128 261h109l-128 -261h261v-103h-311l-121 -248h432z" />
    <glyph glyph-name="lessequal" unicode="&#x2264;" horiz-adv-x="1200" 
d="M986 1083v-121l-651 -278l651 -277v-121l-770 342v113zM216 72v104h770v-104h-770z" />
    <glyph glyph-name="greaterequal" unicode="&#x2265;" horiz-adv-x="1200" 
d="M215 962v121l770 -342v-113l-770 -342v121l651 277zM985 176v-104h-770v104h770z" />
    <glyph glyph-name="dotmath" unicode="&#x22c5;" horiz-adv-x="1200" 
d="M600 623q38 0 66.5 -28.5t28.5 -67.5q0 -38 -28.5 -67t-66.5 -29t-67 29t-29 67q0 39 29 67.5t67 28.5z" />
    <glyph glyph-name="uni2460" unicode="&#x2460;" horiz-adv-x="2050" 
d="M1025 1575q179 0 341.5 -69.5t280 -186.5t187 -278.5t69.5 -339.5t-69.5 -340t-187 -279.5t-280 -187t-341.5 -69.5t-341.5 69.5t-280 187t-187 279.5t-69.5 340t69.5 339.5t187 278.5t280 186.5t341.5 69.5zM1025 1469q-156 0 -298.5 -60.5t-245 -163.5t-163.5 -245
t-61 -299t61 -299.5t163.5 -245.5t245 -164t298.5 -61t298.5 61t245.5 164t164 245.5t61 299.5t-61 299t-164 245t-245.5 163.5t-298.5 60.5zM1129 1141v-847h-101v707l-279 -114v101z" />
    <glyph glyph-name="uni2461" unicode="&#x2461;" horiz-adv-x="2050" 
d="M1025 1575q179 0 341.5 -69.5t280 -186.5t187 -278.5t69.5 -339.5t-69.5 -340t-187 -279.5t-280 -187t-341.5 -69.5t-341.5 69.5t-280 187t-187 279.5t-69.5 340t69.5 339.5t187 278.5t280 186.5t341.5 69.5zM1025 1469q-156 0 -298.5 -60.5t-245 -163.5t-163.5 -245
t-61 -299t61 -299.5t163.5 -245.5t245 -164t298.5 -61t298.5 61t245.5 164t164 245.5t61 299.5t-61 299t-164 245t-245.5 163.5t-298.5 60.5zM815 938l-68 63q98 141 271 141q128 0 201.5 -72t73.5 -185q0 -71 -32.5 -129t-91.5 -117l-251 -251h403v-94h-549v79l326 324
q89 89 89 181q0 72 -47.5 119.5t-129.5 47.5q-119 0 -195 -107z" />
    <glyph glyph-name="uni2462" unicode="&#x2462;" horiz-adv-x="2050" 
d="M1025 1575q179 0 341.5 -69.5t280 -186.5t187 -278.5t69.5 -339.5t-69.5 -340t-187 -279.5t-280 -187t-341.5 -69.5t-341.5 69.5t-280 187t-187 279.5t-69.5 340t69.5 339.5t187 278.5t280 186.5t341.5 69.5zM1025 1469q-156 0 -298.5 -60.5t-245 -163.5t-163.5 -245
t-61 -299t61 -299.5t163.5 -245.5t245 -164t298.5 -61t298.5 61t245.5 164t164 245.5t61 299.5t-61 299t-164 245t-245.5 163.5t-298.5 60.5zM1009 1142q132 0 215 -63t83 -163q0 -75 -41.5 -126.5t-114.5 -73.5q80 -22 127 -73.5t47 -123.5q0 -77 -45 -131.5t-113 -79.5
t-151 -25q-174 0 -276 107l59 67q87 -84 213 -84q88 0 148 39.5t60 112.5q0 68 -59.5 108t-148.5 40h-118v89h118q84 0 137 38t53 108q0 64 -55 103.5t-142 39.5q-122 0 -199 -93l-63 65q98 119 266 119z" />
    <glyph glyph-name="uni2463" unicode="&#x2463;" horiz-adv-x="2050" 
d="M1025 1575q179 0 341.5 -69.5t280 -186.5t187 -278.5t69.5 -339.5t-69.5 -340t-187 -279.5t-280 -187t-341.5 -69.5t-341.5 69.5t-280 187t-187 279.5t-69.5 340t69.5 339.5t187 278.5t280 186.5t341.5 69.5zM1025 1469q-156 0 -298.5 -60.5t-245 -163.5t-163.5 -245
t-61 -299t61 -299.5t163.5 -245.5t245 -164t298.5 -61t298.5 61t245.5 164t164 245.5t61 299.5t-61 299t-164 245t-245.5 163.5t-298.5 60.5zM1191 798v-236h144v-95h-144v-173h-101v173h-408v73l305 592h112l-295 -570h286v236h101z" />
    <glyph glyph-name="uni2464" unicode="&#x2464;" horiz-adv-x="2050" 
d="M1025 1575q179 0 341.5 -69.5t280 -186.5t187 -278.5t69.5 -339.5t-69.5 -340t-187 -279.5t-280 -187t-341.5 -69.5t-341.5 69.5t-280 187t-187 279.5t-69.5 340t69.5 339.5t187 278.5t280 186.5t341.5 69.5zM1025 1469q-156 0 -298.5 -60.5t-245 -163.5t-163.5 -245
t-61 -299t61 -299.5t163.5 -245.5t245 -164t298.5 -61t298.5 61t245.5 164t164 245.5t61 299.5t-61 299t-164 245t-245.5 163.5t-298.5 60.5zM1287 1133v-94h-378l-10 -241h116q152 0 232.5 -67t80.5 -184q0 -119 -84 -191.5t-216 -72.5q-181 0 -290 122l55 73
q41 -47 103 -74t132 -27q90 0 142 45t52 118q0 168 -234 168h-181l12 425h468z" />
    <glyph glyph-name="uni2465" unicode="&#x2465;" horiz-adv-x="2050" 
d="M1025 1575q179 0 341.5 -69.5t280 -186.5t187 -278.5t69.5 -339.5t-69.5 -340t-187 -279.5t-280 -187t-341.5 -69.5t-341.5 69.5t-280 187t-187 279.5t-69.5 340t69.5 339.5t187 278.5t280 186.5t341.5 69.5zM1025 1469q-156 0 -298.5 -60.5t-245 -163.5t-163.5 -245
t-61 -299t61 -299.5t163.5 -245.5t245 -164t298.5 -61t298.5 61t245.5 164t164 245.5t61 299.5t-61 299t-164 245t-245.5 163.5t-298.5 60.5zM1145 1133l-212 -321q49 19 101 19q128 0 210.5 -77.5t82.5 -193.5q0 -119 -87 -198t-219 -79q-133 0 -221 78.5t-88 196.5
q0 88 60 181l251 394h122zM1021 744q-88 0 -145.5 -52.5t-57.5 -132.5t57.5 -132.5t145.5 -52.5q87 0 144 52.5t57 132.5t-57 132.5t-144 52.5z" />
    <glyph glyph-name="uni2466" unicode="&#x2466;" horiz-adv-x="2050" 
d="M1025 1575q179 0 341.5 -69.5t280 -186.5t187 -278.5t69.5 -339.5t-69.5 -340t-187 -279.5t-280 -187t-341.5 -69.5t-341.5 69.5t-280 187t-187 279.5t-69.5 340t69.5 339.5t187 278.5t280 186.5t341.5 69.5zM1025 1469q-156 0 -298.5 -60.5t-245 -163.5t-163.5 -245
t-61 -299t61 -299.5t163.5 -245.5t245 -164t298.5 -61t298.5 61t245.5 164t164 245.5t61 299.5t-61 299t-164 245t-245.5 163.5t-298.5 60.5zM1349 1133v-80l-382 -759h-120l382 744h-470v95h590z" />
    <glyph glyph-name="uni2467" unicode="&#x2467;" horiz-adv-x="2050" 
d="M1025 1575q179 0 341.5 -69.5t280 -186.5t187 -278.5t69.5 -339.5t-69.5 -340t-187 -279.5t-280 -187t-341.5 -69.5t-341.5 69.5t-280 187t-187 279.5t-69.5 340t69.5 339.5t187 278.5t280 186.5t341.5 69.5zM1025 1469q-156 0 -298.5 -60.5t-245 -163.5t-163.5 -245
t-61 -299t61 -299.5t163.5 -245.5t245 -164t298.5 -61t298.5 61t245.5 164t164 245.5t61 299.5t-61 299t-164 245t-245.5 163.5t-298.5 60.5zM1025 1142q128 0 213 -60t85 -165q0 -74 -43.5 -124.5t-115.5 -74.5q81 -24 130.5 -74.5t49.5 -127.5q0 -108 -91 -170.5
t-228 -62.5t-228 62.5t-91 170.5q0 77 49.5 128t130.5 74q-72 24 -115.5 74.5t-43.5 124.5q0 104 85.5 164.5t212.5 60.5zM1025 678q-90 0 -149.5 -40.5t-59.5 -111.5q0 -73 59.5 -113t149.5 -40t149.5 40t59.5 113q0 71 -59.5 111.5t-149.5 40.5zM1025 1052
q-83 0 -136.5 -37.5t-53.5 -106.5q0 -70 54 -109t136 -39q83 0 137 39t54 109q0 69 -54 106.5t-137 37.5z" />
    <glyph glyph-name="uni2468" unicode="&#x2468;" horiz-adv-x="2050" 
d="M1025 1575q179 0 341.5 -69.5t280 -186.5t187 -278.5t69.5 -339.5t-69.5 -340t-187 -279.5t-280 -187t-341.5 -69.5t-341.5 69.5t-280 187t-187 279.5t-69.5 340t69.5 339.5t187 278.5t280 186.5t341.5 69.5zM1025 1469q-156 0 -298.5 -60.5t-245 -163.5t-163.5 -245
t-61 -299t61 -299.5t163.5 -245.5t245 -164t298.5 -61t298.5 61t245.5 164t164 245.5t61 299.5t-61 299t-164 245t-245.5 163.5t-298.5 60.5zM914 294l211 319q-45 -18 -100 -18q-129 0 -211.5 77.5t-82.5 193.5q0 119 87.5 197.5t220.5 78.5q132 0 219.5 -77.5t87.5 -195.5
q0 -90 -59 -182l-251 -393h-122zM1039 683q87 0 144.5 52.5t57.5 131.5t-57.5 131.5t-144.5 52.5q-88 0 -145 -52t-57 -132t57 -132t145 -52z" />
    <glyph glyph-name="uni24EA" unicode="&#x24ea;" horiz-adv-x="2050" 
d="M1025 1575q179 0 341.5 -69.5t280 -186.5t187 -278.5t69.5 -339.5t-69.5 -340t-187 -279.5t-280 -187t-341.5 -69.5t-341.5 69.5t-280 187t-187 279.5t-69.5 340t69.5 339.5t187 278.5t280 186.5t341.5 69.5zM1025 1469q-156 0 -298.5 -60.5t-245 -163.5t-163.5 -245
t-61 -299t61 -299.5t163.5 -245.5t245 -164t298.5 -61t298.5 61t245.5 164t164 245.5t61 299.5t-61 299t-164 245t-245.5 163.5t-298.5 60.5zM1025 1142q156 0 260.5 -116.5t104.5 -312.5t-104.5 -313t-260.5 -117q-155 0 -259.5 117t-104.5 313t104 312.5t260 116.5z
M1025 1045q-111 0 -185 -89t-74 -243t74 -243t185 -89q112 0 186 89t74 243t-74 243t-186 89z" />
    <glyph glyph-name="uni24FF" unicode="&#x24ff;" horiz-adv-x="2050" 
d="M1025 1142q-156 0 -260 -116.5t-104 -312.5t104.5 -313t259.5 -117q156 0 260.5 117t104.5 313t-104.5 312.5t-260.5 116.5zM1025 1045q112 0 186 -89t74 -243t-74 -243t-186 -89q-111 0 -185 89t-74 243t74 243t185 89zM1025 1564q176 0 337 -68.5t277 -184
t184.5 -275.5t68.5 -335q0 -176 -68.5 -336t-184.5 -276t-277 -184.5t-337 -68.5t-337 68.5t-277 184.5t-184.5 276t-68.5 336q0 175 68.5 335t184.5 275.5t277 184t337 68.5z" />
    <glyph glyph-name="uni2715" unicode="&#x2573;" horiz-adv-x="2096" 
d="M1128 700l969 -968l-80 -81l-969 969l-969 -969l-80 81l969 968l-969 968l80 81l969 -968l969 968l80 -81z" />
    <glyph glyph-name="uni2715" unicode="&#x2715;" horiz-adv-x="2096" 
d="M1128 700l969 -968l-80 -81l-969 969l-969 -969l-80 81l969 968l-969 968l80 81l969 -968l969 968l80 -81z" />
    <glyph glyph-name="uni25AE" unicode="&#x258c;" horiz-adv-x="1800" 
d="M200 1400h700v-1400h-700v1400z" />
    <glyph glyph-name="uni25AE" unicode="&#x25ae;" horiz-adv-x="1800" 
d="M200 1400h700v-1400h-700v1400z" />
    <glyph glyph-name="filledbox" unicode="&#x25a0;" horiz-adv-x="1800" 
d="M200 1400h1400v-1400h-1400v1400z" />
    <glyph glyph-name="H22073" unicode="&#x25a1;" horiz-adv-x="1800" 
d="M200 1400h1400v-1400h-1400v1400zM306 1294v-1188h1188v1188h-1188z" />
    <glyph glyph-name="triagup" unicode="&#x25b2;" horiz-adv-x="1800" 
d="M900 1420l820 -1420h-1640z" />
    <glyph glyph-name="uni25B3" unicode="&#x25b3;" horiz-adv-x="1800" 
d="M900 1420l820 -1420h-1640zM900 1209l-637 -1103h1274z" />
    <glyph glyph-name="uni25B4" unicode="&#x25b4;" horiz-adv-x="1200" 
d="M601 914l310 -535h-621z" />
    <glyph glyph-name="uni25B8" unicode="&#x25b8;" horiz-adv-x="1200" 
d="M929 646l-536 -311v621z" />
    <glyph glyph-name="triagdn" unicode="&#x25bc;" horiz-adv-x="1800" 
d="M900 -20l-820 1420h1640z" />
    <glyph glyph-name="uni25BD" unicode="&#x25bd;" horiz-adv-x="1800" 
d="M900 -20l-820 1420h1640zM900 191l637 1103h-1274z" />
    <glyph glyph-name="uni25BE" unicode="&#x25be;" horiz-adv-x="1200" 
d="M599 378l-310 536h621z" />
    <glyph glyph-name="uni25C2" unicode="&#x25c2;" horiz-adv-x="1200" 
d="M271 646l536 310v-621z" />
    <glyph glyph-name="uni25C6" unicode="&#x25c6;" horiz-adv-x="1800" 
d="M900 1438l738 -738l-738 -738l-738 738z" />
    <glyph glyph-name="uni25C7" unicode="&#x25c7;" horiz-adv-x="1800" 
d="M900 1438l738 -738l-738 -738l-738 738zM900 1289l-589 -589l589 -589l589 589z" />
    <glyph glyph-name="lozenge" unicode="&#x25ca;" horiz-adv-x="1551" 
d="M1446 700l-605 -700h-132l-604 700l604 700h133zM1297 700l-524 596l-519 -595l524 -597z" />
    <glyph glyph-name="circle" unicode="&#x25cb;" horiz-adv-x="1800" 
d="M900 -39q-151 0 -287.5 58.5t-235.5 157.5t-157.5 236t-58.5 287t58.5 287t157.5 236t235.5 157.5t287.5 58.5q150 0 287 -58.5t236 -157.5t157.5 -236t58.5 -287t-58.5 -287t-157.5 -236t-236 -157.5t-287 -58.5zM900 67q129 0 246 50t202 135t135 202t50 246t-50 246
t-135 202t-202 135t-246 50t-246.5 -50t-202 -135t-134.5 -202t-50 -246t50 -246t134.5 -202t202 -135t246.5 -50z" />
    <glyph glyph-name="H18533" unicode="&#x25cf;" horiz-adv-x="1800" 
d="M900 -39q-151 0 -287.5 58.5t-235.5 157.5t-157.5 236t-58.5 287t58.5 287t157.5 236t235.5 157.5t287.5 58.5q150 0 287 -58.5t236 -157.5t157.5 -236t58.5 -287t-58.5 -287t-157.5 -236t-236 -157.5t-287 -58.5z" />
    <glyph glyph-name="uni25D0" unicode="&#x25d0;" horiz-adv-x="1800" 
d="M900 -39q-151 0 -287.5 58.5t-235.5 157.5t-157.5 236t-58.5 287t58.5 287t157.5 236t235.5 157.5t287.5 58.5q150 0 287 -58.5t236 -157.5t157.5 -236t58.5 -287t-58.5 -287t-157.5 -236t-236 -157.5t-287 -58.5zM900 1333v-1266q129 0 246 50t202 135t135 202t50 246
t-50 246t-135 202t-202 135t-246 50z" />
    <glyph glyph-name="uni25D6" unicode="&#x25d6;" horiz-adv-x="1800" 
d="M900 1439v-1478q-151 0 -287.5 58.5t-235.5 157.5t-157.5 236t-58.5 287t58.5 287t157.5 236t235.5 157.5t287.5 58.5z" />
    <glyph glyph-name="uni25E7" unicode="&#x25e7;" horiz-adv-x="1800" 
d="M200 1400h1400v-1400h-1400v1400zM900 1294v-1188h594v1188h-594z" />
    <glyph glyph-name="uni2610" unicode="&#x2610;" horiz-adv-x="2200" 
d="M253 1547h1694v-1694h-1694v1694zM341 1459v-1518h1518v1518h-1518z" />
    <glyph glyph-name="uni2611" unicode="&#x2611;" horiz-adv-x="2200" 
d="M253 1547h1694v-1694h-1694v1694zM341 1459v-1518h1518v1518h-1518zM1600 1210l72 -52l-707 -998l-405 516l68 56l333 -429z" />
    <glyph glyph-name="uni2612" unicode="&#x2612;" horiz-adv-x="2200" 
d="M1947 1547v-1694h-1694v1694h1694zM1859 1459h-1518v-1518h1518v1518zM608 267l429 430l-432 432l62 63l433 -433l433 433l62 -63l-433 -432l430 -430l-63 -62l-429 429l-429 -429z" />
    <glyph glyph-name="heart" unicode="&#x2665;" horiz-adv-x="1800" 
d="M1168 1173q117 0 194.5 -80t77.5 -198q0 -85 -43 -180t-119 -186t-171 -176.5t-207 -164.5q-112 79 -207 164.5t-171 176.5t-119 186t-43 180q0 118 77.5 198t194.5 80q106 0 187 -63t81 -148q0 85 81 148t187 63z" />
    <glyph glyph-name="uni2713" unicode="&#x2713;" horiz-adv-x="2200" 
d="M1642 1269l84 -61l-811 -1095l-440 480l76 70l355 -388z" />
    <glyph glyph-name="uni2717" unicode="&#x2717;" horiz-adv-x="2200" 
d="M1173 700l472 -471l-73 -74l-472 472l-471 -472l-73 74l471 471l-471 471l73 74l471 -472l472 472l73 -74z" />
    <glyph glyph-name="uni278A" unicode="&#x2776;" horiz-adv-x="2050" 
d="M1129 1141l-380 -153v-101l279 114v-707h101v847zM1025 1564q176 0 337 -68.5t277 -184t184.5 -275.5t68.5 -335q0 -176 -68.5 -336t-184.5 -276t-277 -184.5t-337 -68.5t-337 68.5t-277 184.5t-184.5 276t-68.5 336q0 175 68.5 335t184.5 275.5t277 184t337 68.5z" />
    <glyph glyph-name="uni278A" unicode="&#x278a;" horiz-adv-x="2050" 
d="M1129 1141l-380 -153v-101l279 114v-707h101v847zM1025 1564q176 0 337 -68.5t277 -184t184.5 -275.5t68.5 -335q0 -176 -68.5 -336t-184.5 -276t-277 -184.5t-337 -68.5t-337 68.5t-277 184.5t-184.5 276t-68.5 336q0 175 68.5 335t184.5 275.5t277 184t337 68.5z" />
    <glyph glyph-name="uni278B" unicode="&#x2777;" horiz-adv-x="2050" 
d="M747 1001l68 -63q76 107 195 107q82 0 129.5 -47.5t47.5 -119.5q0 -92 -89 -181l-326 -324v-79h549v94h-403l251 251q59 59 91.5 117t32.5 129q0 113 -73.5 185t-201.5 72q-173 0 -271 -141zM1025 1564q176 0 337 -68.5t277 -184t184.5 -275.5t68.5 -335
q0 -176 -68.5 -336t-184.5 -276t-277 -184.5t-337 -68.5t-337 68.5t-277 184.5t-184.5 276t-68.5 336q0 175 68.5 335t184.5 275.5t277 184t337 68.5z" />
    <glyph glyph-name="uni278B" unicode="&#x278b;" horiz-adv-x="2050" 
d="M747 1001l68 -63q76 107 195 107q82 0 129.5 -47.5t47.5 -119.5q0 -92 -89 -181l-326 -324v-79h549v94h-403l251 251q59 59 91.5 117t32.5 129q0 113 -73.5 185t-201.5 72q-173 0 -271 -141zM1025 1564q176 0 337 -68.5t277 -184t184.5 -275.5t68.5 -335
q0 -176 -68.5 -336t-184.5 -276t-277 -184.5t-337 -68.5t-337 68.5t-277 184.5t-184.5 276t-68.5 336q0 175 68.5 335t184.5 275.5t277 184t337 68.5z" />
    <glyph glyph-name="uni278C" unicode="&#x2778;" horiz-adv-x="2050" 
d="M1025 1564q176 0 337 -68.5t277 -184t184.5 -275.5t68.5 -335q0 -176 -68.5 -336t-184.5 -276t-277 -184.5t-337 -68.5t-337 68.5t-277 184.5t-184.5 276t-68.5 336q0 175 68.5 335t184.5 275.5t277 184t337 68.5zM1009 1142q-168 0 -266 -119l63 -65q77 93 199 93
q87 0 142 -39.5t55 -103.5q0 -70 -53 -108t-137 -38h-118v-89h118q89 0 148.5 -40t59.5 -108q0 -73 -60 -112.5t-148 -39.5q-126 0 -213 84l-59 -67q102 -107 276 -107q83 0 151 25t113 79.5t45 131.5q0 72 -47 123.5t-127 73.5q73 22 114.5 73.5t41.5 126.5q0 100 -83 163
t-215 63z" />
    <glyph glyph-name="uni278C" unicode="&#x278c;" horiz-adv-x="2050" 
d="M1025 1564q176 0 337 -68.5t277 -184t184.5 -275.5t68.5 -335q0 -176 -68.5 -336t-184.5 -276t-277 -184.5t-337 -68.5t-337 68.5t-277 184.5t-184.5 276t-68.5 336q0 175 68.5 335t184.5 275.5t277 184t337 68.5zM1009 1142q-168 0 -266 -119l63 -65q77 93 199 93
q87 0 142 -39.5t55 -103.5q0 -70 -53 -108t-137 -38h-118v-89h118q89 0 148.5 -40t59.5 -108q0 -73 -60 -112.5t-148 -39.5q-126 0 -213 84l-59 -67q102 -107 276 -107q83 0 151 25t113 79.5t45 131.5q0 72 -47 123.5t-127 73.5q73 22 114.5 73.5t41.5 126.5q0 100 -83 163
t-215 63z" />
    <glyph glyph-name="uni278D" unicode="&#x2779;" horiz-adv-x="2050" 
d="M1025 1564q176 0 337 -68.5t277 -184t184.5 -275.5t68.5 -335q0 -176 -68.5 -336t-184.5 -276t-277 -184.5t-337 -68.5t-337 68.5t-277 184.5t-184.5 276t-68.5 336q0 175 68.5 335t184.5 275.5t277 184t337 68.5zM1191 798h-101v-236h-286l295 570h-112l-305 -592v-73
h408v-173h101v173h144v95h-144v236z" />
    <glyph glyph-name="uni278D" unicode="&#x278d;" horiz-adv-x="2050" 
d="M1025 1564q176 0 337 -68.5t277 -184t184.5 -275.5t68.5 -335q0 -176 -68.5 -336t-184.5 -276t-277 -184.5t-337 -68.5t-337 68.5t-277 184.5t-184.5 276t-68.5 336q0 175 68.5 335t184.5 275.5t277 184t337 68.5zM1191 798h-101v-236h-286l295 570h-112l-305 -592v-73
h408v-173h101v173h144v95h-144v236z" />
    <glyph glyph-name="uni278E" unicode="&#x277a;" horiz-adv-x="2050" 
d="M1287 1133h-468l-12 -425h181q234 0 234 -168q0 -73 -52 -118t-142 -45q-70 0 -132 27t-103 74l-55 -73q109 -122 290 -122q132 0 216 72.5t84 191.5q0 117 -80.5 184t-232.5 67h-116l10 241h378v94zM1025 1564q176 0 337 -68.5t277 -184t184.5 -275.5t68.5 -335
q0 -176 -68.5 -336t-184.5 -276t-277 -184.5t-337 -68.5t-337 68.5t-277 184.5t-184.5 276t-68.5 336q0 175 68.5 335t184.5 275.5t277 184t337 68.5z" />
    <glyph glyph-name="uni278E" unicode="&#x278e;" horiz-adv-x="2050" 
d="M1287 1133h-468l-12 -425h181q234 0 234 -168q0 -73 -52 -118t-142 -45q-70 0 -132 27t-103 74l-55 -73q109 -122 290 -122q132 0 216 72.5t84 191.5q0 117 -80.5 184t-232.5 67h-116l10 241h378v94zM1025 1564q176 0 337 -68.5t277 -184t184.5 -275.5t68.5 -335
q0 -176 -68.5 -336t-184.5 -276t-277 -184.5t-337 -68.5t-337 68.5t-277 184.5t-184.5 276t-68.5 336q0 175 68.5 335t184.5 275.5t277 184t337 68.5z" />
    <glyph glyph-name="uni278F" unicode="&#x277b;" horiz-adv-x="2050" 
d="M1025 1564q176 0 337 -68.5t277 -184t184.5 -275.5t68.5 -335q0 -176 -68.5 -336t-184.5 -276t-277 -184.5t-337 -68.5t-337 68.5t-277 184.5t-184.5 276t-68.5 336q0 175 68.5 335t184.5 275.5t277 184t337 68.5zM1145 1133h-122l-251 -394q-60 -93 -60 -181
q0 -118 88 -196.5t221 -78.5q132 0 219 79t87 198q0 116 -82.5 193.5t-210.5 77.5q-52 0 -101 -19zM1021 744q87 0 144 -52.5t57 -132.5t-57 -132.5t-144 -52.5q-88 0 -145.5 52.5t-57.5 132.5t57.5 132.5t145.5 52.5z" />
    <glyph glyph-name="uni278F" unicode="&#x278f;" horiz-adv-x="2050" 
d="M1025 1564q176 0 337 -68.5t277 -184t184.5 -275.5t68.5 -335q0 -176 -68.5 -336t-184.5 -276t-277 -184.5t-337 -68.5t-337 68.5t-277 184.5t-184.5 276t-68.5 336q0 175 68.5 335t184.5 275.5t277 184t337 68.5zM1145 1133h-122l-251 -394q-60 -93 -60 -181
q0 -118 88 -196.5t221 -78.5q132 0 219 79t87 198q0 116 -82.5 193.5t-210.5 77.5q-52 0 -101 -19zM1021 744q87 0 144 -52.5t57 -132.5t-57 -132.5t-144 -52.5q-88 0 -145.5 52.5t-57.5 132.5t57.5 132.5t145.5 52.5z" />
    <glyph glyph-name="uni2790" unicode="&#x277c;" horiz-adv-x="2050" 
d="M1349 1133h-590v-95h470l-382 -744h120l382 759v80zM1025 1564q176 0 337 -68.5t277 -184t184.5 -275.5t68.5 -335q0 -176 -68.5 -336t-184.5 -276t-277 -184.5t-337 -68.5t-337 68.5t-277 184.5t-184.5 276t-68.5 336q0 175 68.5 335t184.5 275.5t277 184t337 68.5z" />
    <glyph glyph-name="uni2790" unicode="&#x2790;" horiz-adv-x="2050" 
d="M1349 1133h-590v-95h470l-382 -744h120l382 759v80zM1025 1564q176 0 337 -68.5t277 -184t184.5 -275.5t68.5 -335q0 -176 -68.5 -336t-184.5 -276t-277 -184.5t-337 -68.5t-337 68.5t-277 184.5t-184.5 276t-68.5 336q0 175 68.5 335t184.5 275.5t277 184t337 68.5z" />
    <glyph glyph-name="uni2791" unicode="&#x277d;" horiz-adv-x="2050" 
d="M1025 1564q176 0 337 -68.5t277 -184t184.5 -275.5t68.5 -335q0 -176 -68.5 -336t-184.5 -276t-277 -184.5t-337 -68.5t-337 68.5t-277 184.5t-184.5 276t-68.5 336q0 175 68.5 335t184.5 275.5t277 184t337 68.5zM1025 1141q-127 0 -212 -60.5t-85 -164.5
q0 -74 43.5 -124t115.5 -74q-81 -23 -130.5 -74t-49.5 -128q0 -107 91 -169.5t227 -62.5t227.5 62.5t91.5 169.5q0 77 -50 128t-131 74q72 24 116 74t44 124q0 104 -85.5 164.5t-212.5 60.5zM1025 678q90 0 149.5 -40.5t59.5 -111.5q0 -72 -59.5 -112t-149.5 -40
q-89 0 -148.5 40t-59.5 112q0 71 59.5 111.5t148.5 40.5zM1025 1051q83 0 137 -37.5t54 -106.5t-54.5 -108t-136.5 -39t-136 39t-54 108q0 68 54 106t136 38z" />
    <glyph glyph-name="uni2791" unicode="&#x2791;" horiz-adv-x="2050" 
d="M1025 1564q176 0 337 -68.5t277 -184t184.5 -275.5t68.5 -335q0 -176 -68.5 -336t-184.5 -276t-277 -184.5t-337 -68.5t-337 68.5t-277 184.5t-184.5 276t-68.5 336q0 175 68.5 335t184.5 275.5t277 184t337 68.5zM1025 1141q-127 0 -212 -60.5t-85 -164.5
q0 -74 43.5 -124t115.5 -74q-81 -23 -130.5 -74t-49.5 -128q0 -107 91 -169.5t227 -62.5t227.5 62.5t91.5 169.5q0 77 -50 128t-131 74q72 24 116 74t44 124q0 104 -85.5 164.5t-212.5 60.5zM1025 678q90 0 149.5 -40.5t59.5 -111.5q0 -72 -59.5 -112t-149.5 -40
q-89 0 -148.5 40t-59.5 112q0 71 59.5 111.5t148.5 40.5zM1025 1051q83 0 137 -37.5t54 -106.5t-54.5 -108t-136.5 -39t-136 39t-54 108q0 68 54 106t136 38z" />
    <glyph glyph-name="uni2792" unicode="&#x277e;" horiz-adv-x="2050" 
d="M1025 1564q176 0 337 -68.5t277 -184t184.5 -275.5t68.5 -335q0 -176 -68.5 -336t-184.5 -276t-277 -184.5t-337 -68.5t-337 68.5t-277 184.5t-184.5 276t-68.5 336q0 175 68.5 335t184.5 275.5t277 184t337 68.5zM914 294h122l251 393q59 92 59 182q0 118 -87.5 195.5
t-219.5 77.5q-133 0 -220.5 -78.5t-87.5 -197.5q0 -116 82.5 -193.5t211.5 -77.5q55 0 101 18zM1039 683q-88 0 -145 52t-57 132t57 132t145 52q87 0 144.5 -52.5t57.5 -131.5t-57.5 -131.5t-144.5 -52.5z" />
    <glyph glyph-name="uni2792" unicode="&#x2792;" horiz-adv-x="2050" 
d="M1025 1564q176 0 337 -68.5t277 -184t184.5 -275.5t68.5 -335q0 -176 -68.5 -336t-184.5 -276t-277 -184.5t-337 -68.5t-337 68.5t-277 184.5t-184.5 276t-68.5 336q0 175 68.5 335t184.5 275.5t277 184t337 68.5zM914 294h122l251 393q59 92 59 182q0 118 -87.5 195.5
t-219.5 77.5q-133 0 -220.5 -78.5t-87.5 -197.5q0 -116 82.5 -193.5t211.5 -77.5q55 0 101 18zM1039 683q-88 0 -145 52t-57 132t57 132t145 52q87 0 144.5 -52.5t57.5 -131.5t-57.5 -131.5t-144.5 -52.5z" />
    <glyph glyph-name="uni2B51" unicode="&#x2b51;" horiz-adv-x="1800" 
d="M1057 860h506l-409 -298l157 -483l-410 299l-409 -299l156 483l-411 298h508l156 482z" />
    <glyph glyph-name="uni2B52" unicode="&#x2b52;" horiz-adv-x="1800" 
d="M1057 860h506l-409 -298l157 -483l-410 299l-409 -299l156 483l-411 298h508l156 482zM1005 789l-104 322l-104 -322h-340l274 -200l-104 -323l274 200l274 -200l-105 323l274 200h-339z" />
    <glyph glyph-name="uni2E17" unicode="&#x2e17;" horiz-adv-x="938" 
d="M748 864v-100l-557 -203v100zM748 540v-100l-557 -203v101z" />
    <glyph glyph-name="uni2E38" unicode="&#x2e38;" horiz-adv-x="713" 
d="M309 1440h95v-442h204v-93h-204v-204h-95v204h-204v93h204v442z" />
    <glyph glyph-name="uniEA00" unicode="&#xea00;" horiz-adv-x="1800" 
d="M1057 860h506l-409 -298l157 -483l-410 299l-409 -299l156 483l-411 298h508l156 482zM1005 789l-104 322v-645l274 -200l-105 323l274 200h-339z" />
    <glyph glyph-name="uniEA01" unicode="&#xea01;" horiz-adv-x="1800" 
d="M901 378l-409 -299l156 483l-411 298h508l156 482v-964z" />
    <glyph glyph-name="uniFB00" unicode="&#xfb00;" horiz-adv-x="1721" 
d="M805 941v-104h-405v-837h-114v837h-231v104h231v162q0 164 75 258t236 94q140 0 254 -70l-41 -95q-96 58 -206 58q-204 0 -204 -245v-162h405zM1651 941v-104h-405v-837h-114v837h-231v104h231v162q0 164 75 258t236 94q140 0 254 -70l-41 -95q-96 58 -206 58
q-204 0 -204 -245v-162h405z" />
    <glyph glyph-name="fi" unicode="&#xfb01;" horiz-adv-x="1352" 
d="M805 941v-104h-405v-837h-114v837h-231v104h231v162q0 164 75 258t236 94q140 0 254 -70l-41 -95q-96 58 -206 58q-204 0 -204 -245v-162h405zM1171 941v-941h-114v941h114zM1114 1362q34 0 58 -24t24 -59q0 -34 -23.5 -57.5t-58.5 -23.5q-34 0 -57.5 23t-23.5 58
t23.5 59t57.5 24z" />
    <glyph glyph-name="fl" unicode="&#xfb02;" horiz-adv-x="1352" 
d="M805 941v-104h-405v-837h-114v837h-231v104h231v162q0 164 75 258t236 94q140 0 254 -70l-41 -95q-96 58 -206 58q-204 0 -204 -245v-162h405zM1171 1440v-1440h-114v1440h114z" />
    <glyph glyph-name="uniFB03" unicode="&#xfb03;" horiz-adv-x="2198" 
d="M805 941v-104h-405v-837h-114v837h-231v104h231v162q0 164 75 258t236 94q140 0 254 -70l-41 -95q-96 58 -206 58q-204 0 -204 -245v-162h405zM1651 941v-104h-405v-837h-114v837h-231v104h231v162q0 164 75 258t236 94q140 0 254 -70l-41 -95q-96 58 -206 58
q-204 0 -204 -245v-162h405zM2017 941v-941h-114v941h114zM1960 1362q34 0 58 -24t24 -59q0 -34 -23.5 -57.5t-58.5 -23.5q-34 0 -57.5 23t-23.5 58t23.5 59t57.5 24z" />
    <glyph glyph-name="uniFB04" unicode="&#xfb04;" horiz-adv-x="2198" 
d="M805 941v-104h-405v-837h-114v837h-231v104h231v162q0 164 75 258t236 94q140 0 254 -70l-41 -95q-96 58 -206 58q-204 0 -204 -245v-162h405zM1651 941v-104h-405v-837h-114v837h-231v104h231v162q0 164 75 258t236 94q140 0 254 -70l-41 -95q-96 58 -206 58
q-204 0 -204 -245v-162h405zM2017 1440v-1440h-114v1440h114z" />
    <glyph glyph-name="uniFB05" unicode="&#xfb05;" horiz-adv-x="1467" 
d="M1382 941v-104h-434v-513q0 -116 56 -174t153 -58q120 0 210 72l54 -85q-112 -94 -273 -94q-150 0 -232 84.5t-82 252.5v515h-214v104h214v105q0 145 -74.5 223.5t-198.5 78.5t-199 -78.5t-75 -223.5v-1046h-114v1053q0 191 110.5 296.5t277.5 105.5t277 -105.5
t110 -296.5v-112h434z" />
    <glyph glyph-name="uniFB06" unicode="&#xfb06;" horiz-adv-x="1878" 
d="M858 850l-49 -88q-54 38 -140.5 66t-178.5 28q-112 0 -181 -46t-69 -124q0 -65 52.5 -102t161.5 -50l120 -14q309 -36 309 -253q0 -132 -110.5 -207t-294.5 -75q-229 0 -387 120l53 85q136 -106 335 -106q132 0 209.5 45t77.5 131q0 132 -217 156l-121 13
q-155 18 -230 82.5t-75 168.5q0 128 100.5 202t265.5 74q108 0 205.5 -29t163.5 -77zM1793 941v-104h-434v-513q0 -116 56 -174t153 -58q120 0 210 72l54 -85q-112 -94 -273 -94q-150 0 -232 84.5t-82 252.5v515h-216v104h216v307h114v-307h434z" />
    <glyph glyph-name="uniFEFF" unicode="&#xfeff;" horiz-adv-x="0" 
 />
    <glyph glyph-name="uni030C.alt001" 
d="M-564 1051h-96l11 389h117z" />
    <glyph glyph-name="uni0328.alt001" 
d="M-463 -256l61 -74q-78 -82 -185 -82q-88 0 -144 45.5t-56 121.5q0 77 57.5 146t169.5 144l29 -45q-148 -127 -148 -223q0 -42 28 -66.5t74 -24.5q64 0 114 58z" />
    <glyph glyph-name="uni0328.alt002" 
d="M-556 55l22 -42q-93 -49 -137.5 -98t-44.5 -110q0 -53 38 -86t101 -33q88 0 154 63l61 -73q-90 -88 -222 -88q-108 0 -175.5 55.5t-67.5 141.5q0 91 66.5 153t204.5 117z" />
    <glyph glyph-name="uni0328.alt003" 
d="M-464 -256l62 -74q-79 -82 -186 -82q-88 0 -144 45.5t-56 121.5q0 87 78 154t240 137l28 -46q-122 -57 -180 -110t-58 -113q0 -42 28 -66.5t74 -24.5q64 0 114 58z" />
    <glyph glyph-name="uni0328.alt004" 
d="M-423 -251l61 -73q-90 -88 -222 -88q-108 0 -175.5 55.5t-67.5 141.5q0 52 22 95t67 79t99 64.5t133 60.5l15 -45q-115 -61 -170 -113t-55 -121q0 -53 38 -86t101 -33q88 0 154 63z" />
    <glyph glyph-name="i.latn_TRK" horiz-adv-x="477" 
d="M296 941v-941h-114v941h114zM239 1362q34 0 58 -24t24 -59q0 -34 -23.5 -57.5t-58.5 -23.5t-58 23t-23 58t23.5 59t57.5 24z" />
    <glyph glyph-name="j.latn_NLD" horiz-adv-x="480" 
d="M299 941v-1119q0 -113 -55.5 -173.5t-154.5 -60.5q-74 0 -130 33l28 98q43 -24 93 -24q105 0 105 132v1114h114zM236 1082h-113l220 300h144z" />
    <glyph glyph-name="Ldot.latn_CAT" horiz-adv-x="1204" 
d="M1162 116v-116h-953v1400h122v-1284h831zM846 789q35 0 59.5 -25t24.5 -60t-24.5 -59t-59.5 -24q-36 0 -60 24t-24 59q0 36 24 60.5t60 24.5z" />
    <glyph glyph-name="ldot.latn_CAT" horiz-adv-x="567" 
d="M296 1440v-1440h-114v1440h114zM518 813q34 0 58 -24t24 -59q0 -34 -23.5 -57.5t-58.5 -23.5q-34 0 -57.5 23.5t-23.5 57.5q0 35 23.5 59t57.5 24z" />
    <glyph glyph-name="zero.numr" horiz-adv-x="848" 
d="M424 1408q138 0 230 -106.5t92 -285.5q0 -178 -92 -284.5t-230 -106.5t-230 106.5t-92 284.5q0 179 92 285.5t230 106.5zM424 1317q-96 0 -160 -80.5t-64 -220.5q0 -139 64 -219.5t160 -80.5q97 0 160.5 80t63.5 220t-63.5 220.5t-160.5 80.5z" />
    <glyph glyph-name="one.numr" horiz-adv-x="541" 
d="M378 1407v-773h-95v641l-232 -95v94z" />
    <glyph glyph-name="two.numr" horiz-adv-x="657" 
d="M128 1220l-62 59q90 129 246 129q115 0 181 -65.5t66 -168.5q0 -115 -110 -225l-224 -227h361v-88h-496v74l292 295q80 80 80 164q0 65 -42.5 107.5t-115.5 42.5q-106 0 -176 -97z" />
    <glyph glyph-name="three.numr" horiz-adv-x="658" 
d="M293 1408q115 0 188 -57.5t73 -149.5q0 -66 -35.5 -112.5t-97.5 -68.5q69 -21 109 -68t40 -113q0 -103 -79 -158.5t-192 -55.5q-155 0 -248 98l55 63q77 -75 189 -75q76 0 126.5 35t50.5 101q0 60 -52 95.5t-129 35.5h-103v84h103q72 0 118.5 35t46.5 97q0 57 -46.5 92.5
t-120.5 35.5q-109 0 -177 -84l-58 60q89 110 239 110z" />
    <glyph glyph-name="four.numr" horiz-adv-x="670" 
d="M501 1095v-217h128v-87h-128v-157h-95v157h-365v69l274 538h104l-266 -520h253v217h95z" />
    <glyph glyph-name="five.numr" horiz-adv-x="691" 
d="M563 1399v-87h-341l-7 -217h103q135 0 208 -61.5t73 -162.5q0 -112 -76 -179t-194 -67q-165 0 -263 111l57 63q81 -87 205 -87q81 0 127 41.5t46 110.5q0 67 -50 107t-153 40h-170l12 388h423z" />
    <glyph glyph-name="six.numr" horiz-adv-x="686" 
d="M457 1399l-194 -292q40 17 91 17q117 0 191.5 -70.5t74.5 -176.5q0 -109 -79 -180.5t-200 -71.5q-120 0 -200 71.5t-80 178.5q0 79 56 167l226 357h114zM341 1044q-79 0 -130 -47.5t-51 -120.5q0 -72 51 -119.5t130 -47.5q78 0 129 47t51 120t-51 120.5t-129 47.5z" />
    <glyph glyph-name="seven.numr" horiz-adv-x="645" 
d="M594 1399v-74l-344 -691h-111l343 676h-421v89h533z" />
    <glyph glyph-name="eight.numr" horiz-adv-x="753" 
d="M377 1408q115 0 192.5 -55.5t77.5 -151.5q0 -130 -141 -180q72 -22 116 -68t44 -116q0 -99 -82.5 -155.5t-206.5 -56.5q-125 0 -207.5 56.5t-82.5 155.5q0 70 44 116t116 68q-141 50 -141 180q0 96 77.5 151.5t193.5 55.5zM377 983q-81 0 -134.5 -36.5t-53.5 -100.5
q0 -66 53.5 -103t134.5 -37q80 0 133.5 37t53.5 103q0 64 -53.5 100.5t-133.5 36.5zM377 1325q-73 0 -121.5 -35t-48.5 -97q0 -63 48.5 -98t121.5 -35t121.5 35t48.5 98q0 62 -48.5 97t-121.5 35z" />
    <glyph glyph-name="nine.numr" horiz-adv-x="686" 
d="M230 634l192 291q-42 -16 -89 -16q-117 0 -191.5 70.5t-74.5 176.5q0 109 79.5 180.5t199.5 71.5q121 0 200.5 -71.5t79.5 -178.5q0 -80 -56 -168l-226 -356h-114zM346 989q78 0 129 47.5t52 120.5q0 72 -51 119.5t-130 47.5q-78 0 -129 -47t-51 -120t51 -120.5
t129 -47.5z" />
    <glyph glyph-name="zero.dnom" horiz-adv-x="848" 
d="M424 774q138 0 230 -106.5t92 -285.5q0 -178 -92 -284.5t-230 -106.5t-230 106.5t-92 284.5q0 179 92 285.5t230 106.5zM424 683q-96 0 -160 -80.5t-64 -220.5q0 -139 64 -219.5t160 -80.5q97 0 160.5 80t63.5 220t-63.5 220.5t-160.5 80.5z" />
    <glyph glyph-name="one.dnom" horiz-adv-x="542" 
d="M378 773v-773h-95v641l-232 -95v94z" />
    <glyph glyph-name="two.dnom" horiz-adv-x="658" 
d="M128 586l-62 59q90 129 246 129q115 0 181 -65.5t66 -168.5q0 -115 -110 -225l-224 -227h361v-88h-496v74l292 295q80 80 80 164q0 65 -42.5 107.5t-115.5 42.5q-106 0 -176 -97z" />
    <glyph glyph-name="three.dnom" horiz-adv-x="657" 
d="M293 774q115 0 188 -57.5t73 -149.5q0 -66 -35.5 -112.5t-97.5 -68.5q69 -21 109 -68t40 -113q0 -103 -79 -158.5t-192 -55.5q-155 0 -248 98l55 63q77 -75 189 -75q76 0 126.5 35t50.5 101q0 60 -52 95.5t-129 35.5h-103v84h103q72 0 118.5 35t46.5 97q0 57 -46.5 92.5
t-120.5 35.5q-109 0 -177 -84l-58 60q89 110 239 110z" />
    <glyph glyph-name="four.dnom" horiz-adv-x="670" 
d="M501 461v-217h128v-87h-128v-157h-95v157h-365v69l274 538h104l-266 -520h253v217h95z" />
    <glyph glyph-name="five.dnom" horiz-adv-x="691" 
d="M563 765v-87h-341l-7 -217h103q135 0 208 -61.5t73 -162.5q0 -112 -76 -179t-194 -67q-165 0 -263 111l57 63q81 -87 205 -87q81 0 127 41.5t46 110.5q0 67 -50 107t-153 40h-170l12 388h423z" />
    <glyph glyph-name="six.dnom" horiz-adv-x="687" 
d="M457 765l-194 -292q40 17 91 17q117 0 191.5 -70.5t74.5 -176.5q0 -109 -79 -180.5t-200 -71.5q-120 0 -200 71.5t-80 178.5q0 79 56 167l226 357h114zM341 410q-79 0 -130 -47.5t-51 -120.5q0 -72 51 -119.5t130 -47.5q78 0 129 47t51 120t-51 120.5t-129 47.5z" />
    <glyph glyph-name="seven.dnom" horiz-adv-x="645" 
d="M594 765v-74l-344 -691h-111l343 676h-421v89h533z" />
    <glyph glyph-name="eight.dnom" horiz-adv-x="753" 
d="M377 774q115 0 192.5 -55.5t77.5 -151.5q0 -130 -141 -180q72 -22 116 -68t44 -116q0 -99 -82.5 -155.5t-206.5 -56.5q-125 0 -207.5 56.5t-82.5 155.5q0 70 44 116t116 68q-141 50 -141 180q0 96 77.5 151.5t193.5 55.5zM377 349q-81 0 -134.5 -36.5t-53.5 -100.5
q0 -66 53.5 -103t134.5 -37q80 0 133.5 37t53.5 103q0 64 -53.5 100.5t-133.5 36.5zM377 691q-73 0 -121.5 -35t-48.5 -97q0 -63 48.5 -98t121.5 -35t121.5 35t48.5 98q0 62 -48.5 97t-121.5 35z" />
    <glyph glyph-name="nine.dnom" horiz-adv-x="687" 
d="M230 0l192 291q-42 -16 -89 -16q-117 0 -191.5 70.5t-74.5 176.5q0 109 79.5 180.5t199.5 71.5q121 0 200.5 -71.5t79.5 -178.5q0 -80 -56 -168l-226 -356h-114zM346 355q78 0 129 47.5t52 120.5q0 72 -51 119.5t-130 47.5q-78 0 -129 -47t-51 -120t51 -120.5t129 -47.5z
" />
    <glyph glyph-name="space.frac" horiz-adv-x="106" 
 />
    <glyph glyph-name="b.ordn" horiz-adv-x="885" 
d="M477 1298q138 0 230.5 -96.5t92.5 -240.5q0 -145 -92.5 -241.5t-230.5 -96.5q-170 0 -252 150v-139h-92v994h94v-477q38 68 101.5 107.5t148.5 39.5zM462 1210q-104 0 -172 -71t-68 -178q0 -108 67.5 -178.5t172.5 -70.5t173 71t68 178q0 106 -68 177.5t-173 71.5z" />
    <glyph glyph-name="c.ordn" horiz-adv-x="753" 
d="M421 1298q153 0 248 -109l-67 -59q-75 80 -183 80q-101 0 -169.5 -70.5t-68.5 -178.5q0 -109 68 -179t170 -70q108 0 184 79l66 -59q-95 -109 -248 -109q-147 0 -242 96t-95 242q0 145 95 241t242 96z" />
    <glyph glyph-name="d.ordn" horiz-adv-x="885" 
d="M407 1298q85 0 149 -40.5t102 -109.5v480h94v-994h-93v140q-37 -69 -101.5 -110t-150.5 -41q-138 0 -230.5 96.5t-92.5 241.5q0 144 92.5 240.5t230.5 96.5zM422 1210q-105 0 -173 -71.5t-68 -177.5q0 -107 67.5 -178t173.5 -71q104 0 172 71t68 178t-68 178t-172 71z
" />
    <glyph glyph-name="e.ordn" horiz-adv-x="804" 
d="M410 1298q133 0 221 -94t89 -240q0 -14 -2 -34h-537q9 -105 75 -165t164 -60q124 0 213 91l54 -63q-107 -110 -272 -110q-145 0 -238 94t-93 243q0 147 92.5 242.5t233.5 95.5zM409 1216q-93 0 -154.5 -60.5t-72.5 -157.5h442q-8 97 -67.5 157.5t-147.5 60.5z" />
    <glyph glyph-name="h.ordn" horiz-adv-x="850" 
d="M227 1628v-462q34 65 94.5 98.5t134.5 33.5q120 0 194 -71t74 -190v-403h-95v374q0 94 -51.5 147.5t-146.5 53.5q-86 0 -145 -56.5t-59 -148.5v-370h-94v994h94z" />
    <glyph glyph-name="l.ordn" horiz-adv-x="360" 
d="M227 1628v-994h-94v994h94z" />
    <glyph glyph-name="m.ordn" horiz-adv-x="1346" 
d="M950 1298q122 0 196.5 -71t74.5 -190v-403h-95v374q0 94 -52 147.5t-146 53.5q-86 0 -145 -56.5t-59 -148.5v-370h-95v374q0 94 -51.5 147.5t-146.5 53.5q-86 0 -145 -56.5t-59 -148.5v-370h-94v653h92v-125q33 68 94 102t137 34q87 0 152 -39t94 -109q34 73 100.5 110.5
t147.5 37.5z" />
    <glyph glyph-name="r.ordn" horiz-adv-x="587" 
d="M426 1298q67 0 111 -22l-17 -93q-50 25 -114 25q-80 0 -129.5 -57t-49.5 -150v-367h-94v653h92v-115q61 126 201 126z" />
    <glyph glyph-name="s.ordn" horiz-adv-x="704" 
d="M613 1228l-35 -74q-41 26 -101.5 45t-121.5 19q-74 0 -118 -29.5t-44 -80.5q0 -83 146 -99l78 -9q213 -25 213 -177q0 -94 -77 -147t-206 -53q-164 0 -273 80l40 72q96 -71 234 -71q86 0 136 28.5t50 83.5q0 86 -148 102l-75 8q-216 23 -216 178q0 90 70.5 142t187.5 52
q144 0 260 -70z" />
    <glyph glyph-name="t.ordn" horiz-adv-x="661" 
d="M586 1287v-85h-293v-335q0 -78 37.5 -116.5t102.5 -38.5q83 0 147 52l36 -74q-82 -67 -196 -67q-107 0 -164.5 60.5t-57.5 177.5v341h-148v85h148v211h95v-211h293z" />
    <glyph glyph-name="u.ordn" horiz-adv-x="857" 
d="M724 1287v-382q0 -134 -83.5 -208t-212.5 -74q-128 0 -211.5 74t-83.5 208v382h94v-374q0 -96 55 -148.5t146 -52.5q92 0 147 52.5t55 148.5v374h94z" />
    <glyph glyph-name="egrave.ordn" horiz-adv-x="804" 
d="M410 1298q133 0 221 -94t89 -240q0 -14 -2 -34h-537q9 -105 75 -165t164 -60q124 0 213 91l54 -63q-107 -110 -272 -110q-145 0 -238 94t-93 243q0 147 92.5 242.5t233.5 95.5zM409 1216q-93 0 -154.5 -60.5t-72.5 -157.5h442q-8 97 -67.5 157.5t-147.5 60.5zM401 1381
l-177 212h115l154 -212h-92z" />
    <glyph glyph-name="zero.osf" horiz-adv-x="1337" 
d="M669 1047q149 0 272 -65t196 -187t73 -278q0 -158 -73 -280.5t-196 -187t-272 -64.5t-272.5 65.5t-196.5 188t-73 278.5t73 278t196 187t273 65zM669 939q-181 0 -303 -116.5t-122 -305.5t122 -307t303 -118q182 0 303.5 117t121.5 308q0 189 -122 305.5t-303 116.5z" />
    <glyph glyph-name="one.osf" horiz-adv-x="759" 
d="M555 1049v-1049h-115v892l-370 -127v114z" />
    <glyph glyph-name="two.osf" horiz-adv-x="1059" 
d="M165 768l-82 70q159 208 415 208q183 0 296 -101.5t113 -252.5q0 -124 -78 -223.5t-224 -187.5l-284 -170h649v-111h-858v95l428 266q133 83 189.5 162t56.5 164q0 104 -77.5 176t-214.5 72q-114 0 -190 -46t-139 -121z" />
    <glyph glyph-name="three.osf" horiz-adv-x="1077" 
d="M488 1046q200 0 325 -104.5t125 -270.5q0 -124 -63 -208.5t-173 -124.5q121 -38 194 -125t73 -210q0 -95 -39 -170.5t-105.5 -122t-149 -71t-174.5 -24.5q-276 0 -437 176l76 78q68 -69 160.5 -106.5t198.5 -37.5q150 0 249.5 72.5t99.5 209.5q0 127 -102.5 202.5
t-254.5 75.5h-191v106h190q144 0 235.5 72t91.5 204q0 121 -95 195.5t-242 74.5q-102 0 -184.5 -45.5t-134.5 -118.5l-87 70q63 92 169 147.5t245 55.5z" />
    <glyph glyph-name="four.osf" horiz-adv-x="1139" 
d="M814 475v-365h274v-110h-274v-370h-115v370h-648v91l488 939h125l-476 -920h511v365h115z" />
    <glyph glyph-name="five.osf" horiz-adv-x="1134" 
d="M958 1030v-110h-636l-16 -460h211q245 0 373.5 -115t128.5 -303q0 -198 -133.5 -313t-336.5 -115q-292 0 -466 217l81 73q71 -87 171 -133t214 -46q162 0 255.5 87t93.5 220q0 150 -100.5 233.5t-315.5 83.5h-286l19 681h743z" />
    <glyph glyph-name="six.osf" horiz-adv-x="1138" 
d="M734 1400l-350 -555q89 40 192 40q206 0 342.5 -128.5t136.5 -322.5q0 -193 -139 -321t-350 -128t-350.5 128.5t-139.5 321.5q0 137 91 283l425 682h142zM566 777q-160 0 -265 -97t-105 -245q0 -149 104.5 -245.5t265.5 -96.5t265 96.5t104 245.5t-104.5 245.5
t-264.5 96.5z" />
    <glyph glyph-name="seven.osf" horiz-adv-x="1094" 
d="M1018 1030v-90l-651 -1310h-134l646 1290h-803v110h942z" />
    <glyph glyph-name="eight.osf" horiz-adv-x="1196" 
d="M599 1415q193 0 324.5 -103.5t131.5 -271.5q0 -119 -63 -202.5t-167 -128.5q118 -43 190.5 -129.5t72.5 -209.5q0 -116 -66.5 -205t-177 -135t-245.5 -46q-136 0 -247 46t-177.5 135t-66.5 205q0 123 72.5 209.5t191.5 129.5q-105 45 -167.5 128.5t-62.5 202.5
q0 112 62 198t165.5 131.5t229.5 45.5zM599 654q-157 0 -263 -76.5t-106 -202.5q0 -129 105.5 -205.5t263.5 -76.5q157 0 262.5 77t105.5 205q0 126 -106 202.5t-262 76.5zM599 1306q-143 0 -239.5 -74t-96.5 -196q0 -127 96.5 -202.5t239.5 -75.5t239 75.5t96 202.5
q0 121 -96.5 195.5t-238.5 74.5z" />
    <glyph glyph-name="nine.osf" horiz-adv-x="1137" 
d="M404 -369l349 555q-88 -40 -192 -40q-206 0 -342 128.5t-136 321.5t138.5 321.5t350.5 128.5q210 0 349.5 -128.5t139.5 -321.5q0 -136 -91 -283l-424 -682h-142zM572 254q160 0 265 97t105 245q0 149 -105 245.5t-265 96.5q-161 0 -265.5 -97t-104.5 -245t104.5 -245
t265.5 -97z" />
    <glyph glyph-name="zero.tf" horiz-adv-x="1200" 
d="M602 1415q109 0 201.5 -45t162.5 -131.5t110 -224.5t40 -314q0 -181 -39.5 -320t-110.5 -224t-162.5 -128t-201.5 -43t-203 43t-164.5 128t-111.5 224t-40 320q0 146 26.5 265t73 202t112 139t142.5 82.5t165 26.5zM602 1302q-85 0 -156 -35t-125.5 -106t-85 -188.5
t-30.5 -272.5t30.5 -272.5t85 -188.5t125.5 -106t156 -35q84 0 154 35t124 106t84.5 188.5t30.5 272.5q0 293 -110 447.5t-283 154.5z" />
    <glyph glyph-name="one.tf" horiz-adv-x="1200" 
d="M189 112h413v1141l-426 -152v120l543 193v-1302h385v-112h-915v112z" />
    <glyph glyph-name="two.tf" horiz-adv-x="1200" 
d="M232 1115l-85 69q149 231 417 231q205 0 321.5 -119.5t116.5 -304.5q0 -117 -51.5 -212.5t-137.5 -184.5l-458 -482h698v-112h-872v92l542 570q156 163 156 329q0 135 -84.5 223.5t-233.5 88.5q-117 0 -194 -51t-135 -137z" />
    <glyph glyph-name="three.tf" horiz-adv-x="1200" 
d="M555 1415q203 0 329 -104.5t126 -269.5q0 -126 -64 -210.5t-175 -123.5q123 -39 196.5 -125.5t73.5 -209.5q0 -95 -39.5 -170.5t-106.5 -122t-150.5 -70.5t-176.5 -24q-276 0 -438 175l75 79q144 -144 360 -144q97 0 175 29.5t128 95t50 157.5q0 127 -103 201.5
t-256 74.5h-193v108h193q144 0 236 71.5t92 203.5q0 120 -95.5 194.5t-243.5 74.5q-103 0 -186 -45.5t-137 -118.5l-86 72q65 92 171 147t245 55z" />
    <glyph glyph-name="four.tf" horiz-adv-x="1200" 
d="M877 817v-399h253v-111h-253v-307h-117v307h-672v91l523 1001h133l-515 -981h531v399h117z" />
    <glyph glyph-name="five.tf" horiz-adv-x="1200" 
d="M993 1400v-111h-636l-17 -458h219q121 0 216.5 -31.5t155.5 -87.5t91 -129.5t31 -159.5q0 -202 -133 -320t-338 -118q-292 0 -467 214l79 77q71 -86 172 -132.5t215 -46.5q162 0 256 89t94 227t-100.5 222t-306.5 84h-295l20 681h744z" />
    </font>
</defs>
</svg>
